<?xml version="1.0" encoding="utf-8" standalone="no"?>
<!DOCTYPE svg PUBLIC "-//W3C//DTD SVG 1.1//EN"
  "http://www.w3.org/Graphics/SVG/1.1/DTD/svg11.dtd">
<!-- Created with matplotlib (https://matplotlib.org/) -->
<svg height="360pt" version="1.1" viewBox="0 0 422.1 360" width="422.1pt" xmlns="http://www.w3.org/2000/svg" xmlns:xlink="http://www.w3.org/1999/xlink">
 <metadata>
  <rdf:RDF xmlns:cc="http://creativecommons.org/ns#" xmlns:dc="http://purl.org/dc/elements/1.1/" xmlns:rdf="http://www.w3.org/1999/02/22-rdf-syntax-ns#">
   <cc:Work>
    <dc:type rdf:resource="http://purl.org/dc/dcmitype/StillImage"/>
    <dc:date>2021-02-16T14:29:50.754708</dc:date>
    <dc:format>image/svg+xml</dc:format>
    <dc:creator>
     <cc:Agent>
      <dc:title>Matplotlib v3.3.2, https://matplotlib.org/</dc:title>
     </cc:Agent>
    </dc:creator>
   </cc:Work>
  </rdf:RDF>
 </metadata>
 <defs>
  <style type="text/css">*{stroke-linecap:butt;stroke-linejoin:round;}</style>
 </defs>
 <g id="figure_1">
  <g id="patch_1">
   <path d="M 0 360 
L 422.1 360 
L 422.1 0 
L 0 0 
z
" style="fill:#ffffff;"/>
  </g>
  <g id="axes_1">
   <g id="patch_2">
    <path d="M 50.523025 332.12 
L 355.779 332.12 
L 355.779 24.72 
L 50.523025 24.72 
z
" style="fill:#ffffff;"/>
   </g>
   <g id="PathCollection_1"/>
   <g id="PathCollection_2"/>
   <g id="PathCollection_3"/>
   <g id="patch_3">
    <path clip-path="url(#p8c5d528cc5)" d="M 54.338725 332.12 
L 84.864322 332.12 
L 84.864322 50.628602 
L 54.338725 50.628602 
z
" style="fill:#3274a1;opacity:0.6;"/>
   </g>
   <g id="patch_4">
    <path clip-path="url(#p8c5d528cc5)" d="M 92.495722 332.12 
L 123.021319 332.12 
L 123.021319 217.417311 
L 92.495722 217.417311 
z
" style="fill:#3274a1;opacity:0.6;"/>
   </g>
   <g id="patch_5">
    <path clip-path="url(#p8c5d528cc5)" d="M 130.652718 332.12 
L 161.178316 332.12 
L 161.178316 141.063941 
L 130.652718 141.063941 
z
" style="fill:#3274a1;opacity:0.6;"/>
   </g>
   <g id="patch_6">
    <path clip-path="url(#p8c5d528cc5)" d="M 168.809715 332.12 
L 199.335313 332.12 
L 199.335313 112.135484 
L 168.809715 112.135484 
z
" style="fill:#3274a1;opacity:0.6;"/>
   </g>
   <g id="patch_7">
    <path clip-path="url(#p8c5d528cc5)" d="M 206.966712 332.12 
L 237.49231 332.12 
L 237.49231 166.465741 
L 206.966712 166.465741 
z
" style="fill:#3274a1;opacity:0.6;"/>
   </g>
   <g id="patch_8">
    <path clip-path="url(#p8c5d528cc5)" d="M 245.123709 332.12 
L 275.649307 332.12 
L 275.649307 227.257426 
L 245.123709 227.257426 
z
" style="fill:#3274a1;opacity:0.6;"/>
   </g>
   <g id="patch_9">
    <path clip-path="url(#p8c5d528cc5)" d="M 283.280706 332.12 
L 313.806303 332.12 
L 313.806303 299.886843 
L 283.280706 299.886843 
z
" style="fill:#3274a1;opacity:0.6;"/>
   </g>
   <g id="patch_10">
    <path clip-path="url(#p8c5d528cc5)" d="M 321.437703 332.12 
L 351.9633 332.12 
L 351.9633 308.592508 
L 321.437703 308.592508 
z
" style="fill:#3274a1;opacity:0.6;"/>
   </g>
   <g id="matplotlib.axis_1">
    <g id="xtick_1">
     <g id="line2d_1">
      <defs>
       <path d="M 0 0 
L 0 3.5 
" id="mba12341669" style="stroke:#000000;stroke-width:0.8;"/>
      </defs>
      <g>
       <use style="stroke:#000000;stroke-width:0.8;" x="69.601523" xlink:href="#mba12341669" y="332.12"/>
      </g>
     </g>
     <g id="text_1">
      <text style="font-family:DejaVu Sans;font-size:8px;font-stretch:normal;font-style:normal;font-weight:normal;text-anchor:middle;" transform="rotate(-0, 69.601523, 345.19875)" x="69.601523" y="345.19875">iPSC</text>
     </g>
    </g>
    <g id="xtick_2">
     <g id="line2d_2">
      <g>
       <use style="stroke:#000000;stroke-width:0.8;" x="107.75852" xlink:href="#mba12341669" y="332.12"/>
      </g>
     </g>
     <g id="text_2">
      <text style="font-family:DejaVu Sans;font-size:8px;font-stretch:normal;font-style:normal;font-weight:normal;text-anchor:middle;" transform="rotate(-0, 107.75852, 345.19875)" x="107.75852" y="345.19875">DE</text>
     </g>
    </g>
    <g id="xtick_3">
     <g id="line2d_3">
      <g>
       <use style="stroke:#000000;stroke-width:0.8;" x="145.915517" xlink:href="#mba12341669" y="332.12"/>
      </g>
     </g>
     <g id="text_3">
      <text style="font-family:DejaVu Sans;font-size:8px;font-stretch:normal;font-style:normal;font-weight:normal;text-anchor:middle;" transform="rotate(-0, 145.915517, 345.19875)" x="145.915517" y="345.19875">PGT</text>
     </g>
    </g>
    <g id="xtick_4">
     <g id="line2d_4">
      <g>
       <use style="stroke:#000000;stroke-width:0.8;" x="184.072514" xlink:href="#mba12341669" y="332.12"/>
      </g>
     </g>
     <g id="text_4">
      <text style="font-family:DejaVu Sans;font-size:8px;font-stretch:normal;font-style:normal;font-weight:normal;text-anchor:middle;" transform="rotate(-0, 184.072514, 345.19875)" x="184.072514" y="345.19875">PFG</text>
     </g>
    </g>
    <g id="xtick_5">
     <g id="line2d_5">
      <g>
       <use style="stroke:#000000;stroke-width:0.8;" x="222.229511" xlink:href="#mba12341669" y="332.12"/>
      </g>
     </g>
     <g id="text_5">
      <text style="font-family:DejaVu Sans;font-size:8px;font-stretch:normal;font-style:normal;font-weight:normal;text-anchor:middle;" transform="rotate(-0, 222.229511, 345.19875)" x="222.229511" y="345.19875">PE</text>
     </g>
    </g>
    <g id="xtick_6">
     <g id="line2d_6">
      <g>
       <use style="stroke:#000000;stroke-width:0.8;" x="260.386508" xlink:href="#mba12341669" y="332.12"/>
      </g>
     </g>
     <g id="text_6">
      <text style="font-family:DejaVu Sans;font-size:8px;font-stretch:normal;font-style:normal;font-weight:normal;text-anchor:middle;" transform="rotate(-0, 260.386508, 345.19875)" x="260.386508" y="345.19875">EP</text>
     </g>
    </g>
    <g id="xtick_7">
     <g id="line2d_7">
      <g>
       <use style="stroke:#000000;stroke-width:0.8;" x="298.543505" xlink:href="#mba12341669" y="332.12"/>
      </g>
     </g>
     <g id="text_7">
      <text style="font-family:DejaVu Sans;font-size:8px;font-stretch:normal;font-style:normal;font-weight:normal;text-anchor:middle;" transform="rotate(-0, 298.543505, 345.19875)" x="298.543505" y="345.19875">EN6</text>
     </g>
    </g>
    <g id="xtick_8">
     <g id="line2d_8">
      <g>
       <use style="stroke:#000000;stroke-width:0.8;" x="336.700502" xlink:href="#mba12341669" y="332.12"/>
      </g>
     </g>
     <g id="text_8">
      <text style="font-family:DejaVu Sans;font-size:8px;font-stretch:normal;font-style:normal;font-weight:normal;text-anchor:middle;" transform="rotate(-0, 336.700502, 345.19875)" x="336.700502" y="345.19875">EN7</text>
     </g>
    </g>
   </g>
   <g id="matplotlib.axis_2">
    <g id="ytick_1">
     <g id="line2d_9">
      <defs>
       <path d="M 0 0 
L -3.5 0 
" id="maf10f0cbe1" style="stroke:#000000;stroke-width:0.8;"/>
      </defs>
      <g>
       <use style="stroke:#000000;stroke-width:0.8;" x="50.523025" xlink:href="#maf10f0cbe1" y="332.12"/>
      </g>
     </g>
     <g id="text_9">
      <text style="font-family:DejaVu Sans;font-size:10px;font-stretch:normal;font-style:normal;font-weight:normal;text-anchor:end;" transform="rotate(-0, 43.523025, 335.919219)" x="43.523025" y="335.919219">0</text>
     </g>
    </g>
    <g id="ytick_2">
     <g id="line2d_10">
      <g>
       <use style="stroke:#000000;stroke-width:0.8;" x="50.523025" xlink:href="#maf10f0cbe1" y="295.127088"/>
      </g>
     </g>
     <g id="text_10">
      <text style="font-family:DejaVu Sans;font-size:10px;font-stretch:normal;font-style:normal;font-weight:normal;text-anchor:end;" transform="rotate(-0, 43.523025, 298.926307)" x="43.523025" y="298.926307">500</text>
     </g>
    </g>
    <g id="ytick_3">
     <g id="line2d_11">
      <g>
       <use style="stroke:#000000;stroke-width:0.8;" x="50.523025" xlink:href="#maf10f0cbe1" y="258.134176"/>
      </g>
     </g>
     <g id="text_11">
      <text style="font-family:DejaVu Sans;font-size:10px;font-stretch:normal;font-style:normal;font-weight:normal;text-anchor:end;" transform="rotate(-0, 43.523025, 261.933395)" x="43.523025" y="261.933395">1000</text>
     </g>
    </g>
    <g id="ytick_4">
     <g id="line2d_12">
      <g>
       <use style="stroke:#000000;stroke-width:0.8;" x="50.523025" xlink:href="#maf10f0cbe1" y="221.141264"/>
      </g>
     </g>
     <g id="text_12">
      <text style="font-family:DejaVu Sans;font-size:10px;font-stretch:normal;font-style:normal;font-weight:normal;text-anchor:end;" transform="rotate(-0, 43.523025, 224.940483)" x="43.523025" y="224.940483">1500</text>
     </g>
    </g>
    <g id="ytick_5">
     <g id="line2d_13">
      <g>
       <use style="stroke:#000000;stroke-width:0.8;" x="50.523025" xlink:href="#maf10f0cbe1" y="184.148352"/>
      </g>
     </g>
     <g id="text_13">
      <text style="font-family:DejaVu Sans;font-size:10px;font-stretch:normal;font-style:normal;font-weight:normal;text-anchor:end;" transform="rotate(-0, 43.523025, 187.947571)" x="43.523025" y="187.947571">2000</text>
     </g>
    </g>
    <g id="ytick_6">
     <g id="line2d_14">
      <g>
       <use style="stroke:#000000;stroke-width:0.8;" x="50.523025" xlink:href="#maf10f0cbe1" y="147.155441"/>
      </g>
     </g>
     <g id="text_14">
      <text style="font-family:DejaVu Sans;font-size:10px;font-stretch:normal;font-style:normal;font-weight:normal;text-anchor:end;" transform="rotate(-0, 43.523025, 150.954659)" x="43.523025" y="150.954659">2500</text>
     </g>
    </g>
    <g id="ytick_7">
     <g id="line2d_15">
      <g>
       <use style="stroke:#000000;stroke-width:0.8;" x="50.523025" xlink:href="#maf10f0cbe1" y="110.162529"/>
      </g>
     </g>
     <g id="text_15">
      <text style="font-family:DejaVu Sans;font-size:10px;font-stretch:normal;font-style:normal;font-weight:normal;text-anchor:end;" transform="rotate(-0, 43.523025, 113.961747)" x="43.523025" y="113.961747">3000</text>
     </g>
    </g>
    <g id="ytick_8">
     <g id="line2d_16">
      <g>
       <use style="stroke:#000000;stroke-width:0.8;" x="50.523025" xlink:href="#maf10f0cbe1" y="73.169617"/>
      </g>
     </g>
     <g id="text_16">
      <text style="font-family:DejaVu Sans;font-size:10px;font-stretch:normal;font-style:normal;font-weight:normal;text-anchor:end;" transform="rotate(-0, 43.523025, 76.968835)" x="43.523025" y="76.968835">3500</text>
     </g>
    </g>
    <g id="ytick_9">
     <g id="line2d_17">
      <g>
       <use style="stroke:#000000;stroke-width:0.8;" x="50.523025" xlink:href="#maf10f0cbe1" y="36.176705"/>
      </g>
     </g>
     <g id="text_17">
      <text style="font-family:DejaVu Sans;font-size:10px;font-stretch:normal;font-style:normal;font-weight:normal;text-anchor:end;" transform="rotate(-0, 43.523025, 39.975924)" x="43.523025" y="39.975924">4000</text>
     </g>
    </g>
    <g id="text_18">
     <text style="font-family:DejaVu Sans;font-size:10px;font-stretch:normal;font-style:normal;font-weight:normal;text-anchor:middle;" transform="rotate(-90, 11.993337, 178.42)" x="11.993337" y="178.42">counts</text>
    </g>
   </g>
   <g id="line2d_18">
    <path clip-path="url(#p8c5d528cc5)" d="M 69.601523 60.813984 
L 69.601523 39.358095 
" style="fill:none;stroke:#424242;stroke-linecap:square;stroke-width:2.7;"/>
   </g>
   <g id="line2d_19">
    <path clip-path="url(#p8c5d528cc5)" d="M 67.693674 60.813984 
L 71.509373 60.813984 
" style="fill:none;stroke:#424242;stroke-linecap:square;stroke-width:2.7;"/>
   </g>
   <g id="line2d_20">
    <path clip-path="url(#p8c5d528cc5)" d="M 67.693674 39.358095 
L 71.509373 39.358095 
" style="fill:none;stroke:#424242;stroke-linecap:square;stroke-width:2.7;"/>
   </g>
   <g id="line2d_21">
    <path clip-path="url(#p8c5d528cc5)" d="M 107.75852 221.807137 
L 107.75852 214.778483 
" style="fill:none;stroke:#424242;stroke-linecap:square;stroke-width:2.7;"/>
   </g>
   <g id="line2d_22">
    <path clip-path="url(#p8c5d528cc5)" d="M 105.85067 221.807137 
L 109.66637 221.807137 
" style="fill:none;stroke:#424242;stroke-linecap:square;stroke-width:2.7;"/>
   </g>
   <g id="line2d_23">
    <path clip-path="url(#p8c5d528cc5)" d="M 105.85067 214.778483 
L 109.66637 214.778483 
" style="fill:none;stroke:#424242;stroke-linecap:square;stroke-width:2.7;"/>
   </g>
   <g id="line2d_24">
    <path clip-path="url(#p8c5d528cc5)" d="M 145.915517 181.336891 
L 145.915517 108.01694 
" style="fill:none;stroke:#424242;stroke-linecap:square;stroke-width:2.7;"/>
   </g>
   <g id="line2d_25">
    <path clip-path="url(#p8c5d528cc5)" d="M 144.007667 181.336891 
L 147.823367 181.336891 
" style="fill:none;stroke:#424242;stroke-linecap:square;stroke-width:2.7;"/>
   </g>
   <g id="line2d_26">
    <path clip-path="url(#p8c5d528cc5)" d="M 144.007667 108.01694 
L 147.823367 108.01694 
" style="fill:none;stroke:#424242;stroke-linecap:square;stroke-width:2.7;"/>
   </g>
   <g id="line2d_27">
    <path clip-path="url(#p8c5d528cc5)" d="M 184.072514 151.446618 
L 184.072514 91.666073 
" style="fill:none;stroke:#424242;stroke-linecap:square;stroke-width:2.7;"/>
   </g>
   <g id="line2d_28">
    <path clip-path="url(#p8c5d528cc5)" d="M 182.164664 151.446618 
L 185.980364 151.446618 
" style="fill:none;stroke:#424242;stroke-linecap:square;stroke-width:2.7;"/>
   </g>
   <g id="line2d_29">
    <path clip-path="url(#p8c5d528cc5)" d="M 182.164664 91.666073 
L 185.980364 91.666073 
" style="fill:none;stroke:#424242;stroke-linecap:square;stroke-width:2.7;"/>
   </g>
   <g id="line2d_30">
    <path clip-path="url(#p8c5d528cc5)" d="M 222.229511 186.293941 
L 222.229511 129.916744 
" style="fill:none;stroke:#424242;stroke-linecap:square;stroke-width:2.7;"/>
   </g>
   <g id="line2d_31">
    <path clip-path="url(#p8c5d528cc5)" d="M 220.321661 186.293941 
L 224.137361 186.293941 
" style="fill:none;stroke:#424242;stroke-linecap:square;stroke-width:2.7;"/>
   </g>
   <g id="line2d_32">
    <path clip-path="url(#p8c5d528cc5)" d="M 220.321661 129.916744 
L 224.137361 129.916744 
" style="fill:none;stroke:#424242;stroke-linecap:square;stroke-width:2.7;"/>
   </g>
   <g id="line2d_33">
    <path clip-path="url(#p8c5d528cc5)" d="M 260.386508 245.408615 
L 260.386508 196.799928 
" style="fill:none;stroke:#424242;stroke-linecap:square;stroke-width:2.7;"/>
   </g>
   <g id="line2d_34">
    <path clip-path="url(#p8c5d528cc5)" d="M 258.478658 245.408615 
L 262.294358 245.408615 
" style="fill:none;stroke:#424242;stroke-linecap:square;stroke-width:2.7;"/>
   </g>
   <g id="line2d_35">
    <path clip-path="url(#p8c5d528cc5)" d="M 258.478658 196.799928 
L 262.294358 196.799928 
" style="fill:none;stroke:#424242;stroke-linecap:square;stroke-width:2.7;"/>
   </g>
   <g id="line2d_36">
    <path clip-path="url(#p8c5d528cc5)" d="M 298.543505 308.74048 
L 298.543505 292.019684 
" style="fill:none;stroke:#424242;stroke-linecap:square;stroke-width:2.7;"/>
   </g>
   <g id="line2d_37">
    <path clip-path="url(#p8c5d528cc5)" d="M 296.635655 308.74048 
L 300.451355 308.74048 
" style="fill:none;stroke:#424242;stroke-linecap:square;stroke-width:2.7;"/>
   </g>
   <g id="line2d_38">
    <path clip-path="url(#p8c5d528cc5)" d="M 296.635655 292.019684 
L 300.451355 292.019684 
" style="fill:none;stroke:#424242;stroke-linecap:square;stroke-width:2.7;"/>
   </g>
   <g id="line2d_39">
    <path clip-path="url(#p8c5d528cc5)" d="M 336.700502 313.549558 
L 336.700502 302.303713 
" style="fill:none;stroke:#424242;stroke-linecap:square;stroke-width:2.7;"/>
   </g>
   <g id="line2d_40">
    <path clip-path="url(#p8c5d528cc5)" d="M 334.792652 313.549558 
L 338.608351 313.549558 
" style="fill:none;stroke:#424242;stroke-linecap:square;stroke-width:2.7;"/>
   </g>
   <g id="line2d_41">
    <path clip-path="url(#p8c5d528cc5)" d="M 334.792652 302.303713 
L 338.608351 302.303713 
" style="fill:none;stroke:#424242;stroke-linecap:square;stroke-width:2.7;"/>
   </g>
   <g id="patch_11">
    <path d="M 50.523025 332.12 
L 50.523025 24.72 
" style="fill:none;stroke:#000000;stroke-linecap:square;stroke-linejoin:miter;stroke-width:0.8;"/>
   </g>
   <g id="patch_12">
    <path d="M 50.523025 332.12 
L 355.779 332.12 
" style="fill:none;stroke:#000000;stroke-linecap:square;stroke-linejoin:miter;stroke-width:0.8;"/>
   </g>
   <g id="PathCollection_4">
    <defs>
     <path d="M 0 2.5 
C 0.663008 2.5 1.29895 2.236584 1.767767 1.767767 
C 2.236584 1.29895 2.5 0.663008 2.5 -0 
C 2.5 -0.663008 2.236584 -1.29895 1.767767 -1.767767 
C 1.29895 -2.236584 0.663008 -2.5 0 -2.5 
C -0.663008 -2.5 -1.29895 -2.236584 -1.767767 -1.767767 
C -2.236584 -1.29895 -2.5 -0.663008 -2.5 0 
C -2.5 0.663008 -2.236584 1.29895 -1.767767 1.767767 
C -1.29895 2.236584 -0.663008 2.5 0 2.5 
z
" id="C0_0_8a421ceb52"/>
    </defs>
    <g clip-path="url(#p8c5d528cc5)">
     <use style="fill:#d62728;" x="69.601523" xlink:href="#C0_0_8a421ceb52" y="60.813984"/>
    </g>
    <g clip-path="url(#p8c5d528cc5)">
     <use style="fill:#ff7f0e;" x="69.601523" xlink:href="#C0_0_8a421ceb52" y="51.713728"/>
    </g>
    <g clip-path="url(#p8c5d528cc5)">
     <use style="fill:#2ca02c;" x="69.601523" xlink:href="#C0_0_8a421ceb52" y="39.358095"/>
    </g>
   </g>
   <g id="PathCollection_5">
    <defs>
     <path d="M 0 2.5 
C 0.663008 2.5 1.29895 2.236584 1.767767 1.767767 
C 2.236584 1.29895 2.5 0.663008 2.5 -0 
C 2.5 -0.663008 2.236584 -1.29895 1.767767 -1.767767 
C 1.29895 -2.236584 0.663008 -2.5 0 -2.5 
C -0.663008 -2.5 -1.29895 -2.236584 -1.767767 -1.767767 
C -2.236584 -1.29895 -2.5 -0.663008 -2.5 0 
C -2.5 0.663008 -2.236584 1.29895 -1.767767 1.767767 
C -1.29895 2.236584 -0.663008 2.5 0 2.5 
z
" id="C1_0_7e1910ebcb"/>
    </defs>
    <g clip-path="url(#p8c5d528cc5)">
     <use style="fill:#2ca02c;" x="107.75852" xlink:href="#C1_0_7e1910ebcb" y="221.807137"/>
    </g>
    <g clip-path="url(#p8c5d528cc5)">
     <use style="fill:#ff7f0e;" x="107.75852" xlink:href="#C1_0_7e1910ebcb" y="215.666313"/>
    </g>
    <g clip-path="url(#p8c5d528cc5)">
     <use style="fill:#d62728;" x="102.606363" xlink:href="#C1_0_7e1910ebcb" y="214.778483"/>
    </g>
   </g>
   <g id="PathCollection_6">
    <defs>
     <path d="M 0 2.5 
C 0.663008 2.5 1.29895 2.236584 1.767767 1.767767 
C 2.236584 1.29895 2.5 0.663008 2.5 -0 
C 2.5 -0.663008 2.236584 -1.29895 1.767767 -1.767767 
C 1.29895 -2.236584 0.663008 -2.5 0 -2.5 
C -0.663008 -2.5 -1.29895 -2.236584 -1.767767 -1.767767 
C -2.236584 -1.29895 -2.5 -0.663008 -2.5 0 
C -2.5 0.663008 -2.236584 1.29895 -1.767767 1.767767 
C -1.29895 2.236584 -0.663008 2.5 0 2.5 
z
" id="C2_0_c22dd841f3"/>
    </defs>
    <g clip-path="url(#p8c5d528cc5)">
     <use style="fill:#ff7f0e;" x="145.915517" xlink:href="#C2_0_c22dd841f3" y="181.336891"/>
    </g>
    <g clip-path="url(#p8c5d528cc5)">
     <use style="fill:#d62728;" x="145.915517" xlink:href="#C2_0_c22dd841f3" y="133.837992"/>
    </g>
    <g clip-path="url(#p8c5d528cc5)">
     <use style="fill:#2ca02c;" x="145.915517" xlink:href="#C2_0_c22dd841f3" y="108.01694"/>
    </g>
   </g>
   <g id="PathCollection_7">
    <defs>
     <path d="M 0 2.5 
C 0.663008 2.5 1.29895 2.236584 1.767767 1.767767 
C 2.236584 1.29895 2.5 0.663008 2.5 -0 
C 2.5 -0.663008 2.236584 -1.29895 1.767767 -1.767767 
C 1.29895 -2.236584 0.663008 -2.5 0 -2.5 
C -0.663008 -2.5 -1.29895 -2.236584 -1.767767 -1.767767 
C -2.236584 -1.29895 -2.5 -0.663008 -2.5 0 
C -2.5 0.663008 -2.236584 1.29895 -1.767767 1.767767 
C -1.29895 2.236584 -0.663008 2.5 0 2.5 
z
" id="C3_0_f629b7a7a7"/>
    </defs>
    <g clip-path="url(#p8c5d528cc5)">
     <use style="fill:#ff7f0e;" x="184.072514" xlink:href="#C3_0_f629b7a7a7" y="151.446618"/>
    </g>
    <g clip-path="url(#p8c5d528cc5)">
     <use style="fill:#d62728;" x="184.072514" xlink:href="#C3_0_f629b7a7a7" y="93.293761"/>
    </g>
    <g clip-path="url(#p8c5d528cc5)">
     <use style="fill:#2ca02c;" x="179.122336" xlink:href="#C3_0_f629b7a7a7" y="91.666073"/>
    </g>
   </g>
   <g id="PathCollection_8">
    <defs>
     <path d="M 0 2.5 
C 0.663008 2.5 1.29895 2.236584 1.767767 1.767767 
C 2.236584 1.29895 2.5 0.663008 2.5 -0 
C 2.5 -0.663008 2.236584 -1.29895 1.767767 -1.767767 
C 1.29895 -2.236584 0.663008 -2.5 0 -2.5 
C -0.663008 -2.5 -1.29895 -2.236584 -1.767767 -1.767767 
C -2.236584 -1.29895 -2.5 -0.663008 -2.5 0 
C -2.5 0.663008 -2.236584 1.29895 -1.767767 1.767767 
C -1.29895 2.236584 -0.663008 2.5 0 2.5 
z
" id="C4_0_dac2cb0a0a"/>
    </defs>
    <g clip-path="url(#p8c5d528cc5)">
     <use style="fill:#2ca02c;" x="222.229511" xlink:href="#C4_0_dac2cb0a0a" y="186.293941"/>
    </g>
    <g clip-path="url(#p8c5d528cc5)">
     <use style="fill:#ff7f0e;" x="218.127982" xlink:href="#C4_0_dac2cb0a0a" y="183.186537"/>
    </g>
    <g clip-path="url(#p8c5d528cc5)">
     <use style="fill:#d62728;" x="222.229511" xlink:href="#C4_0_dac2cb0a0a" y="129.916744"/>
    </g>
   </g>
   <g id="PathCollection_9">
    <defs>
     <path d="M 0 2.5 
C 0.663008 2.5 1.29895 2.236584 1.767767 1.767767 
C 2.236584 1.29895 2.5 0.663008 2.5 -0 
C 2.5 -0.663008 2.236584 -1.29895 1.767767 -1.767767 
C 1.29895 -2.236584 0.663008 -2.5 0 -2.5 
C -0.663008 -2.5 -1.29895 -2.236584 -1.767767 -1.767767 
C -2.236584 -1.29895 -2.5 -0.663008 -2.5 0 
C -2.5 0.663008 -2.236584 1.29895 -1.767767 1.767767 
C -1.29895 2.236584 -0.663008 2.5 0 2.5 
z
" id="C5_0_ad6d8aaabb"/>
    </defs>
    <g clip-path="url(#p8c5d528cc5)">
     <use style="fill:#ff7f0e;" x="260.386508" xlink:href="#C5_0_ad6d8aaabb" y="245.408615"/>
    </g>
    <g clip-path="url(#p8c5d528cc5)">
     <use style="fill:#2ca02c;" x="260.386508" xlink:href="#C5_0_ad6d8aaabb" y="239.563734"/>
    </g>
    <g clip-path="url(#p8c5d528cc5)">
     <use style="fill:#d62728;" x="260.386508" xlink:href="#C5_0_ad6d8aaabb" y="196.799928"/>
    </g>
   </g>
   <g id="PathCollection_10">
    <defs>
     <path d="M 0 2.5 
C 0.663008 2.5 1.29895 2.236584 1.767767 1.767767 
C 2.236584 1.29895 2.5 0.663008 2.5 -0 
C 2.5 -0.663008 2.236584 -1.29895 1.767767 -1.767767 
C 1.29895 -2.236584 0.663008 -2.5 0 -2.5 
C -0.663008 -2.5 -1.29895 -2.236584 -1.767767 -1.767767 
C -2.236584 -1.29895 -2.5 -0.663008 -2.5 0 
C -2.5 0.663008 -2.236584 1.29895 -1.767767 1.767767 
C -1.29895 2.236584 -0.663008 2.5 0 2.5 
z
" id="C6_0_0ee083a22c"/>
    </defs>
    <g clip-path="url(#p8c5d528cc5)">
     <use style="fill:#2ca02c;" x="298.543505" xlink:href="#C6_0_0ee083a22c" y="308.74048"/>
    </g>
    <g clip-path="url(#p8c5d528cc5)">
     <use style="fill:#d62728;" x="298.543505" xlink:href="#C6_0_0ee083a22c" y="298.900365"/>
    </g>
    <g clip-path="url(#p8c5d528cc5)">
     <use style="fill:#ff7f0e;" x="298.543505" xlink:href="#C6_0_0ee083a22c" y="292.019684"/>
    </g>
   </g>
   <g id="PathCollection_11">
    <defs>
     <path d="M 0 2.5 
C 0.663008 2.5 1.29895 2.236584 1.767767 1.767767 
C 2.236584 1.29895 2.5 0.663008 2.5 -0 
C 2.5 -0.663008 2.236584 -1.29895 1.767767 -1.767767 
C 1.29895 -2.236584 0.663008 -2.5 0 -2.5 
C -0.663008 -2.5 -1.29895 -2.236584 -1.767767 -1.767767 
C -2.236584 -1.29895 -2.5 -0.663008 -2.5 0 
C -2.5 0.663008 -2.236584 1.29895 -1.767767 1.767767 
C -1.29895 2.236584 -0.663008 2.5 0 2.5 
z
" id="C7_0_cb6e9d5fb6"/>
    </defs>
    <g clip-path="url(#p8c5d528cc5)">
     <use style="fill:#2ca02c;" x="336.700502" xlink:href="#C7_0_cb6e9d5fb6" y="313.549558"/>
    </g>
    <g clip-path="url(#p8c5d528cc5)">
     <use style="fill:#ff7f0e;" x="333.094995" xlink:href="#C7_0_cb6e9d5fb6" y="309.924253"/>
    </g>
    <g clip-path="url(#p8c5d528cc5)">
     <use style="fill:#d62728;" x="336.700502" xlink:href="#C7_0_cb6e9d5fb6" y="302.303713"/>
    </g>
   </g>
   <g id="text_19">
    <text style="font-family:DejaVu Sans;font-size:10px;font-stretch:normal;font-style:normal;font-weight:normal;text-anchor:middle;" transform="rotate(-0, 203.151012, 18.72)" x="203.151012" y="18.72">Gene = GINS4</text>
   </g>
  </g>
  <g id="legend_1">
   <g id="PathCollection_12">
    <defs>
     <path d="M 0 3.872983 
C 1.027127 3.872983 2.012324 3.464901 2.738613 2.738613 
C 3.464901 2.012324 3.872983 1.027127 3.872983 0 
C 3.872983 -1.027127 3.464901 -2.012324 2.738613 -2.738613 
C 2.012324 -3.464901 1.027127 -3.872983 0 -3.872983 
C -1.027127 -3.872983 -2.012324 -3.464901 -2.738613 -2.738613 
C -3.464901 -2.012324 -3.872983 -1.027127 -3.872983 0 
C -3.872983 1.027127 -3.464901 2.012324 -2.738613 2.738613 
C -2.012324 3.464901 -1.027127 3.872983 0 3.872983 
z
" id="m7eedc2950d" style="stroke:#ff7f0e;"/>
    </defs>
    <g>
     <use style="fill:#ff7f0e;stroke:#ff7f0e;" x="368.984375" xlink:href="#m7eedc2950d" y="165.45625"/>
    </g>
   </g>
   <g id="text_20">
    <text style="font-family:DejaVu Sans;font-size:10px;font-stretch:normal;font-style:normal;font-weight:normal;text-anchor:start;" transform="rotate(-0, 386.984375, 168.08125)" x="386.984375" y="168.08125">Ad2</text>
   </g>
   <g id="PathCollection_13">
    <defs>
     <path d="M 0 3.872983 
C 1.027127 3.872983 2.012324 3.464901 2.738613 2.738613 
C 3.464901 2.012324 3.872983 1.027127 3.872983 0 
C 3.872983 -1.027127 3.464901 -2.012324 2.738613 -2.738613 
C 2.012324 -3.464901 1.027127 -3.872983 0 -3.872983 
C -1.027127 -3.872983 -2.012324 -3.464901 -2.738613 -2.738613 
C -3.464901 -2.012324 -3.872983 -1.027127 -3.872983 0 
C -3.872983 1.027127 -3.464901 2.012324 -2.738613 2.738613 
C -2.012324 3.464901 -1.027127 3.872983 0 3.872983 
z
" id="md280279c82" style="stroke:#2ca02c;"/>
    </defs>
    <g>
     <use style="fill:#2ca02c;stroke:#2ca02c;" x="368.984375" xlink:href="#md280279c82" y="180.134375"/>
    </g>
   </g>
   <g id="text_21">
    <text style="font-family:DejaVu Sans;font-size:10px;font-stretch:normal;font-style:normal;font-weight:normal;text-anchor:start;" transform="rotate(-0, 386.984375, 182.759375)" x="386.984375" y="182.759375">Ad3</text>
   </g>
   <g id="PathCollection_14">
    <defs>
     <path d="M 0 3.872983 
C 1.027127 3.872983 2.012324 3.464901 2.738613 2.738613 
C 3.464901 2.012324 3.872983 1.027127 3.872983 0 
C 3.872983 -1.027127 3.464901 -2.012324 2.738613 -2.738613 
C 2.012324 -3.464901 1.027127 -3.872983 0 -3.872983 
C -1.027127 -3.872983 -2.012324 -3.464901 -2.738613 -2.738613 
C -3.464901 -2.012324 -3.872983 -1.027127 -3.872983 0 
C -3.872983 1.027127 -3.464901 2.012324 -2.738613 2.738613 
C -2.012324 3.464901 -1.027127 3.872983 0 3.872983 
z
" id="m1e7ced56ed" style="stroke:#d62728;"/>
    </defs>
    <g>
     <use style="fill:#d62728;stroke:#d62728;" x="368.984375" xlink:href="#m1e7ced56ed" y="194.8125"/>
    </g>
   </g>
   <g id="text_22">
    <text style="font-family:DejaVu Sans;font-size:10px;font-stretch:normal;font-style:normal;font-weight:normal;text-anchor:start;" transform="rotate(-0, 386.984375, 197.4375)" x="386.984375" y="197.4375">Neo1</text>
   </g>
  </g>
 </g>
 <defs>
  <clipPath id="p8c5d528cc5">
   <rect height="307.4" width="305.255975" x="50.523025" y="24.72"/>
  </clipPath>
 </defs>
</svg>
