<?xml version="1.0" encoding="utf-8" standalone="no"?>
<!DOCTYPE svg PUBLIC "-//W3C//DTD SVG 1.1//EN"
  "http://www.w3.org/Graphics/SVG/1.1/DTD/svg11.dtd">
<!-- Created with matplotlib (https://matplotlib.org/) -->
<svg height="1100.686882pt" version="1.1" viewBox="0 0 1133.858268 1100.686882" width="1133.858268pt" xmlns="http://www.w3.org/2000/svg" xmlns:xlink="http://www.w3.org/1999/xlink">
 <metadata>
  <rdf:RDF xmlns:cc="http://creativecommons.org/ns#" xmlns:dc="http://purl.org/dc/elements/1.1/" xmlns:rdf="http://www.w3.org/1999/02/22-rdf-syntax-ns#">
   <cc:Work>
    <dc:type rdf:resource="http://purl.org/dc/dcmitype/StillImage"/>
    <dc:date>2021-06-03T11:36:31.389138</dc:date>
    <dc:format>image/svg+xml</dc:format>
    <dc:creator>
     <cc:Agent>
      <dc:title>Matplotlib v3.3.2, https://matplotlib.org/</dc:title>
     </cc:Agent>
    </dc:creator>
   </cc:Work>
  </rdf:RDF>
 </metadata>
 <defs>
  <style type="text/css">*{stroke-linecap:butt;stroke-linejoin:round;}</style>
 </defs>
 <g id="figure_1">
  <g id="patch_1">
   <path d="M 0 1100.686882 
L 1133.858268 1100.686882 
L 1133.858268 0 
L 0 0 
z
" style="fill:#ffffff;"/>
  </g>
  <g id="axes_1">
   <g id="PatchCollection_1">
    <path clip-path="url(#pdf3b5b023f)" d="M 495.782585 89.71352 
C 512.723187 89.71352 509.335067 87.396082 524.016922 87.396082 
C 538.698777 87.396082 535.310656 89.71352 552.251258 89.71352 
" style="fill:#1f77b4;stroke:#1f77b4;"/>
    <path clip-path="url(#pdf3b5b023f)" d="M 915.562839 89.71352 
C 928.804385 89.71352 926.156076 71.747337 937.095988 71.747337 
C 949.10809 71.747337 946.459781 89.71352 959.701327 89.71352 
" style="fill:#1f77b4;stroke:#1f77b4;"/>
   </g>
   <g id="LineCollection_1">
    <path clip-path="url(#pdf3b5b023f)" d="M 550.035399 89.71352 
L 550.035399 33.020606 
" style="fill:none;stroke:#000000;stroke-dasharray:1.85,0.8;stroke-dashoffset:0;stroke-opacity:0.5;stroke-width:0.5;"/>
   </g>
  </g>
  <g id="axes_2">
   <g id="line2d_1">
    <path clip-path="url(#pdfe22f2061)" d="M 45.354331 89.71352 
L 50.261199 89.71352 
L 50.261199 33.587536 
L 45.354331 33.587536 
" style="fill:none;stroke:#000000;stroke-linecap:square;"/>
   </g>
   <g id="text_1">
    <!-- 0 -->
    <g transform="translate(38.301583 88.04977)scale(0.08 -0.08)">
     <defs>
      <path d="M 31.78125 66.40625 
Q 24.171875 66.40625 20.328125 58.90625 
Q 16.5 51.421875 16.5 36.375 
Q 16.5 21.390625 20.328125 13.890625 
Q 24.171875 6.390625 31.78125 6.390625 
Q 39.453125 6.390625 43.28125 13.890625 
Q 47.125 21.390625 47.125 36.375 
Q 47.125 51.421875 43.28125 58.90625 
Q 39.453125 66.40625 31.78125 66.40625 
z
M 31.78125 74.21875 
Q 44.046875 74.21875 50.515625 64.515625 
Q 56.984375 54.828125 56.984375 36.375 
Q 56.984375 17.96875 50.515625 8.265625 
Q 44.046875 -1.421875 31.78125 -1.421875 
Q 19.53125 -1.421875 13.0625 8.265625 
Q 6.59375 17.96875 6.59375 36.375 
Q 6.59375 54.828125 13.0625 64.515625 
Q 19.53125 74.21875 31.78125 74.21875 
z
" id="DejaVuSans-48"/>
     </defs>
     <use xlink:href="#DejaVuSans-48"/>
    </g>
   </g>
   <g id="text_2">
    <!-- 500 -->
    <g transform="translate(28.121583 39.666286)scale(0.08 -0.08)">
     <defs>
      <path d="M 10.796875 72.90625 
L 49.515625 72.90625 
L 49.515625 64.59375 
L 19.828125 64.59375 
L 19.828125 46.734375 
Q 21.96875 47.46875 24.109375 47.828125 
Q 26.265625 48.1875 28.421875 48.1875 
Q 40.625 48.1875 47.75 41.5 
Q 54.890625 34.8125 54.890625 23.390625 
Q 54.890625 11.625 47.5625 5.09375 
Q 40.234375 -1.421875 26.90625 -1.421875 
Q 22.3125 -1.421875 17.546875 -0.640625 
Q 12.796875 0.140625 7.71875 1.703125 
L 7.71875 11.625 
Q 12.109375 9.234375 16.796875 8.0625 
Q 21.484375 6.890625 26.703125 6.890625 
Q 35.15625 6.890625 40.078125 11.328125 
Q 45.015625 15.765625 45.015625 23.390625 
Q 45.015625 31 40.078125 35.4375 
Q 35.15625 39.890625 26.703125 39.890625 
Q 22.75 39.890625 18.8125 39.015625 
Q 14.890625 38.140625 10.796875 36.28125 
z
" id="DejaVuSans-53"/>
     </defs>
     <use xlink:href="#DejaVuSans-53"/>
     <use x="63.623047" xlink:href="#DejaVuSans-48"/>
     <use x="127.246094" xlink:href="#DejaVuSans-48"/>
    </g>
   </g>
  </g>
  <g id="axes_3">
   <g id="text_3">
    <!-- CTCF-E14TG2a.4 -->
    <g transform="translate(996.534359 64.016063)scale(0.096 -0.096)">
     <defs>
      <path d="M 64.40625 67.28125 
L 64.40625 56.890625 
Q 59.421875 61.53125 53.78125 63.8125 
Q 48.140625 66.109375 41.796875 66.109375 
Q 29.296875 66.109375 22.65625 58.46875 
Q 16.015625 50.828125 16.015625 36.375 
Q 16.015625 21.96875 22.65625 14.328125 
Q 29.296875 6.6875 41.796875 6.6875 
Q 48.140625 6.6875 53.78125 8.984375 
Q 59.421875 11.28125 64.40625 15.921875 
L 64.40625 5.609375 
Q 59.234375 2.09375 53.4375 0.328125 
Q 47.65625 -1.421875 41.21875 -1.421875 
Q 24.65625 -1.421875 15.125 8.703125 
Q 5.609375 18.84375 5.609375 36.375 
Q 5.609375 53.953125 15.125 64.078125 
Q 24.65625 74.21875 41.21875 74.21875 
Q 47.75 74.21875 53.53125 72.484375 
Q 59.328125 70.75 64.40625 67.28125 
z
" id="DejaVuSans-67"/>
      <path d="M -0.296875 72.90625 
L 61.375 72.90625 
L 61.375 64.59375 
L 35.5 64.59375 
L 35.5 0 
L 25.59375 0 
L 25.59375 64.59375 
L -0.296875 64.59375 
z
" id="DejaVuSans-84"/>
      <path d="M 9.8125 72.90625 
L 51.703125 72.90625 
L 51.703125 64.59375 
L 19.671875 64.59375 
L 19.671875 43.109375 
L 48.578125 43.109375 
L 48.578125 34.8125 
L 19.671875 34.8125 
L 19.671875 0 
L 9.8125 0 
z
" id="DejaVuSans-70"/>
      <path d="M 4.890625 31.390625 
L 31.203125 31.390625 
L 31.203125 23.390625 
L 4.890625 23.390625 
z
" id="DejaVuSans-45"/>
      <path d="M 9.8125 72.90625 
L 55.90625 72.90625 
L 55.90625 64.59375 
L 19.671875 64.59375 
L 19.671875 43.015625 
L 54.390625 43.015625 
L 54.390625 34.71875 
L 19.671875 34.71875 
L 19.671875 8.296875 
L 56.78125 8.296875 
L 56.78125 0 
L 9.8125 0 
z
" id="DejaVuSans-69"/>
      <path d="M 12.40625 8.296875 
L 28.515625 8.296875 
L 28.515625 63.921875 
L 10.984375 60.40625 
L 10.984375 69.390625 
L 28.421875 72.90625 
L 38.28125 72.90625 
L 38.28125 8.296875 
L 54.390625 8.296875 
L 54.390625 0 
L 12.40625 0 
z
" id="DejaVuSans-49"/>
      <path d="M 37.796875 64.3125 
L 12.890625 25.390625 
L 37.796875 25.390625 
z
M 35.203125 72.90625 
L 47.609375 72.90625 
L 47.609375 25.390625 
L 58.015625 25.390625 
L 58.015625 17.1875 
L 47.609375 17.1875 
L 47.609375 0 
L 37.796875 0 
L 37.796875 17.1875 
L 4.890625 17.1875 
L 4.890625 26.703125 
z
" id="DejaVuSans-52"/>
      <path d="M 59.515625 10.40625 
L 59.515625 29.984375 
L 43.40625 29.984375 
L 43.40625 38.09375 
L 69.28125 38.09375 
L 69.28125 6.78125 
Q 63.578125 2.734375 56.6875 0.65625 
Q 49.8125 -1.421875 42 -1.421875 
Q 24.90625 -1.421875 15.25 8.5625 
Q 5.609375 18.5625 5.609375 36.375 
Q 5.609375 54.25 15.25 64.234375 
Q 24.90625 74.21875 42 74.21875 
Q 49.125 74.21875 55.546875 72.453125 
Q 61.96875 70.703125 67.390625 67.28125 
L 67.390625 56.78125 
Q 61.921875 61.421875 55.765625 63.765625 
Q 49.609375 66.109375 42.828125 66.109375 
Q 29.4375 66.109375 22.71875 58.640625 
Q 16.015625 51.171875 16.015625 36.375 
Q 16.015625 21.625 22.71875 14.15625 
Q 29.4375 6.6875 42.828125 6.6875 
Q 48.046875 6.6875 52.140625 7.59375 
Q 56.25 8.5 59.515625 10.40625 
z
" id="DejaVuSans-71"/>
      <path d="M 19.1875 8.296875 
L 53.609375 8.296875 
L 53.609375 0 
L 7.328125 0 
L 7.328125 8.296875 
Q 12.9375 14.109375 22.625 23.890625 
Q 32.328125 33.6875 34.8125 36.53125 
Q 39.546875 41.84375 41.421875 45.53125 
Q 43.3125 49.21875 43.3125 52.78125 
Q 43.3125 58.59375 39.234375 62.25 
Q 35.15625 65.921875 28.609375 65.921875 
Q 23.96875 65.921875 18.8125 64.3125 
Q 13.671875 62.703125 7.8125 59.421875 
L 7.8125 69.390625 
Q 13.765625 71.78125 18.9375 73 
Q 24.125 74.21875 28.421875 74.21875 
Q 39.75 74.21875 46.484375 68.546875 
Q 53.21875 62.890625 53.21875 53.421875 
Q 53.21875 48.921875 51.53125 44.890625 
Q 49.859375 40.875 45.40625 35.40625 
Q 44.1875 33.984375 37.640625 27.21875 
Q 31.109375 20.453125 19.1875 8.296875 
z
" id="DejaVuSans-50"/>
      <path d="M 34.28125 27.484375 
Q 23.390625 27.484375 19.1875 25 
Q 14.984375 22.515625 14.984375 16.5 
Q 14.984375 11.71875 18.140625 8.90625 
Q 21.296875 6.109375 26.703125 6.109375 
Q 34.1875 6.109375 38.703125 11.40625 
Q 43.21875 16.703125 43.21875 25.484375 
L 43.21875 27.484375 
z
M 52.203125 31.203125 
L 52.203125 0 
L 43.21875 0 
L 43.21875 8.296875 
Q 40.140625 3.328125 35.546875 0.953125 
Q 30.953125 -1.421875 24.3125 -1.421875 
Q 15.921875 -1.421875 10.953125 3.296875 
Q 6 8.015625 6 15.921875 
Q 6 25.140625 12.171875 29.828125 
Q 18.359375 34.515625 30.609375 34.515625 
L 43.21875 34.515625 
L 43.21875 35.40625 
Q 43.21875 41.609375 39.140625 45 
Q 35.0625 48.390625 27.6875 48.390625 
Q 23 48.390625 18.546875 47.265625 
Q 14.109375 46.140625 10.015625 43.890625 
L 10.015625 52.203125 
Q 14.9375 54.109375 19.578125 55.046875 
Q 24.21875 56 28.609375 56 
Q 40.484375 56 46.34375 49.84375 
Q 52.203125 43.703125 52.203125 31.203125 
z
" id="DejaVuSans-97"/>
      <path d="M 10.6875 12.40625 
L 21 12.40625 
L 21 0 
L 10.6875 0 
z
" id="DejaVuSans-46"/>
     </defs>
     <use xlink:href="#DejaVuSans-67"/>
     <use x="69.824219" xlink:href="#DejaVuSans-84"/>
     <use x="125.033203" xlink:href="#DejaVuSans-67"/>
     <use x="194.857422" xlink:href="#DejaVuSans-70"/>
     <use x="252.376953" xlink:href="#DejaVuSans-45"/>
     <use x="288.460938" xlink:href="#DejaVuSans-69"/>
     <use x="351.644531" xlink:href="#DejaVuSans-49"/>
     <use x="415.267578" xlink:href="#DejaVuSans-52"/>
     <use x="478.890625" xlink:href="#DejaVuSans-84"/>
     <use x="539.974609" xlink:href="#DejaVuSans-71"/>
     <use x="617.464844" xlink:href="#DejaVuSans-50"/>
     <use x="681.087891" xlink:href="#DejaVuSans-97"/>
     <use x="742.367188" xlink:href="#DejaVuSans-46"/>
     <use x="774.154297" xlink:href="#DejaVuSans-52"/>
    </g>
   </g>
  </g>
  <g id="axes_4">
   <g id="PatchCollection_2">
    <path clip-path="url(#pf0ff59631c)" d="M 497.283651 146.406433 
C 514.224253 146.406433 510.836133 144.416921 525.517988 144.416921 
C 540.199843 144.416921 536.811722 146.406433 553.752324 146.406433 
" style="fill:#1f77b4;stroke:#1f77b4;"/>
    <path clip-path="url(#pf0ff59631c)" d="M 914.669347 146.406433 
C 928.018113 146.406433 925.34836 128.504451 936.452674 128.504451 
C 948.48622 128.504451 945.816467 146.406433 959.165232 146.406433 
" style="fill:#1f77b4;stroke:#1f77b4;"/>
   </g>
   <g id="LineCollection_2">
    <path clip-path="url(#pf0ff59631c)" d="M 550.035399 146.406433 
L 550.035399 89.71352 
" style="fill:none;stroke:#000000;stroke-dasharray:1.85,0.8;stroke-dashoffset:0;stroke-opacity:0.5;stroke-width:0.5;"/>
   </g>
  </g>
  <g id="axes_5">
   <g id="line2d_2">
    <path clip-path="url(#p9b0f43d9e4)" d="M 45.354331 146.406433 
L 50.261199 146.406433 
L 50.261199 90.280449 
L 45.354331 90.280449 
" style="fill:none;stroke:#000000;stroke-linecap:square;"/>
   </g>
   <g id="text_4">
    <!-- 0 -->
    <g transform="translate(38.301583 144.742683)scale(0.08 -0.08)">
     <use xlink:href="#DejaVuSans-48"/>
    </g>
   </g>
   <g id="text_5">
    <!-- 500 -->
    <g transform="translate(28.121583 96.359199)scale(0.08 -0.08)">
     <use xlink:href="#DejaVuSans-53"/>
     <use x="63.623047" xlink:href="#DejaVuSans-48"/>
     <use x="127.246094" xlink:href="#DejaVuSans-48"/>
    </g>
   </g>
  </g>
  <g id="axes_6">
   <g id="text_6">
    <!-- CTCF-E14TG2a.4 -->
    <g transform="translate(996.534359 120.708977)scale(0.096 -0.096)">
     <use xlink:href="#DejaVuSans-67"/>
     <use x="69.824219" xlink:href="#DejaVuSans-84"/>
     <use x="125.033203" xlink:href="#DejaVuSans-67"/>
     <use x="194.857422" xlink:href="#DejaVuSans-70"/>
     <use x="252.376953" xlink:href="#DejaVuSans-45"/>
     <use x="288.460938" xlink:href="#DejaVuSans-69"/>
     <use x="351.644531" xlink:href="#DejaVuSans-49"/>
     <use x="415.267578" xlink:href="#DejaVuSans-52"/>
     <use x="478.890625" xlink:href="#DejaVuSans-84"/>
     <use x="539.974609" xlink:href="#DejaVuSans-71"/>
     <use x="617.464844" xlink:href="#DejaVuSans-50"/>
     <use x="681.087891" xlink:href="#DejaVuSans-97"/>
     <use x="742.367188" xlink:href="#DejaVuSans-46"/>
     <use x="774.154297" xlink:href="#DejaVuSans-52"/>
    </g>
   </g>
  </g>
  <g id="axes_7">
   <g id="PatchCollection_3">
    <path clip-path="url(#pb50ed8957d)" d="M 513.080584 203.099347 
C 519.728162 203.099347 518.398646 201.356431 524.15988 201.356431 
C 529.921115 201.356431 528.591599 203.099347 535.239177 203.099347 
" style="fill:#1f77b4;stroke:#1f77b4;"/>
    <path clip-path="url(#pb50ed8957d)" d="M 914.437039 203.099347 
C 926.231129 203.099347 923.872311 186.70335 934.236815 186.70335 
C 944.315401 186.70335 941.956583 203.099347 953.750673 203.099347 
" style="fill:#1f77b4;stroke:#1f77b4;"/>
   </g>
   <g id="LineCollection_3">
    <path clip-path="url(#pb50ed8957d)" d="M 550.035399 203.099347 
L 550.035399 146.406433 
" style="fill:none;stroke:#000000;stroke-dasharray:1.85,0.8;stroke-dashoffset:0;stroke-opacity:0.5;stroke-width:0.5;"/>
   </g>
  </g>
  <g id="axes_8">
   <g id="line2d_3">
    <path clip-path="url(#p63cfe47960)" d="M 45.354331 203.099347 
L 50.261199 203.099347 
L 50.261199 146.973362 
L 45.354331 146.973362 
" style="fill:none;stroke:#000000;stroke-linecap:square;"/>
   </g>
   <g id="text_7">
    <!-- 0 -->
    <g transform="translate(38.301583 201.435597)scale(0.08 -0.08)">
     <use xlink:href="#DejaVuSans-48"/>
    </g>
   </g>
   <g id="text_8">
    <!-- 500 -->
    <g transform="translate(28.121583 153.052112)scale(0.08 -0.08)">
     <use xlink:href="#DejaVuSans-53"/>
     <use x="63.623047" xlink:href="#DejaVuSans-48"/>
     <use x="127.246094" xlink:href="#DejaVuSans-48"/>
    </g>
   </g>
  </g>
  <g id="axes_9">
   <g id="text_9">
    <!-- CTCF-MEL -->
    <g transform="translate(996.534359 177.40189)scale(0.096 -0.096)">
     <defs>
      <path d="M 9.8125 72.90625 
L 24.515625 72.90625 
L 43.109375 23.296875 
L 61.8125 72.90625 
L 76.515625 72.90625 
L 76.515625 0 
L 66.890625 0 
L 66.890625 64.015625 
L 48.09375 14.015625 
L 38.1875 14.015625 
L 19.390625 64.015625 
L 19.390625 0 
L 9.8125 0 
z
" id="DejaVuSans-77"/>
      <path d="M 9.8125 72.90625 
L 19.671875 72.90625 
L 19.671875 8.296875 
L 55.171875 8.296875 
L 55.171875 0 
L 9.8125 0 
z
" id="DejaVuSans-76"/>
     </defs>
     <use xlink:href="#DejaVuSans-67"/>
     <use x="69.824219" xlink:href="#DejaVuSans-84"/>
     <use x="125.033203" xlink:href="#DejaVuSans-67"/>
     <use x="194.857422" xlink:href="#DejaVuSans-70"/>
     <use x="252.376953" xlink:href="#DejaVuSans-45"/>
     <use x="288.460938" xlink:href="#DejaVuSans-77"/>
     <use x="374.740234" xlink:href="#DejaVuSans-69"/>
     <use x="437.923828" xlink:href="#DejaVuSans-76"/>
    </g>
   </g>
  </g>
  <g id="axes_10">
   <g id="PatchCollection_4">
    <path clip-path="url(#p889231fd08)" d="M 501.929808 259.79226 
C 515.868278 259.79226 513.080584 256.053511 525.160591 256.053511 
C 537.240598 256.053511 534.452904 259.79226 548.391374 259.79226 
" style="fill:#1f77b4;stroke:#1f77b4;"/>
    <path clip-path="url(#p889231fd08)" d="M 872.192754 259.79226 
C 886.131224 259.79226 883.34353 258.592056 895.423537 258.592056 
C 907.503544 258.592056 904.71585 259.79226 918.65432 259.79226 
" style="fill:#1f77b4;stroke:#1f77b4;"/>
    <path clip-path="url(#p889231fd08)" d="M 908.682953 259.79226 
C 924.444146 259.79226 921.291907 225.534493 934.165335 225.534493 
C 948.611309 225.534493 945.45907 259.79226 961.220263 259.79226 
" style="fill:#1f77b4;stroke:#1f77b4;"/>
   </g>
   <g id="LineCollection_4">
    <path clip-path="url(#p889231fd08)" d="M 550.035399 259.79226 
L 550.035399 203.099347 
" style="fill:none;stroke:#000000;stroke-dasharray:1.85,0.8;stroke-dashoffset:0;stroke-opacity:0.5;stroke-width:0.5;"/>
   </g>
  </g>
  <g id="axes_11">
   <g id="line2d_4">
    <path clip-path="url(#p407c5f20c0)" d="M 45.354331 259.79226 
L 50.261199 259.79226 
L 50.261199 203.666276 
L 45.354331 203.666276 
" style="fill:none;stroke:#000000;stroke-linecap:square;"/>
   </g>
   <g id="text_10">
    <!-- 0 -->
    <g transform="translate(38.301583 258.12851)scale(0.08 -0.08)">
     <use xlink:href="#DejaVuSans-48"/>
    </g>
   </g>
   <g id="text_11">
    <!-- 500 -->
    <g transform="translate(28.121583 209.745026)scale(0.08 -0.08)">
     <use xlink:href="#DejaVuSans-53"/>
     <use x="63.623047" xlink:href="#DejaVuSans-48"/>
     <use x="127.246094" xlink:href="#DejaVuSans-48"/>
    </g>
   </g>
  </g>
  <g id="axes_12">
   <g id="text_12">
    <!-- CTCF-MEL -->
    <g transform="translate(996.534359 234.094803)scale(0.096 -0.096)">
     <use xlink:href="#DejaVuSans-67"/>
     <use x="69.824219" xlink:href="#DejaVuSans-84"/>
     <use x="125.033203" xlink:href="#DejaVuSans-67"/>
     <use x="194.857422" xlink:href="#DejaVuSans-70"/>
     <use x="252.376953" xlink:href="#DejaVuSans-45"/>
     <use x="288.460938" xlink:href="#DejaVuSans-77"/>
     <use x="374.740234" xlink:href="#DejaVuSans-69"/>
     <use x="437.923828" xlink:href="#DejaVuSans-76"/>
    </g>
   </g>
  </g>
  <g id="axes_13">
   <g id="PatchCollection_5">
    <path clip-path="url(#p04a9a95374)" d="M 488.277255 316.485173 
C 509.506617 316.485173 505.260745 314.147805 523.659525 314.147805 
C 542.058305 314.147805 537.812433 316.485173 559.041795 316.485173 
" style="fill:#1f77b4;stroke:#1f77b4;"/>
    <path clip-path="url(#p04a9a95374)" d="M 916.742248 316.485173 
C 929.233261 316.485173 926.735059 307.636795 936.095277 307.636795 
C 948.386149 307.636795 945.887946 316.485173 958.378959 316.485173 
" style="fill:#1f77b4;stroke:#1f77b4;"/>
   </g>
   <g id="LineCollection_5">
    <path clip-path="url(#p04a9a95374)" d="M 550.035399 316.485173 
L 550.035399 259.79226 
" style="fill:none;stroke:#000000;stroke-dasharray:1.85,0.8;stroke-dashoffset:0;stroke-opacity:0.5;stroke-width:0.5;"/>
   </g>
  </g>
  <g id="axes_14">
   <g id="line2d_5">
    <path clip-path="url(#p4b821c379c)" d="M 45.354331 316.485173 
L 50.261199 316.485173 
L 50.261199 260.359189 
L 45.354331 260.359189 
" style="fill:none;stroke:#000000;stroke-linecap:square;"/>
   </g>
   <g id="text_13">
    <!-- 0 -->
    <g transform="translate(38.301583 314.821423)scale(0.08 -0.08)">
     <use xlink:href="#DejaVuSans-48"/>
    </g>
   </g>
   <g id="text_14">
    <!-- 500 -->
    <g transform="translate(28.121583 266.437939)scale(0.08 -0.08)">
     <use xlink:href="#DejaVuSans-53"/>
     <use x="63.623047" xlink:href="#DejaVuSans-48"/>
     <use x="127.246094" xlink:href="#DejaVuSans-48"/>
    </g>
   </g>
  </g>
  <g id="axes_15">
   <g id="text_15">
    <!-- CTCF-MEL -->
    <g transform="translate(996.534359 290.787717)scale(0.096 -0.096)">
     <use xlink:href="#DejaVuSans-67"/>
     <use x="69.824219" xlink:href="#DejaVuSans-84"/>
     <use x="125.033203" xlink:href="#DejaVuSans-67"/>
     <use x="194.857422" xlink:href="#DejaVuSans-70"/>
     <use x="252.376953" xlink:href="#DejaVuSans-45"/>
     <use x="288.460938" xlink:href="#DejaVuSans-77"/>
     <use x="374.740234" xlink:href="#DejaVuSans-69"/>
     <use x="437.923828" xlink:href="#DejaVuSans-76"/>
    </g>
   </g>
  </g>
  <g id="axes_16">
   <g id="PatchCollection_6">
    <path clip-path="url(#p50e0c277a3)" d="M 498.570279 373.178087 
C 515.510881 373.178087 512.122761 371.125566 526.804616 371.125566 
C 541.486471 371.125566 538.09835 373.178087 555.038952 373.178087 
" style="fill:#1f77b4;stroke:#1f77b4;"/>
    <path clip-path="url(#p50e0c277a3)" d="M 908.718693 373.178087 
C 924.587105 373.178087 921.413422 352.620456 936.452674 352.620456 
C 948.91867 352.620456 945.744987 373.178087 961.613399 373.178087 
" style="fill:#1f77b4;stroke:#1f77b4;"/>
   </g>
   <g id="LineCollection_6">
    <path clip-path="url(#p50e0c277a3)" d="M 550.035399 373.178087 
L 550.035399 316.485173 
" style="fill:none;stroke:#000000;stroke-dasharray:1.85,0.8;stroke-dashoffset:0;stroke-opacity:0.5;stroke-width:0.5;"/>
   </g>
  </g>
  <g id="axes_17">
   <g id="line2d_6">
    <path clip-path="url(#p68c48803c9)" d="M 45.354331 373.178087 
L 50.261199 373.178087 
L 50.261199 317.052103 
L 45.354331 317.052103 
" style="fill:none;stroke:#000000;stroke-linecap:square;"/>
   </g>
   <g id="text_16">
    <!-- 0 -->
    <g transform="translate(38.301583 371.514337)scale(0.08 -0.08)">
     <use xlink:href="#DejaVuSans-48"/>
    </g>
   </g>
   <g id="text_17">
    <!-- 500 -->
    <g transform="translate(28.121583 323.130853)scale(0.08 -0.08)">
     <use xlink:href="#DejaVuSans-53"/>
     <use x="63.623047" xlink:href="#DejaVuSans-48"/>
     <use x="127.246094" xlink:href="#DejaVuSans-48"/>
    </g>
   </g>
  </g>
  <g id="axes_18">
   <g id="text_18">
    <!-- CTCF-MEL -->
    <g transform="translate(996.534359 347.48063)scale(0.096 -0.096)">
     <use xlink:href="#DejaVuSans-67"/>
     <use x="69.824219" xlink:href="#DejaVuSans-84"/>
     <use x="125.033203" xlink:href="#DejaVuSans-67"/>
     <use x="194.857422" xlink:href="#DejaVuSans-70"/>
     <use x="252.376953" xlink:href="#DejaVuSans-45"/>
     <use x="288.460938" xlink:href="#DejaVuSans-77"/>
     <use x="374.740234" xlink:href="#DejaVuSans-69"/>
     <use x="437.923828" xlink:href="#DejaVuSans-76"/>
    </g>
   </g>
  </g>
  <g id="axes_19">
   <g id="PatchCollection_7">
    <path clip-path="url(#p733072c1ba)" d="M 495.317969 429.871 
C 511.936914 429.871 508.613125 427.877435 523.016211 427.877435 
C 537.419297 427.877435 534.095508 429.871 550.714453 429.871 
" style="fill:#1f77b4;stroke:#1f77b4;"/>
    <path clip-path="url(#p733072c1ba)" d="M 901.159753 429.871 
C 920.512783 429.871 916.642177 392.657454 934.379773 392.657454 
C 950.187428 392.657454 946.316822 429.871 965.669851 429.871 
" style="fill:#1f77b4;stroke:#1f77b4;"/>
   </g>
   <g id="LineCollection_7">
    <path clip-path="url(#p733072c1ba)" d="M 550.035399 429.871 
L 550.035399 373.178087 
" style="fill:none;stroke:#000000;stroke-dasharray:1.85,0.8;stroke-dashoffset:0;stroke-opacity:0.5;stroke-width:0.5;"/>
   </g>
  </g>
  <g id="axes_20">
   <g id="line2d_7">
    <path clip-path="url(#p2724d679fd)" d="M 45.354331 429.871 
L 50.261199 429.871 
L 50.261199 373.745016 
L 45.354331 373.745016 
" style="fill:none;stroke:#000000;stroke-linecap:square;"/>
   </g>
   <g id="text_19">
    <!-- 0 -->
    <g transform="translate(38.301583 428.20725)scale(0.08 -0.08)">
     <use xlink:href="#DejaVuSans-48"/>
    </g>
   </g>
   <g id="text_20">
    <!-- 500 -->
    <g transform="translate(28.121583 379.823766)scale(0.08 -0.08)">
     <use xlink:href="#DejaVuSans-53"/>
     <use x="63.623047" xlink:href="#DejaVuSans-48"/>
     <use x="127.246094" xlink:href="#DejaVuSans-48"/>
    </g>
   </g>
  </g>
  <g id="axes_21">
   <g id="text_21">
    <!-- CTCF-intestine -->
    <g transform="translate(996.534359 404.173543)scale(0.096 -0.096)">
     <defs>
      <path d="M 9.421875 54.6875 
L 18.40625 54.6875 
L 18.40625 0 
L 9.421875 0 
z
M 9.421875 75.984375 
L 18.40625 75.984375 
L 18.40625 64.59375 
L 9.421875 64.59375 
z
" id="DejaVuSans-105"/>
      <path d="M 54.890625 33.015625 
L 54.890625 0 
L 45.90625 0 
L 45.90625 32.71875 
Q 45.90625 40.484375 42.875 44.328125 
Q 39.84375 48.1875 33.796875 48.1875 
Q 26.515625 48.1875 22.3125 43.546875 
Q 18.109375 38.921875 18.109375 30.90625 
L 18.109375 0 
L 9.078125 0 
L 9.078125 54.6875 
L 18.109375 54.6875 
L 18.109375 46.1875 
Q 21.34375 51.125 25.703125 53.5625 
Q 30.078125 56 35.796875 56 
Q 45.21875 56 50.046875 50.171875 
Q 54.890625 44.34375 54.890625 33.015625 
z
" id="DejaVuSans-110"/>
      <path d="M 18.3125 70.21875 
L 18.3125 54.6875 
L 36.8125 54.6875 
L 36.8125 47.703125 
L 18.3125 47.703125 
L 18.3125 18.015625 
Q 18.3125 11.328125 20.140625 9.421875 
Q 21.96875 7.515625 27.59375 7.515625 
L 36.8125 7.515625 
L 36.8125 0 
L 27.59375 0 
Q 17.1875 0 13.234375 3.875 
Q 9.28125 7.765625 9.28125 18.015625 
L 9.28125 47.703125 
L 2.6875 47.703125 
L 2.6875 54.6875 
L 9.28125 54.6875 
L 9.28125 70.21875 
z
" id="DejaVuSans-116"/>
      <path d="M 56.203125 29.59375 
L 56.203125 25.203125 
L 14.890625 25.203125 
Q 15.484375 15.921875 20.484375 11.0625 
Q 25.484375 6.203125 34.421875 6.203125 
Q 39.59375 6.203125 44.453125 7.46875 
Q 49.3125 8.734375 54.109375 11.28125 
L 54.109375 2.78125 
Q 49.265625 0.734375 44.1875 -0.34375 
Q 39.109375 -1.421875 33.890625 -1.421875 
Q 20.796875 -1.421875 13.15625 6.1875 
Q 5.515625 13.8125 5.515625 26.8125 
Q 5.515625 40.234375 12.765625 48.109375 
Q 20.015625 56 32.328125 56 
Q 43.359375 56 49.78125 48.890625 
Q 56.203125 41.796875 56.203125 29.59375 
z
M 47.21875 32.234375 
Q 47.125 39.59375 43.09375 43.984375 
Q 39.0625 48.390625 32.421875 48.390625 
Q 24.90625 48.390625 20.390625 44.140625 
Q 15.875 39.890625 15.1875 32.171875 
z
" id="DejaVuSans-101"/>
      <path d="M 44.28125 53.078125 
L 44.28125 44.578125 
Q 40.484375 46.53125 36.375 47.5 
Q 32.28125 48.484375 27.875 48.484375 
Q 21.1875 48.484375 17.84375 46.4375 
Q 14.5 44.390625 14.5 40.28125 
Q 14.5 37.15625 16.890625 35.375 
Q 19.28125 33.59375 26.515625 31.984375 
L 29.59375 31.296875 
Q 39.15625 29.25 43.1875 25.515625 
Q 47.21875 21.78125 47.21875 15.09375 
Q 47.21875 7.46875 41.1875 3.015625 
Q 35.15625 -1.421875 24.609375 -1.421875 
Q 20.21875 -1.421875 15.453125 -0.5625 
Q 10.6875 0.296875 5.421875 2 
L 5.421875 11.28125 
Q 10.40625 8.6875 15.234375 7.390625 
Q 20.0625 6.109375 24.8125 6.109375 
Q 31.15625 6.109375 34.5625 8.28125 
Q 37.984375 10.453125 37.984375 14.40625 
Q 37.984375 18.0625 35.515625 20.015625 
Q 33.0625 21.96875 24.703125 23.78125 
L 21.578125 24.515625 
Q 13.234375 26.265625 9.515625 29.90625 
Q 5.8125 33.546875 5.8125 39.890625 
Q 5.8125 47.609375 11.28125 51.796875 
Q 16.75 56 26.8125 56 
Q 31.78125 56 36.171875 55.265625 
Q 40.578125 54.546875 44.28125 53.078125 
z
" id="DejaVuSans-115"/>
     </defs>
     <use xlink:href="#DejaVuSans-67"/>
     <use x="69.824219" xlink:href="#DejaVuSans-84"/>
     <use x="125.033203" xlink:href="#DejaVuSans-67"/>
     <use x="194.857422" xlink:href="#DejaVuSans-70"/>
     <use x="252.376953" xlink:href="#DejaVuSans-45"/>
     <use x="288.460938" xlink:href="#DejaVuSans-105"/>
     <use x="316.244141" xlink:href="#DejaVuSans-110"/>
     <use x="379.623047" xlink:href="#DejaVuSans-116"/>
     <use x="418.832031" xlink:href="#DejaVuSans-101"/>
     <use x="480.355469" xlink:href="#DejaVuSans-115"/>
     <use x="532.455078" xlink:href="#DejaVuSans-116"/>
     <use x="571.664062" xlink:href="#DejaVuSans-105"/>
     <use x="599.447266" xlink:href="#DejaVuSans-110"/>
     <use x="662.826172" xlink:href="#DejaVuSans-101"/>
    </g>
   </g>
  </g>
  <g id="axes_22">
   <g id="PatchCollection_8">
    <path clip-path="url(#pa20d9352b8)" d="M 495.353709 486.563914 
C 512.294311 486.563914 508.906191 484.19495 523.588046 484.19495 
C 538.269901 484.19495 534.88178 486.563914 551.822382 486.563914 
" style="fill:#1f77b4;stroke:#1f77b4;"/>
    <path clip-path="url(#pa20d9352b8)" d="M 899.497859 486.563914 
C 919.655031 486.563914 915.623596 446.103933 934.308294 446.103933 
C 950.562694 446.103933 946.53126 486.563914 966.688432 486.563914 
" style="fill:#1f77b4;stroke:#1f77b4;"/>
   </g>
   <g id="LineCollection_8">
    <path clip-path="url(#pa20d9352b8)" d="M 550.035399 486.563914 
L 550.035399 429.871 
" style="fill:none;stroke:#000000;stroke-dasharray:1.85,0.8;stroke-dashoffset:0;stroke-opacity:0.5;stroke-width:0.5;"/>
   </g>
  </g>
  <g id="axes_23">
   <g id="line2d_8">
    <path clip-path="url(#p30ca490f9e)" d="M 45.354331 486.563914 
L 50.261199 486.563914 
L 50.261199 430.437929 
L 45.354331 430.437929 
" style="fill:none;stroke:#000000;stroke-linecap:square;"/>
   </g>
   <g id="text_22">
    <!-- 0 -->
    <g transform="translate(38.301583 484.900164)scale(0.08 -0.08)">
     <use xlink:href="#DejaVuSans-48"/>
    </g>
   </g>
   <g id="text_23">
    <!-- 500 -->
    <g transform="translate(28.121583 436.516679)scale(0.08 -0.08)">
     <use xlink:href="#DejaVuSans-53"/>
     <use x="63.623047" xlink:href="#DejaVuSans-48"/>
     <use x="127.246094" xlink:href="#DejaVuSans-48"/>
    </g>
   </g>
  </g>
  <g id="axes_24">
   <g id="text_24">
    <!-- CTCF-intestine -->
    <g transform="translate(996.534359 460.866457)scale(0.096 -0.096)">
     <use xlink:href="#DejaVuSans-67"/>
     <use x="69.824219" xlink:href="#DejaVuSans-84"/>
     <use x="125.033203" xlink:href="#DejaVuSans-67"/>
     <use x="194.857422" xlink:href="#DejaVuSans-70"/>
     <use x="252.376953" xlink:href="#DejaVuSans-45"/>
     <use x="288.460938" xlink:href="#DejaVuSans-105"/>
     <use x="316.244141" xlink:href="#DejaVuSans-110"/>
     <use x="379.623047" xlink:href="#DejaVuSans-116"/>
     <use x="418.832031" xlink:href="#DejaVuSans-101"/>
     <use x="480.355469" xlink:href="#DejaVuSans-115"/>
     <use x="532.455078" xlink:href="#DejaVuSans-116"/>
     <use x="571.664062" xlink:href="#DejaVuSans-105"/>
     <use x="599.447266" xlink:href="#DejaVuSans-110"/>
     <use x="662.826172" xlink:href="#DejaVuSans-101"/>
    </g>
   </g>
  </g>
  <g id="axes_25">
   <g id="PatchCollection_9">
    <path clip-path="url(#p78bd5fa68a)" d="M 498.927676 543.256827 
C 513.938336 543.256827 510.936204 540.747017 523.945442 540.747017 
C 536.954681 540.747017 533.952549 543.256827 548.963209 543.256827 
" style="fill:#1f77b4;stroke:#1f77b4;"/>
    <path clip-path="url(#p78bd5fa68a)" d="M 905.984608 543.256827 
C 923.086039 543.256827 919.665753 509.177782 934.379773 509.177782 
C 949.308232 509.177782 945.887946 543.256827 962.989376 543.256827 
" style="fill:#1f77b4;stroke:#1f77b4;"/>
   </g>
   <g id="LineCollection_9">
    <path clip-path="url(#p78bd5fa68a)" d="M 550.035399 543.256827 
L 550.035399 486.563914 
" style="fill:none;stroke:#000000;stroke-dasharray:1.85,0.8;stroke-dashoffset:0;stroke-opacity:0.5;stroke-width:0.5;"/>
   </g>
  </g>
  <g id="axes_26">
   <g id="line2d_9">
    <path clip-path="url(#pb6c5b61dbc)" d="M 45.354331 543.256827 
L 50.261199 543.256827 
L 50.261199 487.130843 
L 45.354331 487.130843 
" style="fill:none;stroke:#000000;stroke-linecap:square;"/>
   </g>
   <g id="text_25">
    <!-- 0 -->
    <g transform="translate(38.301583 541.593077)scale(0.08 -0.08)">
     <use xlink:href="#DejaVuSans-48"/>
    </g>
   </g>
   <g id="text_26">
    <!-- 500 -->
    <g transform="translate(28.121583 493.209593)scale(0.08 -0.08)">
     <use xlink:href="#DejaVuSans-53"/>
     <use x="63.623047" xlink:href="#DejaVuSans-48"/>
     <use x="127.246094" xlink:href="#DejaVuSans-48"/>
    </g>
   </g>
  </g>
  <g id="axes_27">
   <g id="text_27">
    <!-- CTCF-kidney -->
    <g transform="translate(996.534359 517.55937)scale(0.096 -0.096)">
     <defs>
      <path d="M 9.078125 75.984375 
L 18.109375 75.984375 
L 18.109375 31.109375 
L 44.921875 54.6875 
L 56.390625 54.6875 
L 27.390625 29.109375 
L 57.625 0 
L 45.90625 0 
L 18.109375 26.703125 
L 18.109375 0 
L 9.078125 0 
z
" id="DejaVuSans-107"/>
      <path d="M 45.40625 46.390625 
L 45.40625 75.984375 
L 54.390625 75.984375 
L 54.390625 0 
L 45.40625 0 
L 45.40625 8.203125 
Q 42.578125 3.328125 38.25 0.953125 
Q 33.9375 -1.421875 27.875 -1.421875 
Q 17.96875 -1.421875 11.734375 6.484375 
Q 5.515625 14.40625 5.515625 27.296875 
Q 5.515625 40.1875 11.734375 48.09375 
Q 17.96875 56 27.875 56 
Q 33.9375 56 38.25 53.625 
Q 42.578125 51.265625 45.40625 46.390625 
z
M 14.796875 27.296875 
Q 14.796875 17.390625 18.875 11.75 
Q 22.953125 6.109375 30.078125 6.109375 
Q 37.203125 6.109375 41.296875 11.75 
Q 45.40625 17.390625 45.40625 27.296875 
Q 45.40625 37.203125 41.296875 42.84375 
Q 37.203125 48.484375 30.078125 48.484375 
Q 22.953125 48.484375 18.875 42.84375 
Q 14.796875 37.203125 14.796875 27.296875 
z
" id="DejaVuSans-100"/>
      <path d="M 32.171875 -5.078125 
Q 28.375 -14.84375 24.75 -17.8125 
Q 21.140625 -20.796875 15.09375 -20.796875 
L 7.90625 -20.796875 
L 7.90625 -13.28125 
L 13.1875 -13.28125 
Q 16.890625 -13.28125 18.9375 -11.515625 
Q 21 -9.765625 23.484375 -3.21875 
L 25.09375 0.875 
L 2.984375 54.6875 
L 12.5 54.6875 
L 29.59375 11.921875 
L 46.6875 54.6875 
L 56.203125 54.6875 
z
" id="DejaVuSans-121"/>
     </defs>
     <use xlink:href="#DejaVuSans-67"/>
     <use x="69.824219" xlink:href="#DejaVuSans-84"/>
     <use x="125.033203" xlink:href="#DejaVuSans-67"/>
     <use x="194.857422" xlink:href="#DejaVuSans-70"/>
     <use x="252.376953" xlink:href="#DejaVuSans-45"/>
     <use x="288.460938" xlink:href="#DejaVuSans-107"/>
     <use x="346.371094" xlink:href="#DejaVuSans-105"/>
     <use x="374.154297" xlink:href="#DejaVuSans-100"/>
     <use x="437.630859" xlink:href="#DejaVuSans-110"/>
     <use x="501.009766" xlink:href="#DejaVuSans-101"/>
     <use x="562.533203" xlink:href="#DejaVuSans-121"/>
    </g>
   </g>
  </g>
  <g id="axes_28">
   <g id="PatchCollection_10">
    <path clip-path="url(#p3c67567880)" d="M 494.1743 599.94974 
C 512.937625 599.94974 509.18496 596.897647 525.446508 596.897647 
C 541.708057 596.897647 537.955392 599.94974 556.718717 599.94974 
" style="fill:#1f77b4;stroke:#1f77b4;"/>
    <path clip-path="url(#p3c67567880)" d="M 893.439985 599.94974 
C 916.652899 599.94974 912.010316 560.78832 934.522732 560.78832 
C 952.246033 560.78832 947.60345 599.94974 970.816363 599.94974 
" style="fill:#1f77b4;stroke:#1f77b4;"/>
   </g>
   <g id="LineCollection_10">
    <path clip-path="url(#p3c67567880)" d="M 550.035399 599.94974 
L 550.035399 543.256827 
" style="fill:none;stroke:#000000;stroke-dasharray:1.85,0.8;stroke-dashoffset:0;stroke-opacity:0.5;stroke-width:0.5;"/>
   </g>
  </g>
  <g id="axes_29">
   <g id="line2d_10">
    <path clip-path="url(#pfea006f481)" d="M 45.354331 599.94974 
L 50.261199 599.94974 
L 50.261199 543.823756 
L 45.354331 543.823756 
" style="fill:none;stroke:#000000;stroke-linecap:square;"/>
   </g>
   <g id="text_28">
    <!-- 0 -->
    <g transform="translate(38.301583 598.28599)scale(0.08 -0.08)">
     <use xlink:href="#DejaVuSans-48"/>
    </g>
   </g>
   <g id="text_29">
    <!-- 500 -->
    <g transform="translate(28.121583 549.902506)scale(0.08 -0.08)">
     <use xlink:href="#DejaVuSans-53"/>
     <use x="63.623047" xlink:href="#DejaVuSans-48"/>
     <use x="127.246094" xlink:href="#DejaVuSans-48"/>
    </g>
   </g>
  </g>
  <g id="axes_30">
   <g id="text_30">
    <!-- CTCF-liver -->
    <g transform="translate(996.534359 574.252284)scale(0.096 -0.096)">
     <defs>
      <path d="M 9.421875 75.984375 
L 18.40625 75.984375 
L 18.40625 0 
L 9.421875 0 
z
" id="DejaVuSans-108"/>
      <path d="M 2.984375 54.6875 
L 12.5 54.6875 
L 29.59375 8.796875 
L 46.6875 54.6875 
L 56.203125 54.6875 
L 35.6875 0 
L 23.484375 0 
z
" id="DejaVuSans-118"/>
      <path d="M 41.109375 46.296875 
Q 39.59375 47.171875 37.8125 47.578125 
Q 36.03125 48 33.890625 48 
Q 26.265625 48 22.1875 43.046875 
Q 18.109375 38.09375 18.109375 28.8125 
L 18.109375 0 
L 9.078125 0 
L 9.078125 54.6875 
L 18.109375 54.6875 
L 18.109375 46.1875 
Q 20.953125 51.171875 25.484375 53.578125 
Q 30.03125 56 36.53125 56 
Q 37.453125 56 38.578125 55.875 
Q 39.703125 55.765625 41.0625 55.515625 
z
" id="DejaVuSans-114"/>
     </defs>
     <use xlink:href="#DejaVuSans-67"/>
     <use x="69.824219" xlink:href="#DejaVuSans-84"/>
     <use x="125.033203" xlink:href="#DejaVuSans-67"/>
     <use x="194.857422" xlink:href="#DejaVuSans-70"/>
     <use x="252.376953" xlink:href="#DejaVuSans-45"/>
     <use x="288.460938" xlink:href="#DejaVuSans-108"/>
     <use x="316.244141" xlink:href="#DejaVuSans-105"/>
     <use x="344.027344" xlink:href="#DejaVuSans-118"/>
     <use x="403.207031" xlink:href="#DejaVuSans-101"/>
     <use x="464.730469" xlink:href="#DejaVuSans-114"/>
    </g>
   </g>
  </g>
  <g id="axes_31">
   <g id="PatchCollection_11">
    <path clip-path="url(#pe50b857f09)" d="M 498.570279 656.642654 
C 513.795377 656.642654 510.750357 653.99962 523.945442 653.99962 
C 537.140527 653.99962 534.095508 656.642654 549.320606 656.642654 
" style="fill:#1f77b4;stroke:#1f77b4;"/>
    <path clip-path="url(#pe50b857f09)" d="M 869.476539 656.642654 
C 884.701637 656.642654 881.656617 653.649182 894.851702 653.649182 
C 908.046787 653.649182 905.001767 656.642654 920.226865 656.642654 
" style="fill:#1f77b4;stroke:#1f77b4;"/>
    <path clip-path="url(#pe50b857f09)" d="M 902.142594 656.642654 
C 921.013138 656.642654 917.239029 618.800442 935.237525 618.800442 
C 949.947972 618.800442 946.173863 656.642654 965.044407 656.642654 
" style="fill:#1f77b4;stroke:#1f77b4;"/>
   </g>
   <g id="LineCollection_11">
    <path clip-path="url(#pe50b857f09)" d="M 550.035399 656.642654 
L 550.035399 599.94974 
" style="fill:none;stroke:#000000;stroke-dasharray:1.85,0.8;stroke-dashoffset:0;stroke-opacity:0.5;stroke-width:0.5;"/>
   </g>
  </g>
  <g id="axes_32">
   <g id="line2d_11">
    <path clip-path="url(#p6fc299af10)" d="M 45.354331 656.642654 
L 50.261199 656.642654 
L 50.261199 600.516669 
L 45.354331 600.516669 
" style="fill:none;stroke:#000000;stroke-linecap:square;"/>
   </g>
   <g id="text_31">
    <!-- 0 -->
    <g transform="translate(38.301583 654.978904)scale(0.08 -0.08)">
     <use xlink:href="#DejaVuSans-48"/>
    </g>
   </g>
   <g id="text_32">
    <!-- 500 -->
    <g transform="translate(28.121583 606.595419)scale(0.08 -0.08)">
     <use xlink:href="#DejaVuSans-53"/>
     <use x="63.623047" xlink:href="#DejaVuSans-48"/>
     <use x="127.246094" xlink:href="#DejaVuSans-48"/>
    </g>
   </g>
  </g>
  <g id="axes_33">
   <g id="text_33">
    <!-- CTCF-liver -->
    <g transform="translate(996.534359 630.945197)scale(0.096 -0.096)">
     <use xlink:href="#DejaVuSans-67"/>
     <use x="69.824219" xlink:href="#DejaVuSans-84"/>
     <use x="125.033203" xlink:href="#DejaVuSans-67"/>
     <use x="194.857422" xlink:href="#DejaVuSans-70"/>
     <use x="252.376953" xlink:href="#DejaVuSans-45"/>
     <use x="288.460938" xlink:href="#DejaVuSans-108"/>
     <use x="316.244141" xlink:href="#DejaVuSans-105"/>
     <use x="344.027344" xlink:href="#DejaVuSans-118"/>
     <use x="403.207031" xlink:href="#DejaVuSans-101"/>
     <use x="464.730469" xlink:href="#DejaVuSans-114"/>
    </g>
   </g>
  </g>
  <g id="axes_34">
   <g id="PatchCollection_12">
    <path clip-path="url(#paa851ba172)" d="M 500.857618 713.335567 
C 515.65384 713.335567 512.694595 711.412204 525.517988 711.412204 
C 538.34138 711.412204 535.382136 713.335567 550.178358 713.335567 
" style="fill:#1f77b4;stroke:#1f77b4;"/>
    <path clip-path="url(#paa851ba172)" d="M 872.121274 713.335567 
C 886.917496 713.335567 883.958252 710.238781 896.781644 710.238781 
C 909.605037 710.238781 906.645792 713.335567 921.442014 713.335567 
" style="fill:#1f77b4;stroke:#1f77b4;"/>
    <path clip-path="url(#paa851ba172)" d="M 905.466383 713.335567 
C 922.94308 713.335567 919.447741 678.025821 934.522732 678.025821 
C 949.740682 678.025821 946.245343 713.335567 963.72204 713.335567 
" style="fill:#1f77b4;stroke:#1f77b4;"/>
   </g>
   <g id="LineCollection_12">
    <path clip-path="url(#paa851ba172)" d="M 550.035399 713.335567 
L 550.035399 656.642654 
" style="fill:none;stroke:#000000;stroke-dasharray:1.85,0.8;stroke-dashoffset:0;stroke-opacity:0.5;stroke-width:0.5;"/>
   </g>
  </g>
  <g id="axes_35">
   <g id="line2d_12">
    <path clip-path="url(#p3a110aa837)" d="M 45.354331 713.335567 
L 50.261199 713.335567 
L 50.261199 657.209583 
L 45.354331 657.209583 
" style="fill:none;stroke:#000000;stroke-linecap:square;"/>
   </g>
   <g id="text_34">
    <!-- 0 -->
    <g transform="translate(38.301583 711.671817)scale(0.08 -0.08)">
     <use xlink:href="#DejaVuSans-48"/>
    </g>
   </g>
   <g id="text_35">
    <!-- 500 -->
    <g transform="translate(28.121583 663.288333)scale(0.08 -0.08)">
     <use xlink:href="#DejaVuSans-53"/>
     <use x="63.623047" xlink:href="#DejaVuSans-48"/>
     <use x="127.246094" xlink:href="#DejaVuSans-48"/>
    </g>
   </g>
  </g>
  <g id="axes_36">
   <g id="text_36">
    <!-- CTCF-liver -->
    <g transform="translate(996.534359 687.63811)scale(0.096 -0.096)">
     <use xlink:href="#DejaVuSans-67"/>
     <use x="69.824219" xlink:href="#DejaVuSans-84"/>
     <use x="125.033203" xlink:href="#DejaVuSans-67"/>
     <use x="194.857422" xlink:href="#DejaVuSans-70"/>
     <use x="252.376953" xlink:href="#DejaVuSans-45"/>
     <use x="288.460938" xlink:href="#DejaVuSans-108"/>
     <use x="316.244141" xlink:href="#DejaVuSans-105"/>
     <use x="344.027344" xlink:href="#DejaVuSans-118"/>
     <use x="403.207031" xlink:href="#DejaVuSans-101"/>
     <use x="464.730469" xlink:href="#DejaVuSans-114"/>
    </g>
   </g>
  </g>
  <g id="axes_37">
   <g id="PatchCollection_13">
    <path clip-path="url(#p5a4ce5e152)" d="M 498.212882 770.02848 
C 513.43798 770.02848 510.392961 768.258446 523.588046 768.258446 
C 536.783131 768.258446 533.738111 770.02848 548.963209 770.02848 
" style="fill:#1f77b4;stroke:#1f77b4;"/>
    <path clip-path="url(#p5a4ce5e152)" d="M 905.198336 770.02848 
C 922.514204 770.02848 919.05103 734.959336 934.451253 734.959336 
C 949.065202 734.959336 945.602029 770.02848 962.917897 770.02848 
" style="fill:#1f77b4;stroke:#1f77b4;"/>
   </g>
   <g id="LineCollection_13">
    <path clip-path="url(#p5a4ce5e152)" d="M 550.035399 770.02848 
L 550.035399 713.335567 
" style="fill:none;stroke:#000000;stroke-dasharray:1.85,0.8;stroke-dashoffset:0;stroke-opacity:0.5;stroke-width:0.5;"/>
   </g>
  </g>
  <g id="axes_38">
   <g id="line2d_13">
    <path clip-path="url(#pcf296d2be9)" d="M 45.354331 770.02848 
L 50.261199 770.02848 
L 50.261199 713.902496 
L 45.354331 713.902496 
" style="fill:none;stroke:#000000;stroke-linecap:square;"/>
   </g>
   <g id="text_37">
    <!-- 0 -->
    <g transform="translate(38.301583 768.36473)scale(0.08 -0.08)">
     <use xlink:href="#DejaVuSans-48"/>
    </g>
   </g>
   <g id="text_38">
    <!-- 500 -->
    <g transform="translate(28.121583 719.981246)scale(0.08 -0.08)">
     <use xlink:href="#DejaVuSans-53"/>
     <use x="63.623047" xlink:href="#DejaVuSans-48"/>
     <use x="127.246094" xlink:href="#DejaVuSans-48"/>
    </g>
   </g>
  </g>
  <g id="axes_39">
   <g id="text_39">
    <!-- CTCF-liver -->
    <g transform="translate(996.534359 744.331024)scale(0.096 -0.096)">
     <use xlink:href="#DejaVuSans-67"/>
     <use x="69.824219" xlink:href="#DejaVuSans-84"/>
     <use x="125.033203" xlink:href="#DejaVuSans-67"/>
     <use x="194.857422" xlink:href="#DejaVuSans-70"/>
     <use x="252.376953" xlink:href="#DejaVuSans-45"/>
     <use x="288.460938" xlink:href="#DejaVuSans-108"/>
     <use x="316.244141" xlink:href="#DejaVuSans-105"/>
     <use x="344.027344" xlink:href="#DejaVuSans-118"/>
     <use x="403.207031" xlink:href="#DejaVuSans-101"/>
     <use x="464.730469" xlink:href="#DejaVuSans-114"/>
    </g>
   </g>
  </g>
  <g id="axes_40">
   <g id="PatchCollection_14">
    <path clip-path="url(#pe06e77132a)" d="M 498.570279 826.721394 
C 513.795377 826.721394 510.750357 825.015477 523.945442 825.015477 
C 537.140527 825.015477 534.095508 826.721394 549.320606 826.721394 
" style="fill:#1f77b4;stroke:#1f77b4;"/>
    <path clip-path="url(#pe06e77132a)" d="M 907.360585 826.721394 
C 923.872311 826.721394 920.569966 791.916415 934.665691 791.916415 
C 949.190291 791.916415 945.887946 826.721394 962.399672 826.721394 
" style="fill:#1f77b4;stroke:#1f77b4;"/>
   </g>
   <g id="LineCollection_14">
    <path clip-path="url(#pe06e77132a)" d="M 550.035399 826.721394 
L 550.035399 770.02848 
" style="fill:none;stroke:#000000;stroke-dasharray:1.85,0.8;stroke-dashoffset:0;stroke-opacity:0.5;stroke-width:0.5;"/>
   </g>
  </g>
  <g id="axes_41">
   <g id="line2d_14">
    <path clip-path="url(#pb77b4e8da8)" d="M 45.354331 826.721394 
L 50.261199 826.721394 
L 50.261199 770.59541 
L 45.354331 770.59541 
" style="fill:none;stroke:#000000;stroke-linecap:square;"/>
   </g>
   <g id="text_40">
    <!-- 0 -->
    <g transform="translate(38.301583 825.057644)scale(0.08 -0.08)">
     <use xlink:href="#DejaVuSans-48"/>
    </g>
   </g>
   <g id="text_41">
    <!-- 500 -->
    <g transform="translate(28.121583 776.67416)scale(0.08 -0.08)">
     <use xlink:href="#DejaVuSans-53"/>
     <use x="63.623047" xlink:href="#DejaVuSans-48"/>
     <use x="127.246094" xlink:href="#DejaVuSans-48"/>
    </g>
   </g>
  </g>
  <g id="axes_42">
   <g id="text_42">
    <!-- CTCF-lung -->
    <g transform="translate(996.534359 801.023937)scale(0.096 -0.096)">
     <defs>
      <path d="M 8.5 21.578125 
L 8.5 54.6875 
L 17.484375 54.6875 
L 17.484375 21.921875 
Q 17.484375 14.15625 20.5 10.265625 
Q 23.53125 6.390625 29.59375 6.390625 
Q 36.859375 6.390625 41.078125 11.03125 
Q 45.3125 15.671875 45.3125 23.6875 
L 45.3125 54.6875 
L 54.296875 54.6875 
L 54.296875 0 
L 45.3125 0 
L 45.3125 8.40625 
Q 42.046875 3.421875 37.71875 1 
Q 33.40625 -1.421875 27.6875 -1.421875 
Q 18.265625 -1.421875 13.375 4.4375 
Q 8.5 10.296875 8.5 21.578125 
z
M 31.109375 56 
z
" id="DejaVuSans-117"/>
      <path d="M 45.40625 27.984375 
Q 45.40625 37.75 41.375 43.109375 
Q 37.359375 48.484375 30.078125 48.484375 
Q 22.859375 48.484375 18.828125 43.109375 
Q 14.796875 37.75 14.796875 27.984375 
Q 14.796875 18.265625 18.828125 12.890625 
Q 22.859375 7.515625 30.078125 7.515625 
Q 37.359375 7.515625 41.375 12.890625 
Q 45.40625 18.265625 45.40625 27.984375 
z
M 54.390625 6.78125 
Q 54.390625 -7.171875 48.1875 -13.984375 
Q 42 -20.796875 29.203125 -20.796875 
Q 24.46875 -20.796875 20.265625 -20.09375 
Q 16.0625 -19.390625 12.109375 -17.921875 
L 12.109375 -9.1875 
Q 16.0625 -11.328125 19.921875 -12.34375 
Q 23.78125 -13.375 27.78125 -13.375 
Q 36.625 -13.375 41.015625 -8.765625 
Q 45.40625 -4.15625 45.40625 5.171875 
L 45.40625 9.625 
Q 42.625 4.78125 38.28125 2.390625 
Q 33.9375 0 27.875 0 
Q 17.828125 0 11.671875 7.65625 
Q 5.515625 15.328125 5.515625 27.984375 
Q 5.515625 40.671875 11.671875 48.328125 
Q 17.828125 56 27.875 56 
Q 33.9375 56 38.28125 53.609375 
Q 42.625 51.21875 45.40625 46.390625 
L 45.40625 54.6875 
L 54.390625 54.6875 
z
" id="DejaVuSans-103"/>
     </defs>
     <use xlink:href="#DejaVuSans-67"/>
     <use x="69.824219" xlink:href="#DejaVuSans-84"/>
     <use x="125.033203" xlink:href="#DejaVuSans-67"/>
     <use x="194.857422" xlink:href="#DejaVuSans-70"/>
     <use x="252.376953" xlink:href="#DejaVuSans-45"/>
     <use x="288.460938" xlink:href="#DejaVuSans-108"/>
     <use x="316.244141" xlink:href="#DejaVuSans-117"/>
     <use x="379.623047" xlink:href="#DejaVuSans-110"/>
     <use x="443.001953" xlink:href="#DejaVuSans-103"/>
    </g>
   </g>
  </g>
  <g id="axes_43">
   <g id="PatchCollection_15">
    <path clip-path="url(#p69b064a6f4)" d="M 496.139982 883.414307 
C 512.222832 883.414307 509.006262 881.266344 522.944732 881.266344 
C 536.883202 881.266344 533.666632 883.414307 549.749482 883.414307 
" style="fill:#1f77b4;stroke:#1f77b4;"/>
    <path clip-path="url(#p69b064a6f4)" d="M 900.4807 883.414307 
C 920.369824 883.414307 916.391999 840.847586 934.451253 840.847586 
C 950.866482 840.847586 946.888657 883.414307 966.777781 883.414307 
" style="fill:#1f77b4;stroke:#1f77b4;"/>
   </g>
   <g id="LineCollection_15">
    <path clip-path="url(#p69b064a6f4)" d="M 550.035399 883.414307 
L 550.035399 826.721394 
" style="fill:none;stroke:#000000;stroke-dasharray:1.85,0.8;stroke-dashoffset:0;stroke-opacity:0.5;stroke-width:0.5;"/>
   </g>
  </g>
  <g id="axes_44">
   <g id="line2d_15">
    <path clip-path="url(#pdd86040814)" d="M 45.354331 883.414307 
L 50.261199 883.414307 
L 50.261199 827.288323 
L 45.354331 827.288323 
" style="fill:none;stroke:#000000;stroke-linecap:square;"/>
   </g>
   <g id="text_43">
    <!-- 0 -->
    <g transform="translate(38.301583 881.750557)scale(0.08 -0.08)">
     <use xlink:href="#DejaVuSans-48"/>
    </g>
   </g>
   <g id="text_44">
    <!-- 500 -->
    <g transform="translate(28.121583 833.367073)scale(0.08 -0.08)">
     <use xlink:href="#DejaVuSans-53"/>
     <use x="63.623047" xlink:href="#DejaVuSans-48"/>
     <use x="127.246094" xlink:href="#DejaVuSans-48"/>
    </g>
   </g>
  </g>
  <g id="axes_45">
   <g id="text_45">
    <!-- CTCF-stomach -->
    <g transform="translate(996.534359 857.716851)scale(0.096 -0.096)">
     <defs>
      <path d="M 30.609375 48.390625 
Q 23.390625 48.390625 19.1875 42.75 
Q 14.984375 37.109375 14.984375 27.296875 
Q 14.984375 17.484375 19.15625 11.84375 
Q 23.34375 6.203125 30.609375 6.203125 
Q 37.796875 6.203125 41.984375 11.859375 
Q 46.1875 17.53125 46.1875 27.296875 
Q 46.1875 37.015625 41.984375 42.703125 
Q 37.796875 48.390625 30.609375 48.390625 
z
M 30.609375 56 
Q 42.328125 56 49.015625 48.375 
Q 55.71875 40.765625 55.71875 27.296875 
Q 55.71875 13.875 49.015625 6.21875 
Q 42.328125 -1.421875 30.609375 -1.421875 
Q 18.84375 -1.421875 12.171875 6.21875 
Q 5.515625 13.875 5.515625 27.296875 
Q 5.515625 40.765625 12.171875 48.375 
Q 18.84375 56 30.609375 56 
z
" id="DejaVuSans-111"/>
      <path d="M 52 44.1875 
Q 55.375 50.25 60.0625 53.125 
Q 64.75 56 71.09375 56 
Q 79.640625 56 84.28125 50.015625 
Q 88.921875 44.046875 88.921875 33.015625 
L 88.921875 0 
L 79.890625 0 
L 79.890625 32.71875 
Q 79.890625 40.578125 77.09375 44.375 
Q 74.3125 48.1875 68.609375 48.1875 
Q 61.625 48.1875 57.5625 43.546875 
Q 53.515625 38.921875 53.515625 30.90625 
L 53.515625 0 
L 44.484375 0 
L 44.484375 32.71875 
Q 44.484375 40.625 41.703125 44.40625 
Q 38.921875 48.1875 33.109375 48.1875 
Q 26.21875 48.1875 22.15625 43.53125 
Q 18.109375 38.875 18.109375 30.90625 
L 18.109375 0 
L 9.078125 0 
L 9.078125 54.6875 
L 18.109375 54.6875 
L 18.109375 46.1875 
Q 21.1875 51.21875 25.484375 53.609375 
Q 29.78125 56 35.6875 56 
Q 41.65625 56 45.828125 52.96875 
Q 50 49.953125 52 44.1875 
z
" id="DejaVuSans-109"/>
      <path d="M 48.78125 52.59375 
L 48.78125 44.1875 
Q 44.96875 46.296875 41.140625 47.34375 
Q 37.3125 48.390625 33.40625 48.390625 
Q 24.65625 48.390625 19.8125 42.84375 
Q 14.984375 37.3125 14.984375 27.296875 
Q 14.984375 17.28125 19.8125 11.734375 
Q 24.65625 6.203125 33.40625 6.203125 
Q 37.3125 6.203125 41.140625 7.25 
Q 44.96875 8.296875 48.78125 10.40625 
L 48.78125 2.09375 
Q 45.015625 0.34375 40.984375 -0.53125 
Q 36.96875 -1.421875 32.421875 -1.421875 
Q 20.0625 -1.421875 12.78125 6.34375 
Q 5.515625 14.109375 5.515625 27.296875 
Q 5.515625 40.671875 12.859375 48.328125 
Q 20.21875 56 33.015625 56 
Q 37.15625 56 41.109375 55.140625 
Q 45.0625 54.296875 48.78125 52.59375 
z
" id="DejaVuSans-99"/>
      <path d="M 54.890625 33.015625 
L 54.890625 0 
L 45.90625 0 
L 45.90625 32.71875 
Q 45.90625 40.484375 42.875 44.328125 
Q 39.84375 48.1875 33.796875 48.1875 
Q 26.515625 48.1875 22.3125 43.546875 
Q 18.109375 38.921875 18.109375 30.90625 
L 18.109375 0 
L 9.078125 0 
L 9.078125 75.984375 
L 18.109375 75.984375 
L 18.109375 46.1875 
Q 21.34375 51.125 25.703125 53.5625 
Q 30.078125 56 35.796875 56 
Q 45.21875 56 50.046875 50.171875 
Q 54.890625 44.34375 54.890625 33.015625 
z
" id="DejaVuSans-104"/>
     </defs>
     <use xlink:href="#DejaVuSans-67"/>
     <use x="69.824219" xlink:href="#DejaVuSans-84"/>
     <use x="125.033203" xlink:href="#DejaVuSans-67"/>
     <use x="194.857422" xlink:href="#DejaVuSans-70"/>
     <use x="252.376953" xlink:href="#DejaVuSans-45"/>
     <use x="288.460938" xlink:href="#DejaVuSans-115"/>
     <use x="340.560547" xlink:href="#DejaVuSans-116"/>
     <use x="379.769531" xlink:href="#DejaVuSans-111"/>
     <use x="440.951172" xlink:href="#DejaVuSans-109"/>
     <use x="538.363281" xlink:href="#DejaVuSans-97"/>
     <use x="599.642578" xlink:href="#DejaVuSans-99"/>
     <use x="654.623047" xlink:href="#DejaVuSans-104"/>
    </g>
   </g>
  </g>
  <g id="axes_46">
   <g id="PatchCollection_16">
    <path clip-path="url(#p1c9696aedb)" d="M 496.497378 940.107221 
C 512.580228 940.107221 509.363658 938.193833 523.302128 938.193833 
C 537.240598 938.193833 534.024028 940.107221 550.106878 940.107221 
" style="fill:#1f77b4;stroke:#1f77b4;"/>
    <path clip-path="url(#p1c9696aedb)" d="M 866.903283 940.107221 
C 882.986133 940.107221 879.769563 937.453874 893.708033 937.453874 
C 907.646503 937.453874 904.429933 940.107221 920.512783 940.107221 
" style="fill:#1f77b4;stroke:#1f77b4;"/>
    <path clip-path="url(#p1c9696aedb)" d="M 904.590761 940.107221 
C 922.442725 940.107221 918.872332 908.441286 934.594211 908.441286 
C 949.815735 908.441286 946.245343 940.107221 964.097306 940.107221 
" style="fill:#1f77b4;stroke:#1f77b4;"/>
   </g>
   <g id="LineCollection_16">
    <path clip-path="url(#p1c9696aedb)" d="M 550.035399 940.107221 
L 550.035399 883.414307 
" style="fill:none;stroke:#000000;stroke-dasharray:1.85,0.8;stroke-dashoffset:0;stroke-opacity:0.5;stroke-width:0.5;"/>
   </g>
  </g>
  <g id="axes_47">
   <g id="line2d_16">
    <path clip-path="url(#p17544bc680)" d="M 45.354331 940.107221 
L 50.261199 940.107221 
L 50.261199 883.981236 
L 45.354331 883.981236 
" style="fill:none;stroke:#000000;stroke-linecap:square;"/>
   </g>
   <g id="text_46">
    <!-- 0 -->
    <g transform="translate(38.301583 938.443471)scale(0.08 -0.08)">
     <use xlink:href="#DejaVuSans-48"/>
    </g>
   </g>
   <g id="text_47">
    <!-- 500 -->
    <g transform="translate(28.121583 890.059986)scale(0.08 -0.08)">
     <use xlink:href="#DejaVuSans-53"/>
     <use x="63.623047" xlink:href="#DejaVuSans-48"/>
     <use x="127.246094" xlink:href="#DejaVuSans-48"/>
    </g>
   </g>
  </g>
  <g id="axes_48">
   <g id="text_48">
    <!-- CTCF-stomach -->
    <g transform="translate(996.534359 914.409764)scale(0.096 -0.096)">
     <use xlink:href="#DejaVuSans-67"/>
     <use x="69.824219" xlink:href="#DejaVuSans-84"/>
     <use x="125.033203" xlink:href="#DejaVuSans-67"/>
     <use x="194.857422" xlink:href="#DejaVuSans-70"/>
     <use x="252.376953" xlink:href="#DejaVuSans-45"/>
     <use x="288.460938" xlink:href="#DejaVuSans-115"/>
     <use x="340.560547" xlink:href="#DejaVuSans-116"/>
     <use x="379.769531" xlink:href="#DejaVuSans-111"/>
     <use x="440.951172" xlink:href="#DejaVuSans-109"/>
     <use x="538.363281" xlink:href="#DejaVuSans-97"/>
     <use x="599.642578" xlink:href="#DejaVuSans-99"/>
     <use x="654.623047" xlink:href="#DejaVuSans-104"/>
    </g>
   </g>
  </g>
  <g id="axes_49">
   <g id="PatchCollection_17">
    <path clip-path="url(#pd834ffaa3d)" d="M 497.712527 996.800134 
C 511.650997 996.800134 508.863303 994.106865 520.94331 994.106865 
C 533.023318 994.106865 530.235624 996.800134 544.174094 996.800134 
" style="fill:#1f77b4;stroke:#1f77b4;"/>
    <path clip-path="url(#pd834ffaa3d)" d="M 912.793015 996.800134 
C 926.731485 996.800134 923.943791 983.873104 936.023798 983.873104 
C 948.103805 983.873104 945.316111 996.800134 959.254581 996.800134 
" style="fill:#1f77b4;stroke:#1f77b4;"/>
   </g>
   <g id="LineCollection_17">
    <path clip-path="url(#pd834ffaa3d)" d="M 550.035399 996.800134 
L 550.035399 940.107221 
" style="fill:none;stroke:#000000;stroke-dasharray:1.85,0.8;stroke-dashoffset:0;stroke-opacity:0.5;stroke-width:0.5;"/>
   </g>
  </g>
  <g id="axes_50">
   <g id="line2d_17">
    <path clip-path="url(#pd2fdee97c2)" d="M 45.354331 996.800134 
L 50.261199 996.800134 
L 50.261199 940.67415 
L 45.354331 940.67415 
" style="fill:none;stroke:#000000;stroke-linecap:square;"/>
   </g>
   <g id="text_49">
    <!-- 0 -->
    <g transform="translate(38.301583 995.136384)scale(0.08 -0.08)">
     <use xlink:href="#DejaVuSans-48"/>
    </g>
   </g>
   <g id="text_50">
    <!-- 500 -->
    <g transform="translate(28.121583 946.7529)scale(0.08 -0.08)">
     <use xlink:href="#DejaVuSans-53"/>
     <use x="63.623047" xlink:href="#DejaVuSans-48"/>
     <use x="127.246094" xlink:href="#DejaVuSans-48"/>
    </g>
   </g>
  </g>
  <g id="axes_51">
   <g id="text_51">
    <!-- RAD21-MEL -->
    <g transform="translate(996.534359 971.102677)scale(0.096 -0.096)">
     <defs>
      <path d="M 44.390625 34.1875 
Q 47.5625 33.109375 50.5625 29.59375 
Q 53.5625 26.078125 56.59375 19.921875 
L 66.609375 0 
L 56 0 
L 46.6875 18.703125 
Q 43.0625 26.03125 39.671875 28.421875 
Q 36.28125 30.8125 30.421875 30.8125 
L 19.671875 30.8125 
L 19.671875 0 
L 9.8125 0 
L 9.8125 72.90625 
L 32.078125 72.90625 
Q 44.578125 72.90625 50.734375 67.671875 
Q 56.890625 62.453125 56.890625 51.90625 
Q 56.890625 45.015625 53.6875 40.46875 
Q 50.484375 35.9375 44.390625 34.1875 
z
M 19.671875 64.796875 
L 19.671875 38.921875 
L 32.078125 38.921875 
Q 39.203125 38.921875 42.84375 42.21875 
Q 46.484375 45.515625 46.484375 51.90625 
Q 46.484375 58.296875 42.84375 61.546875 
Q 39.203125 64.796875 32.078125 64.796875 
z
" id="DejaVuSans-82"/>
      <path d="M 34.1875 63.1875 
L 20.796875 26.90625 
L 47.609375 26.90625 
z
M 28.609375 72.90625 
L 39.796875 72.90625 
L 67.578125 0 
L 57.328125 0 
L 50.6875 18.703125 
L 17.828125 18.703125 
L 11.1875 0 
L 0.78125 0 
z
" id="DejaVuSans-65"/>
      <path d="M 19.671875 64.796875 
L 19.671875 8.109375 
L 31.59375 8.109375 
Q 46.6875 8.109375 53.6875 14.9375 
Q 60.6875 21.78125 60.6875 36.53125 
Q 60.6875 51.171875 53.6875 57.984375 
Q 46.6875 64.796875 31.59375 64.796875 
z
M 9.8125 72.90625 
L 30.078125 72.90625 
Q 51.265625 72.90625 61.171875 64.09375 
Q 71.09375 55.28125 71.09375 36.53125 
Q 71.09375 17.671875 61.125 8.828125 
Q 51.171875 0 30.078125 0 
L 9.8125 0 
z
" id="DejaVuSans-68"/>
     </defs>
     <use xlink:href="#DejaVuSans-82"/>
     <use x="65.482422" xlink:href="#DejaVuSans-65"/>
     <use x="133.890625" xlink:href="#DejaVuSans-68"/>
     <use x="210.892578" xlink:href="#DejaVuSans-50"/>
     <use x="274.515625" xlink:href="#DejaVuSans-49"/>
     <use x="338.138672" xlink:href="#DejaVuSans-45"/>
     <use x="374.222656" xlink:href="#DejaVuSans-77"/>
     <use x="460.501953" xlink:href="#DejaVuSans-69"/>
     <use x="523.685547" xlink:href="#DejaVuSans-76"/>
    </g>
   </g>
  </g>
  <g id="axes_52">
   <g id="LineCollection_18">
    <path clip-path="url(#p9d77513981)" d="M 550.035399 1010.329125 
L 550.035399 997.444372 
" style="fill:none;stroke:#000000;stroke-dasharray:1.85,0.8;stroke-dashoffset:0;stroke-opacity:0.5;stroke-width:0.5;"/>
   </g>
  </g>
  <g id="axes_53"/>
  <g id="axes_54"/>
  <g id="axes_55">
   <g id="line2d_18">
    <path clip-path="url(#p7670f1a211)" d="M 129.879879 1039.319819 
L 919.297634 1039.319819 
" style="fill:none;stroke:#000000;stroke-linecap:square;stroke-width:0.5;"/>
   </g>
   <g id="patch_2">
    <path clip-path="url(#p7670f1a211)" d="M 129.879879 1014.883218 
L 126.150659 1039.319819 
L 129.879879 1063.75642 
L 163.189248 1063.75642 
L 163.189248 1014.883218 
z
" style="fill:#808080;stroke:#000000;stroke-linejoin:miter;stroke-width:0.5;"/>
   </g>
   <g id="patch_3">
    <path clip-path="url(#p7670f1a211)" d="M 905.716561 1014.883218 
L 905.716561 1063.75642 
L 919.297634 1063.75642 
L 919.297634 1014.883218 
z
" style="fill:#808080;stroke:#000000;stroke-linejoin:miter;stroke-width:0.5;"/>
   </g>
   <g id="patch_4">
    <path clip-path="url(#p7670f1a211)" d="M 877.553704 1014.883218 
L 877.553704 1063.75642 
L 879.269208 1063.75642 
L 879.269208 1014.883218 
z
" style="fill:#808080;stroke:#000000;stroke-linejoin:miter;stroke-width:0.5;"/>
   </g>
   <g id="patch_5">
    <path clip-path="url(#p7670f1a211)" d="M 870.691688 1014.883218 
L 870.691688 1063.75642 
L 877.553704 1063.75642 
L 877.553704 1014.883218 
z
" style="fill:#00008b;stroke:#000000;stroke-linejoin:miter;stroke-width:0.5;"/>
   </g>
   <g id="patch_6">
    <path clip-path="url(#p7670f1a211)" d="M 711.578692 1014.883218 
L 711.578692 1063.75642 
L 717.797394 1063.75642 
L 717.797394 1014.883218 
z
" style="fill:#00008b;stroke:#000000;stroke-linejoin:miter;stroke-width:0.5;"/>
   </g>
   <g id="patch_7">
    <path clip-path="url(#p7670f1a211)" d="M 557.969605 1014.883218 
L 557.969605 1063.75642 
L 566.118249 1063.75642 
L 566.118249 1014.883218 
z
" style="fill:#00008b;stroke:#000000;stroke-linejoin:miter;stroke-width:0.5;"/>
   </g>
   <g id="patch_8">
    <path clip-path="url(#p7670f1a211)" d="M 343.603085 1014.883218 
L 343.603085 1063.75642 
L 350.608059 1063.75642 
L 350.608059 1014.883218 
z
" style="fill:#00008b;stroke:#000000;stroke-linejoin:miter;stroke-width:0.5;"/>
   </g>
   <g id="patch_9">
    <path clip-path="url(#p7670f1a211)" d="M 330.022011 1014.883218 
L 330.022011 1063.75642 
L 336.383672 1063.75642 
L 336.383672 1014.883218 
z
" style="fill:#00008b;stroke:#000000;stroke-linejoin:miter;stroke-width:0.5;"/>
   </g>
   <g id="patch_10">
    <path clip-path="url(#p7670f1a211)" d="M 175.126297 1014.883218 
L 175.126297 1063.75642 
L 181.630916 1063.75642 
L 181.630916 1014.883218 
z
" style="fill:#00008b;stroke:#000000;stroke-linejoin:miter;stroke-width:0.5;"/>
   </g>
   <g id="patch_11">
    <path clip-path="url(#p7670f1a211)" d="M 163.189248 1014.883218 
L 163.189248 1063.75642 
L 169.908305 1063.75642 
L 169.908305 1014.883218 
z
" style="fill:#00008b;stroke:#000000;stroke-linejoin:miter;stroke-width:0.5;"/>
   </g>
   <g id="text_52">
    <!-- Gins4-201 -->
    <g transform="translate(923.026854 1042.079194)scale(0.1 -0.1)">
     <use xlink:href="#DejaVuSans-71"/>
     <use x="77.490234" xlink:href="#DejaVuSans-105"/>
     <use x="105.273438" xlink:href="#DejaVuSans-110"/>
     <use x="168.652344" xlink:href="#DejaVuSans-115"/>
     <use x="220.751953" xlink:href="#DejaVuSans-52"/>
     <use x="284.375" xlink:href="#DejaVuSans-45"/>
     <use x="320.458984" xlink:href="#DejaVuSans-50"/>
     <use x="384.082031" xlink:href="#DejaVuSans-48"/>
     <use x="447.705078" xlink:href="#DejaVuSans-49"/>
    </g>
   </g>
   <g id="LineCollection_19">
    <path clip-path="url(#p7670f1a211)" d="M 550.035399 1067.666276 
L 550.035399 1010.973362 
" style="fill:none;stroke:#000000;stroke-dasharray:1.85,0.8;stroke-dashoffset:0;stroke-opacity:0.5;stroke-width:0.5;"/>
   </g>
  </g>
  <g id="axes_56"/>
  <g id="axes_57"/>
 </g>
 <defs>
  <clipPath id="pdf3b5b023f">
   <rect height="56.692913" width="932.304942" x="58.472025" y="33.020606"/>
  </clipPath>
  <clipPath id="pdfe22f2061">
   <rect height="56.692913" width="9.813736" x="45.354331" y="33.020606"/>
  </clipPath>
  <clipPath id="pf0ff59631c">
   <rect height="56.692913" width="932.304942" x="58.472025" y="89.71352"/>
  </clipPath>
  <clipPath id="p9b0f43d9e4">
   <rect height="56.692913" width="9.813736" x="45.354331" y="89.71352"/>
  </clipPath>
  <clipPath id="pb50ed8957d">
   <rect height="56.692913" width="932.304942" x="58.472025" y="146.406433"/>
  </clipPath>
  <clipPath id="p63cfe47960">
   <rect height="56.692913" width="9.813736" x="45.354331" y="146.406433"/>
  </clipPath>
  <clipPath id="p889231fd08">
   <rect height="56.692913" width="932.304942" x="58.472025" y="203.099347"/>
  </clipPath>
  <clipPath id="p407c5f20c0">
   <rect height="56.692913" width="9.813736" x="45.354331" y="203.099347"/>
  </clipPath>
  <clipPath id="p04a9a95374">
   <rect height="56.692913" width="932.304942" x="58.472025" y="259.79226"/>
  </clipPath>
  <clipPath id="p4b821c379c">
   <rect height="56.692913" width="9.813736" x="45.354331" y="259.79226"/>
  </clipPath>
  <clipPath id="p50e0c277a3">
   <rect height="56.692913" width="932.304942" x="58.472025" y="316.485173"/>
  </clipPath>
  <clipPath id="p68c48803c9">
   <rect height="56.692913" width="9.813736" x="45.354331" y="316.485173"/>
  </clipPath>
  <clipPath id="p733072c1ba">
   <rect height="56.692913" width="932.304942" x="58.472025" y="373.178087"/>
  </clipPath>
  <clipPath id="p2724d679fd">
   <rect height="56.692913" width="9.813736" x="45.354331" y="373.178087"/>
  </clipPath>
  <clipPath id="pa20d9352b8">
   <rect height="56.692913" width="932.304942" x="58.472025" y="429.871"/>
  </clipPath>
  <clipPath id="p30ca490f9e">
   <rect height="56.692913" width="9.813736" x="45.354331" y="429.871"/>
  </clipPath>
  <clipPath id="p78bd5fa68a">
   <rect height="56.692913" width="932.304942" x="58.472025" y="486.563914"/>
  </clipPath>
  <clipPath id="pb6c5b61dbc">
   <rect height="56.692913" width="9.813736" x="45.354331" y="486.563914"/>
  </clipPath>
  <clipPath id="p3c67567880">
   <rect height="56.692913" width="932.304942" x="58.472025" y="543.256827"/>
  </clipPath>
  <clipPath id="pfea006f481">
   <rect height="56.692913" width="9.813736" x="45.354331" y="543.256827"/>
  </clipPath>
  <clipPath id="pe50b857f09">
   <rect height="56.692913" width="932.304942" x="58.472025" y="599.94974"/>
  </clipPath>
  <clipPath id="p6fc299af10">
   <rect height="56.692913" width="9.813736" x="45.354331" y="599.94974"/>
  </clipPath>
  <clipPath id="paa851ba172">
   <rect height="56.692913" width="932.304942" x="58.472025" y="656.642654"/>
  </clipPath>
  <clipPath id="p3a110aa837">
   <rect height="56.692913" width="9.813736" x="45.354331" y="656.642654"/>
  </clipPath>
  <clipPath id="p5a4ce5e152">
   <rect height="56.692913" width="932.304942" x="58.472025" y="713.335567"/>
  </clipPath>
  <clipPath id="pcf296d2be9">
   <rect height="56.692913" width="9.813736" x="45.354331" y="713.335567"/>
  </clipPath>
  <clipPath id="pe06e77132a">
   <rect height="56.692913" width="932.304942" x="58.472025" y="770.02848"/>
  </clipPath>
  <clipPath id="pb77b4e8da8">
   <rect height="56.692913" width="9.813736" x="45.354331" y="770.02848"/>
  </clipPath>
  <clipPath id="p69b064a6f4">
   <rect height="56.692913" width="932.304942" x="58.472025" y="826.721394"/>
  </clipPath>
  <clipPath id="pdd86040814">
   <rect height="56.692913" width="9.813736" x="45.354331" y="826.721394"/>
  </clipPath>
  <clipPath id="p1c9696aedb">
   <rect height="56.692913" width="932.304942" x="58.472025" y="883.414307"/>
  </clipPath>
  <clipPath id="p17544bc680">
   <rect height="56.692913" width="9.813736" x="45.354331" y="883.414307"/>
  </clipPath>
  <clipPath id="pd834ffaa3d">
   <rect height="56.692913" width="932.304942" x="58.472025" y="940.107221"/>
  </clipPath>
  <clipPath id="pd2fdee97c2">
   <rect height="56.692913" width="9.813736" x="45.354331" y="940.107221"/>
  </clipPath>
  <clipPath id="p9d77513981">
   <rect height="14.173228" width="932.304942" x="58.472025" y="996.800134"/>
  </clipPath>
  <clipPath id="p7670f1a211">
   <rect height="56.692913" width="932.304942" x="58.472025" y="1010.973362"/>
  </clipPath>
 </defs>
</svg>
