<?xml version="1.0" encoding="utf-8" standalone="no"?>
<!DOCTYPE svg PUBLIC "-//W3C//DTD SVG 1.1//EN"
  "http://www.w3.org/Graphics/SVG/1.1/DTD/svg11.dtd">
<!-- Created with matplotlib (https://matplotlib.org/) -->
<svg height="216pt" version="1.1" viewBox="0 0 494.1 216" width="494.1pt" xmlns="http://www.w3.org/2000/svg" xmlns:xlink="http://www.w3.org/1999/xlink">
 <metadata>
  <rdf:RDF xmlns:cc="http://creativecommons.org/ns#" xmlns:dc="http://purl.org/dc/elements/1.1/" xmlns:rdf="http://www.w3.org/1999/02/22-rdf-syntax-ns#">
   <cc:Work>
    <dc:type rdf:resource="http://purl.org/dc/dcmitype/StillImage"/>
    <dc:date>2020-11-04T12:21:53.854031</dc:date>
    <dc:format>image/svg+xml</dc:format>
    <dc:creator>
     <cc:Agent>
      <dc:title>Matplotlib v3.3.2, https://matplotlib.org/</dc:title>
     </cc:Agent>
    </dc:creator>
   </cc:Work>
  </rdf:RDF>
 </metadata>
 <defs>
  <style type="text/css">*{stroke-linecap:butt;stroke-linejoin:round;}</style>
 </defs>
 <g id="figure_1">
  <g id="patch_1">
   <path d="M 0 216 
L 494.1 216 
L 494.1 0 
L 0 0 
z
" style="fill:#ffffff;"/>
  </g>
  <g id="axes_1">
   <g id="patch_2">
    <path d="M 49.284188 188.12 
L 222.940108 188.12 
L 222.940108 24.72 
L 49.284188 24.72 
z
" style="fill:#ffffff;"/>
   </g>
   <g id="PathCollection_1"/>
   <g id="PathCollection_2"/>
   <g id="PathCollection_3"/>
   <g id="patch_3">
    <path clip-path="url(#p1f02450bb6)" d="M 51.454887 188.12 
L 68.820479 188.12 
L 68.820479 148.583065 
L 51.454887 148.583065 
z
" style="fill:#3274a1;opacity:0.6;"/>
   </g>
   <g id="patch_4">
    <path clip-path="url(#p1f02450bb6)" d="M 73.161877 188.12 
L 90.527469 188.12 
L 90.527469 39.927306 
L 73.161877 39.927306 
z
" style="fill:#3274a1;opacity:0.6;"/>
   </g>
   <g id="patch_5">
    <path clip-path="url(#p1f02450bb6)" d="M 94.868867 188.12 
L 112.234459 188.12 
L 112.234459 139.118198 
L 94.868867 139.118198 
z
" style="fill:#3274a1;opacity:0.6;"/>
   </g>
   <g id="patch_6">
    <path clip-path="url(#p1f02450bb6)" d="M 116.575857 188.12 
L 133.941449 188.12 
L 133.941449 172.048018 
L 116.575857 172.048018 
z
" style="fill:#3274a1;opacity:0.6;"/>
   </g>
   <g id="patch_7">
    <path clip-path="url(#p1f02450bb6)" d="M 138.282847 188.12 
L 155.648439 188.12 
L 155.648439 179.316378 
L 138.282847 179.316378 
z
" style="fill:#3274a1;opacity:0.6;"/>
   </g>
   <g id="patch_8">
    <path clip-path="url(#p1f02450bb6)" d="M 159.989837 188.12 
L 177.355429 188.12 
L 177.355429 179.688222 
L 159.989837 179.688222 
z
" style="fill:#3274a1;opacity:0.6;"/>
   </g>
   <g id="patch_9">
    <path clip-path="url(#p1f02450bb6)" d="M 181.696827 188.12 
L 199.062419 188.12 
L 199.062419 180.497904 
L 181.696827 180.497904 
z
" style="fill:#3274a1;opacity:0.6;"/>
   </g>
   <g id="patch_10">
    <path clip-path="url(#p1f02450bb6)" d="M 203.403817 188.12 
L 220.769409 188.12 
L 220.769409 184.94127 
L 203.403817 184.94127 
z
" style="fill:#3274a1;opacity:0.6;"/>
   </g>
   <g id="matplotlib.axis_1">
    <g id="xtick_1">
     <g id="line2d_1">
      <defs>
       <path d="M 0 0 
L 0 3.5 
" id="m088f452ac9" style="stroke:#000000;stroke-width:0.8;"/>
      </defs>
      <g>
       <use style="stroke:#000000;stroke-width:0.8;" x="60.137683" xlink:href="#m088f452ac9" y="188.12"/>
      </g>
     </g>
     <g id="text_1">
      <text style="font-family:DejaVu Sans;font-size:8px;font-stretch:normal;font-style:normal;font-weight:normal;text-anchor:middle;" transform="rotate(-0, 60.137683, 201.19875)" x="60.137683" y="201.19875">iPSC</text>
     </g>
    </g>
    <g id="xtick_2">
     <g id="line2d_2">
      <g>
       <use style="stroke:#000000;stroke-width:0.8;" x="81.844673" xlink:href="#m088f452ac9" y="188.12"/>
      </g>
     </g>
     <g id="text_2">
      <text style="font-family:DejaVu Sans;font-size:8px;font-stretch:normal;font-style:normal;font-weight:normal;text-anchor:middle;" transform="rotate(-0, 81.844673, 201.19875)" x="81.844673" y="201.19875">DE</text>
     </g>
    </g>
    <g id="xtick_3">
     <g id="line2d_3">
      <g>
       <use style="stroke:#000000;stroke-width:0.8;" x="103.551663" xlink:href="#m088f452ac9" y="188.12"/>
      </g>
     </g>
     <g id="text_3">
      <text style="font-family:DejaVu Sans;font-size:8px;font-stretch:normal;font-style:normal;font-weight:normal;text-anchor:middle;" transform="rotate(-0, 103.551663, 201.19875)" x="103.551663" y="201.19875">PGT</text>
     </g>
    </g>
    <g id="xtick_4">
     <g id="line2d_4">
      <g>
       <use style="stroke:#000000;stroke-width:0.8;" x="125.258653" xlink:href="#m088f452ac9" y="188.12"/>
      </g>
     </g>
     <g id="text_4">
      <text style="font-family:DejaVu Sans;font-size:8px;font-stretch:normal;font-style:normal;font-weight:normal;text-anchor:middle;" transform="rotate(-0, 125.258653, 201.19875)" x="125.258653" y="201.19875">PFG</text>
     </g>
    </g>
    <g id="xtick_5">
     <g id="line2d_5">
      <g>
       <use style="stroke:#000000;stroke-width:0.8;" x="146.965643" xlink:href="#m088f452ac9" y="188.12"/>
      </g>
     </g>
     <g id="text_5">
      <text style="font-family:DejaVu Sans;font-size:8px;font-stretch:normal;font-style:normal;font-weight:normal;text-anchor:middle;" transform="rotate(-0, 146.965643, 201.19875)" x="146.965643" y="201.19875">PE</text>
     </g>
    </g>
    <g id="xtick_6">
     <g id="line2d_6">
      <g>
       <use style="stroke:#000000;stroke-width:0.8;" x="168.672633" xlink:href="#m088f452ac9" y="188.12"/>
      </g>
     </g>
     <g id="text_6">
      <text style="font-family:DejaVu Sans;font-size:8px;font-stretch:normal;font-style:normal;font-weight:normal;text-anchor:middle;" transform="rotate(-0, 168.672633, 201.19875)" x="168.672633" y="201.19875">EP</text>
     </g>
    </g>
    <g id="xtick_7">
     <g id="line2d_7">
      <g>
       <use style="stroke:#000000;stroke-width:0.8;" x="190.379623" xlink:href="#m088f452ac9" y="188.12"/>
      </g>
     </g>
     <g id="text_7">
      <text style="font-family:DejaVu Sans;font-size:8px;font-stretch:normal;font-style:normal;font-weight:normal;text-anchor:middle;" transform="rotate(-0, 190.379623, 201.19875)" x="190.379623" y="201.19875">EN6</text>
     </g>
    </g>
    <g id="xtick_8">
     <g id="line2d_8">
      <g>
       <use style="stroke:#000000;stroke-width:0.8;" x="212.086613" xlink:href="#m088f452ac9" y="188.12"/>
      </g>
     </g>
     <g id="text_8">
      <text style="font-family:DejaVu Sans;font-size:8px;font-stretch:normal;font-style:normal;font-weight:normal;text-anchor:middle;" transform="rotate(-0, 212.086613, 201.19875)" x="212.086613" y="201.19875">EN7</text>
     </g>
    </g>
   </g>
   <g id="matplotlib.axis_2">
    <g id="ytick_1">
     <g id="line2d_9">
      <defs>
       <path d="M 0 0 
L -3.5 0 
" id="m40e9722403" style="stroke:#000000;stroke-width:0.8;"/>
      </defs>
      <g>
       <use style="stroke:#000000;stroke-width:0.8;" x="49.284188" xlink:href="#m40e9722403" y="188.12"/>
      </g>
     </g>
     <g id="text_9">
      <text style="font-family:DejaVu Sans;font-size:10px;font-stretch:normal;font-style:normal;font-weight:normal;text-anchor:end;" transform="rotate(-0, 42.284188, 191.919219)" x="42.284188" y="191.919219">0</text>
     </g>
    </g>
    <g id="ytick_2">
     <g id="line2d_10">
      <g>
       <use style="stroke:#000000;stroke-width:0.8;" x="49.284188" xlink:href="#m40e9722403" y="167.254505"/>
      </g>
     </g>
     <g id="text_10">
      <text style="font-family:DejaVu Sans;font-size:10px;font-stretch:normal;font-style:normal;font-weight:normal;text-anchor:end;" transform="rotate(-0, 42.284188, 171.053723)" x="42.284188" y="171.053723">200</text>
     </g>
    </g>
    <g id="ytick_3">
     <g id="line2d_11">
      <g>
       <use style="stroke:#000000;stroke-width:0.8;" x="49.284188" xlink:href="#m40e9722403" y="146.389009"/>
      </g>
     </g>
     <g id="text_11">
      <text style="font-family:DejaVu Sans;font-size:10px;font-stretch:normal;font-style:normal;font-weight:normal;text-anchor:end;" transform="rotate(-0, 42.284188, 150.188228)" x="42.284188" y="150.188228">400</text>
     </g>
    </g>
    <g id="ytick_4">
     <g id="line2d_12">
      <g>
       <use style="stroke:#000000;stroke-width:0.8;" x="49.284188" xlink:href="#m40e9722403" y="125.523514"/>
      </g>
     </g>
     <g id="text_12">
      <text style="font-family:DejaVu Sans;font-size:10px;font-stretch:normal;font-style:normal;font-weight:normal;text-anchor:end;" transform="rotate(-0, 42.284188, 129.322733)" x="42.284188" y="129.322733">600</text>
     </g>
    </g>
    <g id="ytick_5">
     <g id="line2d_13">
      <g>
       <use style="stroke:#000000;stroke-width:0.8;" x="49.284188" xlink:href="#m40e9722403" y="104.658019"/>
      </g>
     </g>
     <g id="text_13">
      <text style="font-family:DejaVu Sans;font-size:10px;font-stretch:normal;font-style:normal;font-weight:normal;text-anchor:end;" transform="rotate(-0, 42.284188, 108.457237)" x="42.284188" y="108.457237">800</text>
     </g>
    </g>
    <g id="ytick_6">
     <g id="line2d_14">
      <g>
       <use style="stroke:#000000;stroke-width:0.8;" x="49.284188" xlink:href="#m40e9722403" y="83.792523"/>
      </g>
     </g>
     <g id="text_14">
      <text style="font-family:DejaVu Sans;font-size:10px;font-stretch:normal;font-style:normal;font-weight:normal;text-anchor:end;" transform="rotate(-0, 42.284188, 87.591742)" x="42.284188" y="87.591742">1000</text>
     </g>
    </g>
    <g id="ytick_7">
     <g id="line2d_15">
      <g>
       <use style="stroke:#000000;stroke-width:0.8;" x="49.284188" xlink:href="#m40e9722403" y="62.927028"/>
      </g>
     </g>
     <g id="text_15">
      <text style="font-family:DejaVu Sans;font-size:10px;font-stretch:normal;font-style:normal;font-weight:normal;text-anchor:end;" transform="rotate(-0, 42.284188, 66.726247)" x="42.284188" y="66.726247">1200</text>
     </g>
    </g>
    <g id="ytick_8">
     <g id="line2d_16">
      <g>
       <use style="stroke:#000000;stroke-width:0.8;" x="49.284188" xlink:href="#m40e9722403" y="42.061533"/>
      </g>
     </g>
     <g id="text_16">
      <text style="font-family:DejaVu Sans;font-size:10px;font-stretch:normal;font-style:normal;font-weight:normal;text-anchor:end;" transform="rotate(-0, 42.284188, 45.860752)" x="42.284188" y="45.860752">1400</text>
     </g>
    </g>
    <g id="text_17">
     <text style="font-family:DejaVu Sans;font-size:10px;font-stretch:normal;font-style:normal;font-weight:normal;text-anchor:middle;" transform="rotate(-90, 10.7545, 106.42)" x="10.7545" y="106.42">tpm</text>
    </g>
   </g>
   <g id="line2d_17">
    <path clip-path="url(#p1f02450bb6)" d="M 60.137683 153.99106 
L 60.137683 139.968102 
" style="fill:none;stroke:#424242;stroke-linecap:square;stroke-width:2.7;"/>
   </g>
   <g id="line2d_18">
    <path clip-path="url(#p1f02450bb6)" d="M 59.052333 153.99106 
L 61.223032 153.99106 
" style="fill:none;stroke:#424242;stroke-linecap:square;stroke-width:2.7;"/>
   </g>
   <g id="line2d_19">
    <path clip-path="url(#p1f02450bb6)" d="M 59.052333 139.968102 
L 61.223032 139.968102 
" style="fill:none;stroke:#424242;stroke-linecap:square;stroke-width:2.7;"/>
   </g>
   <g id="line2d_20">
    <path clip-path="url(#p1f02450bb6)" d="M 81.844673 49.052861 
L 81.844673 32.500952 
" style="fill:none;stroke:#424242;stroke-linecap:square;stroke-width:2.7;"/>
   </g>
   <g id="line2d_21">
    <path clip-path="url(#p1f02450bb6)" d="M 80.759323 49.052861 
L 82.930022 49.052861 
" style="fill:none;stroke:#424242;stroke-linecap:square;stroke-width:2.7;"/>
   </g>
   <g id="line2d_22">
    <path clip-path="url(#p1f02450bb6)" d="M 80.759323 32.500952 
L 82.930022 32.500952 
" style="fill:none;stroke:#424242;stroke-linecap:square;stroke-width:2.7;"/>
   </g>
   <g id="line2d_23">
    <path clip-path="url(#p1f02450bb6)" d="M 103.551663 145.228606 
L 103.551663 133.804925 
" style="fill:none;stroke:#424242;stroke-linecap:square;stroke-width:2.7;"/>
   </g>
   <g id="line2d_24">
    <path clip-path="url(#p1f02450bb6)" d="M 102.466313 145.228606 
L 104.637012 145.228606 
" style="fill:none;stroke:#424242;stroke-linecap:square;stroke-width:2.7;"/>
   </g>
   <g id="line2d_25">
    <path clip-path="url(#p1f02450bb6)" d="M 102.466313 133.804925 
L 104.637012 133.804925 
" style="fill:none;stroke:#424242;stroke-linecap:square;stroke-width:2.7;"/>
   </g>
   <g id="line2d_26">
    <path clip-path="url(#p1f02450bb6)" d="M 125.258653 172.8822 
L 125.258653 170.410651 
" style="fill:none;stroke:#424242;stroke-linecap:square;stroke-width:2.7;"/>
   </g>
   <g id="line2d_27">
    <path clip-path="url(#p1f02450bb6)" d="M 124.173303 172.8822 
L 126.344002 172.8822 
" style="fill:none;stroke:#424242;stroke-linecap:square;stroke-width:2.7;"/>
   </g>
   <g id="line2d_28">
    <path clip-path="url(#p1f02450bb6)" d="M 124.173303 170.410651 
L 126.344002 170.410651 
" style="fill:none;stroke:#424242;stroke-linecap:square;stroke-width:2.7;"/>
   </g>
   <g id="line2d_29">
    <path clip-path="url(#p1f02450bb6)" d="M 146.965643 181.231194 
L 146.965643 176.688734 
" style="fill:none;stroke:#424242;stroke-linecap:square;stroke-width:2.7;"/>
   </g>
   <g id="line2d_30">
    <path clip-path="url(#p1f02450bb6)" d="M 145.880293 181.231194 
L 148.050992 181.231194 
" style="fill:none;stroke:#424242;stroke-linecap:square;stroke-width:2.7;"/>
   </g>
   <g id="line2d_31">
    <path clip-path="url(#p1f02450bb6)" d="M 145.880293 176.688734 
L 148.050992 176.688734 
" style="fill:none;stroke:#424242;stroke-linecap:square;stroke-width:2.7;"/>
   </g>
   <g id="line2d_32">
    <path clip-path="url(#p1f02450bb6)" d="M 168.672633 180.528549 
L 168.672633 178.904243 
" style="fill:none;stroke:#424242;stroke-linecap:square;stroke-width:2.7;"/>
   </g>
   <g id="line2d_33">
    <path clip-path="url(#p1f02450bb6)" d="M 167.587283 180.528549 
L 169.757982 180.528549 
" style="fill:none;stroke:#424242;stroke-linecap:square;stroke-width:2.7;"/>
   </g>
   <g id="line2d_34">
    <path clip-path="url(#p1f02450bb6)" d="M 167.587283 178.904243 
L 169.757982 178.904243 
" style="fill:none;stroke:#424242;stroke-linecap:square;stroke-width:2.7;"/>
   </g>
   <g id="line2d_35">
    <path clip-path="url(#p1f02450bb6)" d="M 190.379623 184.368342 
L 190.379623 178.281303 
" style="fill:none;stroke:#424242;stroke-linecap:square;stroke-width:2.7;"/>
   </g>
   <g id="line2d_36">
    <path clip-path="url(#p1f02450bb6)" d="M 189.294274 184.368342 
L 191.464973 184.368342 
" style="fill:none;stroke:#424242;stroke-linecap:square;stroke-width:2.7;"/>
   </g>
   <g id="line2d_37">
    <path clip-path="url(#p1f02450bb6)" d="M 189.294274 178.281303 
L 191.464973 178.281303 
" style="fill:none;stroke:#424242;stroke-linecap:square;stroke-width:2.7;"/>
   </g>
   <g id="line2d_38">
    <path clip-path="url(#p1f02450bb6)" d="M 212.086613 185.547441 
L 212.086613 183.919953 
" style="fill:none;stroke:#424242;stroke-linecap:square;stroke-width:2.7;"/>
   </g>
   <g id="line2d_39">
    <path clip-path="url(#p1f02450bb6)" d="M 211.001264 185.547441 
L 213.171963 185.547441 
" style="fill:none;stroke:#424242;stroke-linecap:square;stroke-width:2.7;"/>
   </g>
   <g id="line2d_40">
    <path clip-path="url(#p1f02450bb6)" d="M 211.001264 183.919953 
L 213.171963 183.919953 
" style="fill:none;stroke:#424242;stroke-linecap:square;stroke-width:2.7;"/>
   </g>
   <g id="patch_11">
    <path d="M 49.284188 188.12 
L 49.284188 24.72 
" style="fill:none;stroke:#000000;stroke-linecap:square;stroke-linejoin:miter;stroke-width:0.8;"/>
   </g>
   <g id="patch_12">
    <path d="M 49.284188 188.12 
L 222.940108 188.12 
" style="fill:none;stroke:#000000;stroke-linecap:square;stroke-linejoin:miter;stroke-width:0.8;"/>
   </g>
   <g id="PathCollection_4">
    <defs>
     <path d="M 0 2.5 
C 0.663008 2.5 1.29895 2.236584 1.767767 1.767767 
C 2.236584 1.29895 2.5 0.663008 2.5 -0 
C 2.5 -0.663008 2.236584 -1.29895 1.767767 -1.767767 
C 1.29895 -2.236584 0.663008 -2.5 0 -2.5 
C -0.663008 -2.5 -1.29895 -2.236584 -1.767767 -1.767767 
C -2.236584 -1.29895 -2.5 -0.663008 -2.5 0 
C -2.5 0.663008 -2.236584 1.29895 -1.767767 1.767767 
C -1.29895 2.236584 -0.663008 2.5 0 2.5 
z
" id="C0_0_399e747889"/>
    </defs>
    <g clip-path="url(#p1f02450bb6)">
     <use style="fill:#d62728;" x="60.137683" xlink:href="#C0_0_399e747889" y="153.99106"/>
    </g>
    <g clip-path="url(#p1f02450bb6)">
     <use style="fill:#2ca02c;" x="55.427902" xlink:href="#C0_0_399e747889" y="151.790032"/>
    </g>
    <g clip-path="url(#p1f02450bb6)">
     <use style="fill:#ff7f0e;" x="60.137683" xlink:href="#C0_0_399e747889" y="139.968102"/>
    </g>
   </g>
   <g id="PathCollection_5">
    <defs>
     <path d="M 0 2.5 
C 0.663008 2.5 1.29895 2.236584 1.767767 1.767767 
C 2.236584 1.29895 2.5 0.663008 2.5 -0 
C 2.5 -0.663008 2.236584 -1.29895 1.767767 -1.767767 
C 1.29895 -2.236584 0.663008 -2.5 0 -2.5 
C -0.663008 -2.5 -1.29895 -2.236584 -1.767767 -1.767767 
C -2.236584 -1.29895 -2.5 -0.663008 -2.5 0 
C -2.5 0.663008 -2.236584 1.29895 -1.767767 1.767767 
C -1.29895 2.236584 -0.663008 2.5 0 2.5 
z
" id="C1_0_a27b06f886"/>
    </defs>
    <g clip-path="url(#p1f02450bb6)">
     <use style="fill:#d62728;" x="81.844673" xlink:href="#C1_0_a27b06f886" y="49.052861"/>
    </g>
    <g clip-path="url(#p1f02450bb6)">
     <use style="fill:#2ca02c;" x="81.844673" xlink:href="#C1_0_a27b06f886" y="38.228103"/>
    </g>
    <g clip-path="url(#p1f02450bb6)">
     <use style="fill:#ff7f0e;" x="81.844673" xlink:href="#C1_0_a27b06f886" y="32.500952"/>
    </g>
   </g>
   <g id="PathCollection_6">
    <defs>
     <path d="M 0 2.5 
C 0.663008 2.5 1.29895 2.236584 1.767767 1.767767 
C 2.236584 1.29895 2.5 0.663008 2.5 -0 
C 2.5 -0.663008 2.236584 -1.29895 1.767767 -1.767767 
C 1.29895 -2.236584 0.663008 -2.5 0 -2.5 
C -0.663008 -2.5 -1.29895 -2.236584 -1.767767 -1.767767 
C -2.236584 -1.29895 -2.5 -0.663008 -2.5 0 
C -2.5 0.663008 -2.236584 1.29895 -1.767767 1.767767 
C -1.29895 2.236584 -0.663008 2.5 0 2.5 
z
" id="C2_0_5bf69d3fce"/>
    </defs>
    <g clip-path="url(#p1f02450bb6)">
     <use style="fill:#2ca02c;" x="103.551663" xlink:href="#C2_0_5bf69d3fce" y="145.228606"/>
    </g>
    <g clip-path="url(#p1f02450bb6)">
     <use style="fill:#d62728;" x="103.551663" xlink:href="#C2_0_5bf69d3fce" y="138.321063"/>
    </g>
    <g clip-path="url(#p1f02450bb6)">
     <use style="fill:#ff7f0e;" x="101.300561" xlink:href="#C2_0_5bf69d3fce" y="133.804925"/>
    </g>
   </g>
   <g id="PathCollection_7">
    <defs>
     <path d="M 0 2.5 
C 0.663008 2.5 1.29895 2.236584 1.767767 1.767767 
C 2.236584 1.29895 2.5 0.663008 2.5 -0 
C 2.5 -0.663008 2.236584 -1.29895 1.767767 -1.767767 
C 1.29895 -2.236584 0.663008 -2.5 0 -2.5 
C -0.663008 -2.5 -1.29895 -2.236584 -1.767767 -1.767767 
C -2.236584 -1.29895 -2.5 -0.663008 -2.5 0 
C -2.5 0.663008 -2.236584 1.29895 -1.767767 1.767767 
C -1.29895 2.236584 -0.663008 2.5 0 2.5 
z
" id="C3_0_ce69a593ba"/>
    </defs>
    <g clip-path="url(#p1f02450bb6)">
     <use style="fill:#2ca02c;" x="125.258653" xlink:href="#C3_0_ce69a593ba" y="172.8822"/>
    </g>
    <g clip-path="url(#p1f02450bb6)">
     <use style="fill:#ff7f0e;" x="120.013408" xlink:href="#C3_0_ce69a593ba" y="172.851204"/>
    </g>
    <g clip-path="url(#p1f02450bb6)">
     <use style="fill:#d62728;" x="129.818357" xlink:href="#C3_0_ce69a593ba" y="170.410651"/>
    </g>
   </g>
   <g id="PathCollection_8">
    <defs>
     <path d="M 0 2.5 
C 0.663008 2.5 1.29895 2.236584 1.767767 1.767767 
C 2.236584 1.29895 2.5 0.663008 2.5 -0 
C 2.5 -0.663008 2.236584 -1.29895 1.767767 -1.767767 
C 1.29895 -2.236584 0.663008 -2.5 0 -2.5 
C -0.663008 -2.5 -1.29895 -2.236584 -1.767767 -1.767767 
C -2.236584 -1.29895 -2.5 -0.663008 -2.5 0 
C -2.5 0.663008 -2.236584 1.29895 -1.767767 1.767767 
C -1.29895 2.236584 -0.663008 2.5 0 2.5 
z
" id="C4_0_31dac41541"/>
    </defs>
    <g clip-path="url(#p1f02450bb6)">
     <use style="fill:#ff7f0e;" x="146.965643" xlink:href="#C4_0_31dac41541" y="181.231194"/>
    </g>
    <g clip-path="url(#p1f02450bb6)">
     <use style="fill:#d62728;" x="141.874119" xlink:href="#C4_0_31dac41541" y="180.029206"/>
    </g>
    <g clip-path="url(#p1f02450bb6)">
     <use style="fill:#2ca02c;" x="149.157685" xlink:href="#C4_0_31dac41541" y="176.688734"/>
    </g>
   </g>
   <g id="PathCollection_9">
    <defs>
     <path d="M 0 2.5 
C 0.663008 2.5 1.29895 2.236584 1.767767 1.767767 
C 2.236584 1.29895 2.5 0.663008 2.5 -0 
C 2.5 -0.663008 2.236584 -1.29895 1.767767 -1.767767 
C 1.29895 -2.236584 0.663008 -2.5 0 -2.5 
C -0.663008 -2.5 -1.29895 -2.236584 -1.767767 -1.767767 
C -2.236584 -1.29895 -2.5 -0.663008 -2.5 0 
C -2.5 0.663008 -2.236584 1.29895 -1.767767 1.767767 
C -1.29895 2.236584 -0.663008 2.5 0 2.5 
z
" id="C5_0_6b01444567"/>
    </defs>
    <g clip-path="url(#p1f02450bb6)">
     <use style="fill:#ff7f0e;" x="168.672633" xlink:href="#C5_0_6b01444567" y="180.528549"/>
    </g>
    <g clip-path="url(#p1f02450bb6)">
     <use style="fill:#2ca02c;" x="163.512324" xlink:href="#C5_0_6b01444567" y="179.631875"/>
    </g>
    <g clip-path="url(#p1f02450bb6)">
     <use style="fill:#d62728;" x="173.63348" xlink:href="#C5_0_6b01444567" y="178.904243"/>
    </g>
   </g>
   <g id="PathCollection_10">
    <defs>
     <path d="M 0 2.5 
C 0.663008 2.5 1.29895 2.236584 1.767767 1.767767 
C 2.236584 1.29895 2.5 0.663008 2.5 -0 
C 2.5 -0.663008 2.236584 -1.29895 1.767767 -1.767767 
C 1.29895 -2.236584 0.663008 -2.5 0 -2.5 
C -0.663008 -2.5 -1.29895 -2.236584 -1.767767 -1.767767 
C -2.236584 -1.29895 -2.5 -0.663008 -2.5 0 
C -2.5 0.663008 -2.236584 1.29895 -1.767767 1.767767 
C -1.29895 2.236584 -0.663008 2.5 0 2.5 
z
" id="C6_0_dcb5de64c6"/>
    </defs>
    <g clip-path="url(#p1f02450bb6)">
     <use style="fill:#2ca02c;" x="190.379623" xlink:href="#C6_0_dcb5de64c6" y="184.368342"/>
    </g>
    <g clip-path="url(#p1f02450bb6)">
     <use style="fill:#d62728;" x="190.379623" xlink:href="#C6_0_dcb5de64c6" y="178.844067"/>
    </g>
    <g clip-path="url(#p1f02450bb6)">
     <use style="fill:#ff7f0e;" x="185.167607" xlink:href="#C6_0_dcb5de64c6" y="178.281303"/>
    </g>
   </g>
   <g id="PathCollection_11">
    <defs>
     <path d="M 0 2.5 
C 0.663008 2.5 1.29895 2.236584 1.767767 1.767767 
C 2.236584 1.29895 2.5 0.663008 2.5 -0 
C 2.5 -0.663008 2.236584 -1.29895 1.767767 -1.767767 
C 1.29895 -2.236584 0.663008 -2.5 0 -2.5 
C -0.663008 -2.5 -1.29895 -2.236584 -1.767767 -1.767767 
C -2.236584 -1.29895 -2.5 -0.663008 -2.5 0 
C -2.5 0.663008 -2.236584 1.29895 -1.767767 1.767767 
C -1.29895 2.236584 -0.663008 2.5 0 2.5 
z
" id="C7_0_fa27cda1dd"/>
    </defs>
    <g clip-path="url(#p1f02450bb6)">
     <use style="fill:#ff7f0e;" x="212.086613" xlink:href="#C7_0_fa27cda1dd" y="185.547441"/>
    </g>
    <g clip-path="url(#p1f02450bb6)">
     <use style="fill:#2ca02c;" x="206.845097" xlink:href="#C7_0_fa27cda1dd" y="185.356417"/>
    </g>
    <g clip-path="url(#p1f02450bb6)">
     <use style="fill:#d62728;" x="217.046313" xlink:href="#C7_0_fa27cda1dd" y="183.919953"/>
    </g>
   </g>
   <g id="text_18">
    <text style="font-family:DejaVu Sans;font-size:10px;font-stretch:normal;font-style:normal;font-weight:normal;text-anchor:middle;" transform="rotate(-0, 136.112148, 18.72)" x="136.112148" y="18.72">Gene = SFRP1</text>
   </g>
  </g>
  <g id="axes_2">
   <g id="patch_13">
    <path d="M 253.403079 188.12 
L 427.059 188.12 
L 427.059 24.72 
L 253.403079 24.72 
z
" style="fill:#ffffff;"/>
   </g>
   <g id="PathCollection_12"/>
   <g id="PathCollection_13"/>
   <g id="PathCollection_14"/>
   <g id="patch_14">
    <path clip-path="url(#pcf6f53ecf7)" d="M 255.573778 188.12 
L 272.93937 188.12 
L 272.93937 185.713648 
L 255.573778 185.713648 
z
" style="fill:#3274a1;opacity:0.6;"/>
   </g>
   <g id="patch_15">
    <path clip-path="url(#pcf6f53ecf7)" d="M 277.280768 188.12 
L 294.64636 188.12 
L 294.64636 186.287145 
L 277.280768 186.287145 
z
" style="fill:#3274a1;opacity:0.6;"/>
   </g>
   <g id="patch_16">
    <path clip-path="url(#pcf6f53ecf7)" d="M 298.987759 188.12 
L 316.353351 188.12 
L 316.353351 187.845029 
L 298.987759 187.845029 
z
" style="fill:#3274a1;opacity:0.6;"/>
   </g>
   <g id="patch_17">
    <path clip-path="url(#pcf6f53ecf7)" d="M 320.694749 188.12 
L 338.060341 188.12 
L 338.060341 187.147106 
L 320.694749 187.147106 
z
" style="fill:#3274a1;opacity:0.6;"/>
   </g>
   <g id="patch_18">
    <path clip-path="url(#pcf6f53ecf7)" d="M 342.401739 188.12 
L 359.767331 188.12 
L 359.767331 185.384347 
L 342.401739 185.384347 
z
" style="fill:#3274a1;opacity:0.6;"/>
   </g>
   <g id="patch_19">
    <path clip-path="url(#pcf6f53ecf7)" d="M 364.108729 188.12 
L 381.474321 188.12 
L 381.474321 180.370947 
L 364.108729 180.370947 
z
" style="fill:#3274a1;opacity:0.6;"/>
   </g>
   <g id="patch_20">
    <path clip-path="url(#pcf6f53ecf7)" d="M 385.815719 188.12 
L 403.181311 188.12 
L 403.181311 68.270926 
L 385.815719 68.270926 
z
" style="fill:#3274a1;opacity:0.6;"/>
   </g>
   <g id="patch_21">
    <path clip-path="url(#pcf6f53ecf7)" d="M 407.522709 188.12 
L 424.888301 188.12 
L 424.888301 99.744609 
L 407.522709 99.744609 
z
" style="fill:#3274a1;opacity:0.6;"/>
   </g>
   <g id="matplotlib.axis_3">
    <g id="xtick_9">
     <g id="line2d_41">
      <g>
       <use style="stroke:#000000;stroke-width:0.8;" x="264.256574" xlink:href="#m088f452ac9" y="188.12"/>
      </g>
     </g>
     <g id="text_19">
      <text style="font-family:DejaVu Sans;font-size:8px;font-stretch:normal;font-style:normal;font-weight:normal;text-anchor:middle;" transform="rotate(-0, 264.256574, 201.19875)" x="264.256574" y="201.19875">iPSC</text>
     </g>
    </g>
    <g id="xtick_10">
     <g id="line2d_42">
      <g>
       <use style="stroke:#000000;stroke-width:0.8;" x="285.963564" xlink:href="#m088f452ac9" y="188.12"/>
      </g>
     </g>
     <g id="text_20">
      <text style="font-family:DejaVu Sans;font-size:8px;font-stretch:normal;font-style:normal;font-weight:normal;text-anchor:middle;" transform="rotate(-0, 285.963564, 201.19875)" x="285.963564" y="201.19875">DE</text>
     </g>
    </g>
    <g id="xtick_11">
     <g id="line2d_43">
      <g>
       <use style="stroke:#000000;stroke-width:0.8;" x="307.670555" xlink:href="#m088f452ac9" y="188.12"/>
      </g>
     </g>
     <g id="text_21">
      <text style="font-family:DejaVu Sans;font-size:8px;font-stretch:normal;font-style:normal;font-weight:normal;text-anchor:middle;" transform="rotate(-0, 307.670555, 201.19875)" x="307.670555" y="201.19875">PGT</text>
     </g>
    </g>
    <g id="xtick_12">
     <g id="line2d_44">
      <g>
       <use style="stroke:#000000;stroke-width:0.8;" x="329.377545" xlink:href="#m088f452ac9" y="188.12"/>
      </g>
     </g>
     <g id="text_22">
      <text style="font-family:DejaVu Sans;font-size:8px;font-stretch:normal;font-style:normal;font-weight:normal;text-anchor:middle;" transform="rotate(-0, 329.377545, 201.19875)" x="329.377545" y="201.19875">PFG</text>
     </g>
    </g>
    <g id="xtick_13">
     <g id="line2d_45">
      <g>
       <use style="stroke:#000000;stroke-width:0.8;" x="351.084535" xlink:href="#m088f452ac9" y="188.12"/>
      </g>
     </g>
     <g id="text_23">
      <text style="font-family:DejaVu Sans;font-size:8px;font-stretch:normal;font-style:normal;font-weight:normal;text-anchor:middle;" transform="rotate(-0, 351.084535, 201.19875)" x="351.084535" y="201.19875">PE</text>
     </g>
    </g>
    <g id="xtick_14">
     <g id="line2d_46">
      <g>
       <use style="stroke:#000000;stroke-width:0.8;" x="372.791525" xlink:href="#m088f452ac9" y="188.12"/>
      </g>
     </g>
     <g id="text_24">
      <text style="font-family:DejaVu Sans;font-size:8px;font-stretch:normal;font-style:normal;font-weight:normal;text-anchor:middle;" transform="rotate(-0, 372.791525, 201.19875)" x="372.791525" y="201.19875">EP</text>
     </g>
    </g>
    <g id="xtick_15">
     <g id="line2d_47">
      <g>
       <use style="stroke:#000000;stroke-width:0.8;" x="394.498515" xlink:href="#m088f452ac9" y="188.12"/>
      </g>
     </g>
     <g id="text_25">
      <text style="font-family:DejaVu Sans;font-size:8px;font-stretch:normal;font-style:normal;font-weight:normal;text-anchor:middle;" transform="rotate(-0, 394.498515, 201.19875)" x="394.498515" y="201.19875">EN6</text>
     </g>
    </g>
    <g id="xtick_16">
     <g id="line2d_48">
      <g>
       <use style="stroke:#000000;stroke-width:0.8;" x="416.205505" xlink:href="#m088f452ac9" y="188.12"/>
      </g>
     </g>
     <g id="text_26">
      <text style="font-family:DejaVu Sans;font-size:8px;font-stretch:normal;font-style:normal;font-weight:normal;text-anchor:middle;" transform="rotate(-0, 416.205505, 201.19875)" x="416.205505" y="201.19875">EN7</text>
     </g>
    </g>
   </g>
   <g id="matplotlib.axis_4">
    <g id="ytick_9">
     <g id="line2d_49">
      <g>
       <use style="stroke:#000000;stroke-width:0.8;" x="253.403079" xlink:href="#m40e9722403" y="188.12"/>
      </g>
     </g>
     <g id="text_27">
      <text style="font-family:DejaVu Sans;font-size:10px;font-stretch:normal;font-style:normal;font-weight:normal;text-anchor:end;" transform="rotate(-0, 246.403079, 191.919219)" x="246.403079" y="191.919219">0</text>
     </g>
    </g>
    <g id="ytick_10">
     <g id="line2d_50">
      <g>
       <use style="stroke:#000000;stroke-width:0.8;" x="253.403079" xlink:href="#m40e9722403" y="159.625597"/>
      </g>
     </g>
     <g id="text_28">
      <text style="font-family:DejaVu Sans;font-size:10px;font-stretch:normal;font-style:normal;font-weight:normal;text-anchor:end;" transform="rotate(-0, 246.403079, 163.424816)" x="246.403079" y="163.424816">10</text>
     </g>
    </g>
    <g id="ytick_11">
     <g id="line2d_51">
      <g>
       <use style="stroke:#000000;stroke-width:0.8;" x="253.403079" xlink:href="#m40e9722403" y="131.131194"/>
      </g>
     </g>
     <g id="text_29">
      <text style="font-family:DejaVu Sans;font-size:10px;font-stretch:normal;font-style:normal;font-weight:normal;text-anchor:end;" transform="rotate(-0, 246.403079, 134.930413)" x="246.403079" y="134.930413">20</text>
     </g>
    </g>
    <g id="ytick_12">
     <g id="line2d_52">
      <g>
       <use style="stroke:#000000;stroke-width:0.8;" x="253.403079" xlink:href="#m40e9722403" y="102.636791"/>
      </g>
     </g>
     <g id="text_30">
      <text style="font-family:DejaVu Sans;font-size:10px;font-stretch:normal;font-style:normal;font-weight:normal;text-anchor:end;" transform="rotate(-0, 246.403079, 106.43601)" x="246.403079" y="106.43601">30</text>
     </g>
    </g>
    <g id="ytick_13">
     <g id="line2d_53">
      <g>
       <use style="stroke:#000000;stroke-width:0.8;" x="253.403079" xlink:href="#m40e9722403" y="74.142388"/>
      </g>
     </g>
     <g id="text_31">
      <text style="font-family:DejaVu Sans;font-size:10px;font-stretch:normal;font-style:normal;font-weight:normal;text-anchor:end;" transform="rotate(-0, 246.403079, 77.941607)" x="246.403079" y="77.941607">40</text>
     </g>
    </g>
    <g id="ytick_14">
     <g id="line2d_54">
      <g>
       <use style="stroke:#000000;stroke-width:0.8;" x="253.403079" xlink:href="#m40e9722403" y="45.647985"/>
      </g>
     </g>
     <g id="text_32">
      <text style="font-family:DejaVu Sans;font-size:10px;font-stretch:normal;font-style:normal;font-weight:normal;text-anchor:end;" transform="rotate(-0, 246.403079, 49.447204)" x="246.403079" y="49.447204">50</text>
     </g>
    </g>
   </g>
   <g id="line2d_55">
    <path clip-path="url(#pcf6f53ecf7)" d="M 264.256574 186.46362 
L 264.256574 184.942589 
" style="fill:none;stroke:#424242;stroke-linecap:square;stroke-width:2.7;"/>
   </g>
   <g id="line2d_56">
    <path clip-path="url(#pcf6f53ecf7)" d="M 263.171225 186.46362 
L 265.341924 186.46362 
" style="fill:none;stroke:#424242;stroke-linecap:square;stroke-width:2.7;"/>
   </g>
   <g id="line2d_57">
    <path clip-path="url(#pcf6f53ecf7)" d="M 263.171225 184.942589 
L 265.341924 184.942589 
" style="fill:none;stroke:#424242;stroke-linecap:square;stroke-width:2.7;"/>
   </g>
   <g id="line2d_58">
    <path clip-path="url(#pcf6f53ecf7)" d="M 285.963564 186.682457 
L 285.963564 186.023382 
" style="fill:none;stroke:#424242;stroke-linecap:square;stroke-width:2.7;"/>
   </g>
   <g id="line2d_59">
    <path clip-path="url(#pcf6f53ecf7)" d="M 284.878215 186.682457 
L 287.048914 186.682457 
" style="fill:none;stroke:#424242;stroke-linecap:square;stroke-width:2.7;"/>
   </g>
   <g id="line2d_60">
    <path clip-path="url(#pcf6f53ecf7)" d="M 284.878215 186.023382 
L 287.048914 186.023382 
" style="fill:none;stroke:#424242;stroke-linecap:square;stroke-width:2.7;"/>
   </g>
   <g id="line2d_61">
    <path clip-path="url(#pcf6f53ecf7)" d="M 307.670555 187.920254 
L 307.670555 187.762965 
" style="fill:none;stroke:#424242;stroke-linecap:square;stroke-width:2.7;"/>
   </g>
   <g id="line2d_62">
    <path clip-path="url(#pcf6f53ecf7)" d="M 306.585205 187.920254 
L 308.755904 187.920254 
" style="fill:none;stroke:#424242;stroke-linecap:square;stroke-width:2.7;"/>
   </g>
   <g id="line2d_63">
    <path clip-path="url(#pcf6f53ecf7)" d="M 306.585205 187.762965 
L 308.755904 187.762965 
" style="fill:none;stroke:#424242;stroke-linecap:square;stroke-width:2.7;"/>
   </g>
   <g id="line2d_64">
    <path clip-path="url(#pcf6f53ecf7)" d="M 329.377545 187.63816 
L 329.377545 186.559362 
" style="fill:none;stroke:#424242;stroke-linecap:square;stroke-width:2.7;"/>
   </g>
   <g id="line2d_65">
    <path clip-path="url(#pcf6f53ecf7)" d="M 328.292195 187.63816 
L 330.462894 187.63816 
" style="fill:none;stroke:#424242;stroke-linecap:square;stroke-width:2.7;"/>
   </g>
   <g id="line2d_66">
    <path clip-path="url(#pcf6f53ecf7)" d="M 328.292195 186.559362 
L 330.462894 186.559362 
" style="fill:none;stroke:#424242;stroke-linecap:square;stroke-width:2.7;"/>
   </g>
   <g id="line2d_67">
    <path clip-path="url(#pcf6f53ecf7)" d="M 351.084535 186.054726 
L 351.084535 184.261573 
" style="fill:none;stroke:#424242;stroke-linecap:square;stroke-width:2.7;"/>
   </g>
   <g id="line2d_68">
    <path clip-path="url(#pcf6f53ecf7)" d="M 349.999185 186.054726 
L 352.169884 186.054726 
" style="fill:none;stroke:#424242;stroke-linecap:square;stroke-width:2.7;"/>
   </g>
   <g id="line2d_69">
    <path clip-path="url(#pcf6f53ecf7)" d="M 349.999185 184.261573 
L 352.169884 184.261573 
" style="fill:none;stroke:#424242;stroke-linecap:square;stroke-width:2.7;"/>
   </g>
   <g id="line2d_70">
    <path clip-path="url(#pcf6f53ecf7)" d="M 372.791525 182.649929 
L 372.791525 176.313914 
" style="fill:none;stroke:#424242;stroke-linecap:square;stroke-width:2.7;"/>
   </g>
   <g id="line2d_71">
    <path clip-path="url(#pcf6f53ecf7)" d="M 371.706175 182.649929 
L 373.876874 182.649929 
" style="fill:none;stroke:#424242;stroke-linecap:square;stroke-width:2.7;"/>
   </g>
   <g id="line2d_72">
    <path clip-path="url(#pcf6f53ecf7)" d="M 371.706175 176.313914 
L 373.876874 176.313914 
" style="fill:none;stroke:#424242;stroke-linecap:square;stroke-width:2.7;"/>
   </g>
   <g id="line2d_73">
    <path clip-path="url(#pcf6f53ecf7)" d="M 394.498515 95.139344 
L 394.498515 32.500952 
" style="fill:none;stroke:#424242;stroke-linecap:square;stroke-width:2.7;"/>
   </g>
   <g id="line2d_74">
    <path clip-path="url(#pcf6f53ecf7)" d="M 393.413165 95.139344 
L 395.583864 95.139344 
" style="fill:none;stroke:#424242;stroke-linecap:square;stroke-width:2.7;"/>
   </g>
   <g id="line2d_75">
    <path clip-path="url(#pcf6f53ecf7)" d="M 393.413165 32.500952 
L 395.583864 32.500952 
" style="fill:none;stroke:#424242;stroke-linecap:square;stroke-width:2.7;"/>
   </g>
   <g id="line2d_76">
    <path clip-path="url(#pcf6f53ecf7)" d="M 416.205505 130.133605 
L 416.205505 66.577124 
" style="fill:none;stroke:#424242;stroke-linecap:square;stroke-width:2.7;"/>
   </g>
   <g id="line2d_77">
    <path clip-path="url(#pcf6f53ecf7)" d="M 415.120155 130.133605 
L 417.290854 130.133605 
" style="fill:none;stroke:#424242;stroke-linecap:square;stroke-width:2.7;"/>
   </g>
   <g id="line2d_78">
    <path clip-path="url(#pcf6f53ecf7)" d="M 415.120155 66.577124 
L 417.290854 66.577124 
" style="fill:none;stroke:#424242;stroke-linecap:square;stroke-width:2.7;"/>
   </g>
   <g id="patch_22">
    <path d="M 253.403079 188.12 
L 253.403079 24.72 
" style="fill:none;stroke:#000000;stroke-linecap:square;stroke-linejoin:miter;stroke-width:0.8;"/>
   </g>
   <g id="patch_23">
    <path d="M 253.403079 188.12 
L 427.059 188.12 
" style="fill:none;stroke:#000000;stroke-linecap:square;stroke-linejoin:miter;stroke-width:0.8;"/>
   </g>
   <g id="PathCollection_15">
    <defs>
     <path d="M 0 2.5 
C 0.663008 2.5 1.29895 2.236584 1.767767 1.767767 
C 2.236584 1.29895 2.5 0.663008 2.5 -0 
C 2.5 -0.663008 2.236584 -1.29895 1.767767 -1.767767 
C 1.29895 -2.236584 0.663008 -2.5 0 -2.5 
C -0.663008 -2.5 -1.29895 -2.236584 -1.767767 -1.767767 
C -2.236584 -1.29895 -2.5 -0.663008 -2.5 0 
C -2.5 0.663008 -2.236584 1.29895 -1.767767 1.767767 
C -1.29895 2.236584 -0.663008 2.5 0 2.5 
z
" id="C8_0_9e6f169afb"/>
    </defs>
    <g clip-path="url(#pcf6f53ecf7)">
     <use style="fill:#d62728;" x="264.256574" xlink:href="#C8_0_9e6f169afb" y="186.46362"/>
    </g>
    <g clip-path="url(#pcf6f53ecf7)">
     <use style="fill:#2ca02c;" x="259.067262" xlink:href="#C8_0_9e6f169afb" y="185.734734"/>
    </g>
    <g clip-path="url(#pcf6f53ecf7)">
     <use style="fill:#ff7f0e;" x="269.253323" xlink:href="#C8_0_9e6f169afb" y="184.942589"/>
    </g>
   </g>
   <g id="PathCollection_16">
    <defs>
     <path d="M 0 2.5 
C 0.663008 2.5 1.29895 2.236584 1.767767 1.767767 
C 2.236584 1.29895 2.5 0.663008 2.5 -0 
C 2.5 -0.663008 2.236584 -1.29895 1.767767 -1.767767 
C 1.29895 -2.236584 0.663008 -2.5 0 -2.5 
C -0.663008 -2.5 -1.29895 -2.236584 -1.767767 -1.767767 
C -2.236584 -1.29895 -2.5 -0.663008 -2.5 0 
C -2.5 0.663008 -2.236584 1.29895 -1.767767 1.767767 
C -1.29895 2.236584 -0.663008 2.5 0 2.5 
z
" id="C9_0_2cc36fe3a0"/>
    </defs>
    <g clip-path="url(#pcf6f53ecf7)">
     <use style="fill:#d62728;" x="285.963564" xlink:href="#C9_0_2cc36fe3a0" y="186.682457"/>
    </g>
    <g clip-path="url(#pcf6f53ecf7)">
     <use style="fill:#2ca02c;" x="280.74742" xlink:href="#C9_0_2cc36fe3a0" y="186.155596"/>
    </g>
    <g clip-path="url(#pcf6f53ecf7)">
     <use style="fill:#ff7f0e;" x="291.163141" xlink:href="#C9_0_2cc36fe3a0" y="186.023382"/>
    </g>
   </g>
   <g id="PathCollection_17">
    <defs>
     <path d="M 0 2.5 
C 0.663008 2.5 1.29895 2.236584 1.767767 1.767767 
C 2.236584 1.29895 2.5 0.663008 2.5 -0 
C 2.5 -0.663008 2.236584 -1.29895 1.767767 -1.767767 
C 1.29895 -2.236584 0.663008 -2.5 0 -2.5 
C -0.663008 -2.5 -1.29895 -2.236584 -1.767767 -1.767767 
C -2.236584 -1.29895 -2.5 -0.663008 -2.5 0 
C -2.5 0.663008 -2.236584 1.29895 -1.767767 1.767767 
C -1.29895 2.236584 -0.663008 2.5 0 2.5 
z
" id="Ca_0_ba33933b93"/>
    </defs>
    <g clip-path="url(#pcf6f53ecf7)">
     <use style="fill:#ff7f0e;" x="307.670555" xlink:href="#Ca_0_ba33933b93" y="187.920254"/>
    </g>
    <g clip-path="url(#pcf6f53ecf7)">
     <use style="fill:#d62728;" x="302.425699" xlink:href="#Ca_0_ba33933b93" y="187.851868"/>
    </g>
    <g clip-path="url(#pcf6f53ecf7)">
     <use style="fill:#2ca02c;" x="312.913304" xlink:href="#Ca_0_ba33933b93" y="187.762965"/>
    </g>
   </g>
   <g id="PathCollection_18">
    <defs>
     <path d="M 0 2.5 
C 0.663008 2.5 1.29895 2.236584 1.767767 1.767767 
C 2.236584 1.29895 2.5 0.663008 2.5 -0 
C 2.5 -0.663008 2.236584 -1.29895 1.767767 -1.767767 
C 1.29895 -2.236584 0.663008 -2.5 0 -2.5 
C -0.663008 -2.5 -1.29895 -2.236584 -1.767767 -1.767767 
C -2.236584 -1.29895 -2.5 -0.663008 -2.5 0 
C -2.5 0.663008 -2.236584 1.29895 -1.767767 1.767767 
C -1.29895 2.236584 -0.663008 2.5 0 2.5 
z
" id="Cb_0_1ebd021fd4"/>
    </defs>
    <g clip-path="url(#pcf6f53ecf7)">
     <use style="fill:#ff7f0e;" x="329.377545" xlink:href="#Cb_0_1ebd021fd4" y="187.63816"/>
    </g>
    <g clip-path="url(#pcf6f53ecf7)">
     <use style="fill:#d62728;" x="324.148539" xlink:href="#Cb_0_1ebd021fd4" y="187.243797"/>
    </g>
    <g clip-path="url(#pcf6f53ecf7)">
     <use style="fill:#2ca02c;" x="334.499344" xlink:href="#Cb_0_1ebd021fd4" y="186.559362"/>
    </g>
   </g>
   <g id="PathCollection_19">
    <defs>
     <path d="M 0 2.5 
C 0.663008 2.5 1.29895 2.236584 1.767767 1.767767 
C 2.236584 1.29895 2.5 0.663008 2.5 -0 
C 2.5 -0.663008 2.236584 -1.29895 1.767767 -1.767767 
C 1.29895 -2.236584 0.663008 -2.5 0 -2.5 
C -0.663008 -2.5 -1.29895 -2.236584 -1.767767 -1.767767 
C -2.236584 -1.29895 -2.5 -0.663008 -2.5 0 
C -2.5 0.663008 -2.236584 1.29895 -1.767767 1.767767 
C -1.29895 2.236584 -0.663008 2.5 0 2.5 
z
" id="Cc_0_66fa7c1109"/>
    </defs>
    <g clip-path="url(#pcf6f53ecf7)">
     <use style="fill:#d62728;" x="351.084535" xlink:href="#Cc_0_66fa7c1109" y="186.054726"/>
    </g>
    <g clip-path="url(#pcf6f53ecf7)">
     <use style="fill:#ff7f0e;" x="345.844176" xlink:href="#Cc_0_66fa7c1109" y="185.836743"/>
    </g>
    <g clip-path="url(#pcf6f53ecf7)">
     <use style="fill:#2ca02c;" x="355.980958" xlink:href="#Cc_0_66fa7c1109" y="184.261573"/>
    </g>
   </g>
   <g id="PathCollection_20">
    <defs>
     <path d="M 0 2.5 
C 0.663008 2.5 1.29895 2.236584 1.767767 1.767767 
C 2.236584 1.29895 2.5 0.663008 2.5 -0 
C 2.5 -0.663008 2.236584 -1.29895 1.767767 -1.767767 
C 1.29895 -2.236584 0.663008 -2.5 0 -2.5 
C -0.663008 -2.5 -1.29895 -2.236584 -1.767767 -1.767767 
C -2.236584 -1.29895 -2.5 -0.663008 -2.5 0 
C -2.5 0.663008 -2.236584 1.29895 -1.767767 1.767767 
C -1.29895 2.236584 -0.663008 2.5 0 2.5 
z
" id="Cd_0_987d0c0144"/>
    </defs>
    <g clip-path="url(#pcf6f53ecf7)">
     <use style="fill:#ff7f0e;" x="372.791525" xlink:href="#Cd_0_987d0c0144" y="182.649929"/>
    </g>
    <g clip-path="url(#pcf6f53ecf7)">
     <use style="fill:#d62728;" x="367.57257" xlink:href="#Cd_0_987d0c0144" y="182.148998"/>
    </g>
    <g clip-path="url(#pcf6f53ecf7)">
     <use style="fill:#2ca02c;" x="372.791525" xlink:href="#Cd_0_987d0c0144" y="176.313914"/>
    </g>
   </g>
   <g id="PathCollection_21">
    <defs>
     <path d="M 0 2.5 
C 0.663008 2.5 1.29895 2.236584 1.767767 1.767767 
C 2.236584 1.29895 2.5 0.663008 2.5 -0 
C 2.5 -0.663008 2.236584 -1.29895 1.767767 -1.767767 
C 1.29895 -2.236584 0.663008 -2.5 0 -2.5 
C -0.663008 -2.5 -1.29895 -2.236584 -1.767767 -1.767767 
C -2.236584 -1.29895 -2.5 -0.663008 -2.5 0 
C -2.5 0.663008 -2.236584 1.29895 -1.767767 1.767767 
C -1.29895 2.236584 -0.663008 2.5 0 2.5 
z
" id="Ce_0_464e56cbb2"/>
    </defs>
    <g clip-path="url(#pcf6f53ecf7)">
     <use style="fill:#ff7f0e;" x="394.498515" xlink:href="#Ce_0_464e56cbb2" y="95.139344"/>
    </g>
    <g clip-path="url(#pcf6f53ecf7)">
     <use style="fill:#d62728;" x="394.498515" xlink:href="#Ce_0_464e56cbb2" y="77.172483"/>
    </g>
    <g clip-path="url(#pcf6f53ecf7)">
     <use style="fill:#2ca02c;" x="394.498515" xlink:href="#Ce_0_464e56cbb2" y="32.500952"/>
    </g>
   </g>
   <g id="PathCollection_22">
    <defs>
     <path d="M 0 2.5 
C 0.663008 2.5 1.29895 2.236584 1.767767 1.767767 
C 2.236584 1.29895 2.5 0.663008 2.5 -0 
C 2.5 -0.663008 2.236584 -1.29895 1.767767 -1.767767 
C 1.29895 -2.236584 0.663008 -2.5 0 -2.5 
C -0.663008 -2.5 -1.29895 -2.236584 -1.767767 -1.767767 
C -2.236584 -1.29895 -2.5 -0.663008 -2.5 0 
C -2.5 0.663008 -2.236584 1.29895 -1.767767 1.767767 
C -1.29895 2.236584 -0.663008 2.5 0 2.5 
z
" id="Cf_0_5048dee7d0"/>
    </defs>
    <g clip-path="url(#pcf6f53ecf7)">
     <use style="fill:#ff7f0e;" x="416.205505" xlink:href="#Cf_0_5048dee7d0" y="130.133605"/>
    </g>
    <g clip-path="url(#pcf6f53ecf7)">
     <use style="fill:#d62728;" x="416.205505" xlink:href="#Cf_0_5048dee7d0" y="102.523098"/>
    </g>
    <g clip-path="url(#pcf6f53ecf7)">
     <use style="fill:#2ca02c;" x="416.205505" xlink:href="#Cf_0_5048dee7d0" y="66.577124"/>
    </g>
   </g>
   <g id="text_33">
    <text style="font-family:DejaVu Sans;font-size:10px;font-stretch:normal;font-style:normal;font-weight:normal;text-anchor:middle;" transform="rotate(-0, 340.23104, 18.72)" x="340.23104" y="18.72">Gene = WNT4</text>
   </g>
  </g>
  <g id="legend_1">
   <g id="PathCollection_23">
    <defs>
     <path d="M 0 3.872983 
C 1.027127 3.872983 2.012324 3.464901 2.738613 2.738613 
C 3.464901 2.012324 3.872983 1.027127 3.872983 0 
C 3.872983 -1.027127 3.464901 -2.012324 2.738613 -2.738613 
C 2.012324 -3.464901 1.027127 -3.872983 0 -3.872983 
C -1.027127 -3.872983 -2.012324 -3.464901 -2.738613 -2.738613 
C -3.464901 -2.012324 -3.872983 -1.027127 -3.872983 0 
C -3.872983 1.027127 -3.464901 2.012324 -2.738613 2.738613 
C -2.012324 3.464901 -1.027127 3.872983 0 3.872983 
z
" id="md4f0d2b135" style="stroke:#ff7f0e;"/>
    </defs>
    <g>
     <use style="fill:#ff7f0e;stroke:#ff7f0e;" x="440.984375" xlink:href="#md4f0d2b135" y="93.45625"/>
    </g>
   </g>
   <g id="text_34">
    <text style="font-family:DejaVu Sans;font-size:10px;font-stretch:normal;font-style:normal;font-weight:normal;text-anchor:start;" transform="rotate(-0, 458.984375, 96.08125)" x="458.984375" y="96.08125">Ad2</text>
   </g>
   <g id="PathCollection_24">
    <defs>
     <path d="M 0 3.872983 
C 1.027127 3.872983 2.012324 3.464901 2.738613 2.738613 
C 3.464901 2.012324 3.872983 1.027127 3.872983 0 
C 3.872983 -1.027127 3.464901 -2.012324 2.738613 -2.738613 
C 2.012324 -3.464901 1.027127 -3.872983 0 -3.872983 
C -1.027127 -3.872983 -2.012324 -3.464901 -2.738613 -2.738613 
C -3.464901 -2.012324 -3.872983 -1.027127 -3.872983 0 
C -3.872983 1.027127 -3.464901 2.012324 -2.738613 2.738613 
C -2.012324 3.464901 -1.027127 3.872983 0 3.872983 
z
" id="m21f1f4287d" style="stroke:#2ca02c;"/>
    </defs>
    <g>
     <use style="fill:#2ca02c;stroke:#2ca02c;" x="440.984375" xlink:href="#m21f1f4287d" y="108.134375"/>
    </g>
   </g>
   <g id="text_35">
    <text style="font-family:DejaVu Sans;font-size:10px;font-stretch:normal;font-style:normal;font-weight:normal;text-anchor:start;" transform="rotate(-0, 458.984375, 110.759375)" x="458.984375" y="110.759375">Ad3</text>
   </g>
   <g id="PathCollection_25">
    <defs>
     <path d="M 0 3.872983 
C 1.027127 3.872983 2.012324 3.464901 2.738613 2.738613 
C 3.464901 2.012324 3.872983 1.027127 3.872983 0 
C 3.872983 -1.027127 3.464901 -2.012324 2.738613 -2.738613 
C 2.012324 -3.464901 1.027127 -3.872983 0 -3.872983 
C -1.027127 -3.872983 -2.012324 -3.464901 -2.738613 -2.738613 
C -3.464901 -2.012324 -3.872983 -1.027127 -3.872983 0 
C -3.872983 1.027127 -3.464901 2.012324 -2.738613 2.738613 
C -2.012324 3.464901 -1.027127 3.872983 0 3.872983 
z
" id="m153d327522" style="stroke:#d62728;"/>
    </defs>
    <g>
     <use style="fill:#d62728;stroke:#d62728;" x="440.984375" xlink:href="#m153d327522" y="122.8125"/>
    </g>
   </g>
   <g id="text_36">
    <text style="font-family:DejaVu Sans;font-size:10px;font-stretch:normal;font-style:normal;font-weight:normal;text-anchor:start;" transform="rotate(-0, 458.984375, 125.4375)" x="458.984375" y="125.4375">Neo1</text>
   </g>
  </g>
 </g>
 <defs>
  <clipPath id="p1f02450bb6">
   <rect height="163.4" width="173.655921" x="49.284188" y="24.72"/>
  </clipPath>
  <clipPath id="pcf6f53ecf7">
   <rect height="163.4" width="173.655921" x="253.403079" y="24.72"/>
  </clipPath>
 </defs>
</svg>
