<?xml version="1.0" encoding="utf-8" standalone="no"?>
<!DOCTYPE svg PUBLIC "-//W3C//DTD SVG 1.1//EN"
  "http://www.w3.org/Graphics/SVG/1.1/DTD/svg11.dtd">
<!-- Created with matplotlib (https://matplotlib.org/) -->
<svg height="345.6pt" version="1.1" viewBox="0 0 460.8 345.6" width="460.8pt" xmlns="http://www.w3.org/2000/svg" xmlns:xlink="http://www.w3.org/1999/xlink">
 <metadata>
  <rdf:RDF xmlns:cc="http://creativecommons.org/ns#" xmlns:dc="http://purl.org/dc/elements/1.1/" xmlns:rdf="http://www.w3.org/1999/02/22-rdf-syntax-ns#">
   <cc:Work>
    <dc:type rdf:resource="http://purl.org/dc/dcmitype/StillImage"/>
    <dc:date>2021-05-04T22:31:24.934789</dc:date>
    <dc:format>image/svg+xml</dc:format>
    <dc:creator>
     <cc:Agent>
      <dc:title>Matplotlib v3.3.2, https://matplotlib.org/</dc:title>
     </cc:Agent>
    </dc:creator>
   </cc:Work>
  </rdf:RDF>
 </metadata>
 <defs>
  <style type="text/css">*{stroke-linecap:butt;stroke-linejoin:round;}</style>
 </defs>
 <g id="figure_1">
  <g id="patch_1">
   <path d="M 0 345.6 
L 460.8 345.6 
L 460.8 0 
L 0 0 
z
" style="fill:#ffffff;"/>
  </g>
  <g id="axes_1">
   <g id="patch_2">
    <path clip-path="url(#p46650c9699)" d="M 71.19199 212.854237 
C 81.814498 212.854237 92.003366 208.63387 99.514613 201.122623 
C 107.025861 193.611376 111.246228 183.422508 111.246228 172.8 
C 111.246228 162.177492 107.025861 151.988624 99.514613 144.477377 
C 92.003366 136.96613 81.814498 132.745763 71.19199 132.745763 
C 60.569482 132.745763 50.380615 136.96613 42.869367 144.477377 
C 35.35812 151.988624 31.137753 162.177492 31.137753 172.8 
C 31.137753 183.422508 35.35812 193.611376 42.869367 201.122623 
C 50.380615 208.63387 60.569482 212.854237 71.19199 212.854237 
z
" style="fill:#ff0000;opacity:0.4;"/>
   </g>
   <g id="patch_3">
    <path clip-path="url(#p46650c9699)" d="M 188.302729 242.851365 
C 206.880568 242.851365 224.700008 235.470311 237.836524 222.333795 
C 250.97304 209.197279 258.354094 191.377839 258.354094 172.8 
C 258.354094 154.222161 250.97304 136.402721 237.836524 123.266205 
C 224.700008 110.129689 206.880568 102.748635 188.302729 102.748635 
C 169.72489 102.748635 151.90545 110.129689 138.768934 123.266205 
C 125.632418 136.402721 118.251364 154.222161 118.251364 172.8 
C 118.251364 191.377839 125.632418 209.197279 138.768934 222.333795 
C 151.90545 235.470311 169.72489 242.851365 188.302729 242.851365 
z
" style="fill:#008000;opacity:0.4;"/>
   </g>
   <g id="patch_4">
    <path clip-path="url(#p46650c9699)" d="M 348.086936 254.375311 
C 369.720961 254.375311 390.471826 245.780022 405.769392 230.482456 
C 421.066958 215.18489 429.662247 194.434025 429.662247 172.8 
C 429.662247 151.165975 421.066958 130.41511 405.769392 115.117544 
C 390.471826 99.819978 369.720961 91.224689 348.086936 91.224689 
C 326.452911 91.224689 305.702047 99.819978 290.404481 115.117544 
C 275.106915 130.41511 266.511625 151.165975 266.511625 172.8 
C 266.511625 194.434025 275.106915 215.18489 290.404481 230.482456 
C 305.702047 245.780022 326.452911 254.375311 348.086936 254.375311 
z
" style="fill:#0000ff;opacity:0.4;"/>
   </g>
   <g id="text_1">
    <text style="font-family:DejaVu Sans;font-size:10px;font-stretch:normal;font-style:normal;font-weight:normal;text-anchor:middle;" transform="rotate(-0, 71.19199, 175.559375)" x="71.19199" y="175.559375">460</text>
   </g>
   <g id="text_2">
    <text style="font-family:DejaVu Sans;font-size:10px;font-stretch:normal;font-style:normal;font-weight:normal;text-anchor:middle;" transform="rotate(-0, 188.302729, 175.559375)" x="188.302729" y="175.559375">1407</text>
   </g>
   <g id="text_3">
    <text style="font-family:DejaVu Sans;font-size:10px;font-stretch:normal;font-style:normal;font-weight:normal;text-anchor:middle;" transform="rotate(-0, 348.086936, 175.559375)" x="348.086936" y="175.559375">1908</text>
   </g>
   <g id="text_4">
    <text style="font-family:DejaVu Sans;font-size:12px;font-stretch:normal;font-style:normal;font-weight:normal;text-anchor:middle;" transform="rotate(-0, 71.19199, 228.361726)" x="71.19199" y="228.361726">Low</text>
   </g>
   <g id="text_5">
    <text style="font-family:DejaVu Sans;font-size:12px;font-stretch:normal;font-style:normal;font-weight:normal;text-anchor:middle;" transform="rotate(-0, 188.302729, 258.358854)" x="188.302729" y="258.358854">Middle</text>
   </g>
   <g id="text_6">
    <text style="font-family:DejaVu Sans;font-size:12px;font-stretch:normal;font-style:normal;font-weight:normal;text-anchor:middle;" transform="rotate(-0, 348.086936, 269.8828)" x="348.086936" y="269.8828">High</text>
   </g>
   <g id="text_7">
    <text style="font-family:DejaVu Sans;font-size:12px;font-stretch:normal;font-style:normal;font-weight:normal;text-anchor:middle;" transform="rotate(-0, 230.4, 64.886936)" x="230.4" y="64.886936">Assay23 (counts &gt; 100)</text>
   </g>
  </g>
 </g>
 <defs>
  <clipPath id="p46650c9699">
   <rect height="203.826128" width="439.2" x="10.8" y="70.886936"/>
  </clipPath>
 </defs>
</svg>
