<?xml version="1.0" encoding="utf-8" standalone="no"?>
<!DOCTYPE svg PUBLIC "-//W3C//DTD SVG 1.1//EN"
  "http://www.w3.org/Graphics/SVG/1.1/DTD/svg11.dtd">
<!-- Created with matplotlib (https://matplotlib.org/) -->
<svg height="345.6pt" version="1.1" viewBox="0 0 460.8 345.6" width="460.8pt" xmlns="http://www.w3.org/2000/svg" xmlns:xlink="http://www.w3.org/1999/xlink">
 <metadata>
  <rdf:RDF xmlns:cc="http://creativecommons.org/ns#" xmlns:dc="http://purl.org/dc/elements/1.1/" xmlns:rdf="http://www.w3.org/1999/02/22-rdf-syntax-ns#">
   <cc:Work>
    <dc:type rdf:resource="http://purl.org/dc/dcmitype/StillImage"/>
    <dc:date>2021-05-04T22:31:24.522731</dc:date>
    <dc:format>image/svg+xml</dc:format>
    <dc:creator>
     <cc:Agent>
      <dc:title>Matplotlib v3.3.2, https://matplotlib.org/</dc:title>
     </cc:Agent>
    </dc:creator>
   </cc:Work>
  </rdf:RDF>
 </metadata>
 <defs>
  <style type="text/css">*{stroke-linecap:butt;stroke-linejoin:round;}</style>
 </defs>
 <g id="figure_1">
  <g id="patch_1">
   <path d="M 0 345.6 
L 460.8 345.6 
L 460.8 0 
L 0 0 
z
" style="fill:#ffffff;"/>
  </g>
  <g id="axes_1">
   <g id="patch_2">
    <path clip-path="url(#p582a70afe9)" d="M 80.174329 222.168053 
C 93.26689 222.168053 105.824975 216.966323 115.082814 207.708485 
C 124.340652 198.450647 129.542382 185.892561 129.542382 172.8 
C 129.542382 159.707439 124.340652 147.149353 115.082814 137.891515 
C 105.824975 128.633677 93.26689 123.431947 80.174329 123.431947 
C 67.081768 123.431947 54.523682 128.633677 45.265844 137.891515 
C 36.008005 147.149353 30.806276 159.707439 30.806276 172.8 
C 30.806276 185.892561 36.008005 198.450647 45.265844 207.708485 
C 54.523682 216.966323 67.081768 222.168053 80.174329 222.168053 
z
" style="fill:#ff0000;opacity:0.4;"/>
   </g>
   <g id="patch_3">
    <path clip-path="url(#p582a70afe9)" d="M 201.800333 238.489047 
C 219.221272 238.489047 235.93104 231.567634 248.249504 219.24917 
C 260.567968 206.930706 267.48938 190.220939 267.48938 172.8 
C 267.48938 155.379061 260.567968 138.669294 248.249504 126.35083 
C 235.93104 114.032366 219.221272 107.110953 201.800333 107.110953 
C 184.379394 107.110953 167.669627 114.032366 155.351163 126.35083 
C 143.032699 138.669294 136.111287 155.379061 136.111287 172.8 
C 136.111287 190.220939 143.032699 206.930706 155.351163 219.24917 
C 167.669627 231.567634 184.379394 238.489047 201.800333 238.489047 
z
" style="fill:#008000;opacity:0.4;"/>
   </g>
   <g id="patch_4">
    <path clip-path="url(#p582a70afe9)" d="M 352.610703 250.183021 
C 373.13292 250.183021 392.817363 242.029458 407.328762 227.518059 
C 421.840161 213.00666 429.993724 193.322217 429.993724 172.8 
C 429.993724 152.277783 421.840161 132.59334 407.328762 118.081941 
C 392.817363 103.570542 373.13292 95.416979 352.610703 95.416979 
C 332.088486 95.416979 312.404043 103.570542 297.892644 118.081941 
C 283.381245 132.59334 275.227682 152.277783 275.227682 172.8 
C 275.227682 193.322217 283.381245 213.00666 297.892644 227.518059 
C 312.404043 242.029458 332.088486 250.183021 352.610703 250.183021 
z
" style="fill:#0000ff;opacity:0.4;"/>
   </g>
   <g id="text_1">
    <text style="font-family:DejaVu Sans;font-size:10px;font-stretch:normal;font-style:normal;font-weight:normal;text-anchor:middle;" transform="rotate(-0, 80.174329, 175.559375)" x="80.174329" y="175.559375">488</text>
   </g>
   <g id="text_2">
    <text style="font-family:DejaVu Sans;font-size:10px;font-stretch:normal;font-style:normal;font-weight:normal;text-anchor:middle;" transform="rotate(-0, 201.800333, 175.559375)" x="201.800333" y="175.559375">864</text>
   </g>
   <g id="text_3">
    <text style="font-family:DejaVu Sans;font-size:10px;font-stretch:normal;font-style:normal;font-weight:normal;text-anchor:middle;" transform="rotate(-0, 352.610703, 175.559375)" x="352.610703" y="175.559375">1199</text>
   </g>
   <g id="text_4">
    <text style="font-family:DejaVu Sans;font-size:12px;font-stretch:normal;font-style:normal;font-weight:normal;text-anchor:middle;" transform="rotate(-0, 80.174329, 237.700849)" x="80.174329" y="237.700849">Low</text>
   </g>
   <g id="text_5">
    <text style="font-family:DejaVu Sans;font-size:12px;font-stretch:normal;font-style:normal;font-weight:normal;text-anchor:middle;" transform="rotate(-0, 201.800333, 254.021842)" x="201.800333" y="254.021842">Middle</text>
   </g>
   <g id="text_6">
    <text style="font-family:DejaVu Sans;font-size:12px;font-stretch:normal;font-style:normal;font-weight:normal;text-anchor:middle;" transform="rotate(-0, 352.610703, 265.715817)" x="352.610703" y="265.715817">High</text>
   </g>
   <g id="text_7">
    <text style="font-family:DejaVu Sans;font-size:12px;font-stretch:normal;font-style:normal;font-weight:normal;text-anchor:middle;" transform="rotate(-0, 230.4, 69.410703)" x="230.4" y="69.410703">Assay23 (counts &gt; 0)</text>
   </g>
  </g>
 </g>
 <defs>
  <clipPath id="p582a70afe9">
   <rect height="194.778594" width="439.2" x="10.8" y="75.410703"/>
  </clipPath>
 </defs>
</svg>
