<?xml version="1.0" encoding="utf-8" standalone="no"?>
<!DOCTYPE svg PUBLIC "-//W3C//DTD SVG 1.1//EN"
  "http://www.w3.org/Graphics/SVG/1.1/DTD/svg11.dtd">
<!-- Created with matplotlib (https://matplotlib.org/) -->
<svg height="345.6pt" version="1.1" viewBox="0 0 460.8 345.6" width="460.8pt" xmlns="http://www.w3.org/2000/svg" xmlns:xlink="http://www.w3.org/1999/xlink">
 <metadata>
  <rdf:RDF xmlns:cc="http://creativecommons.org/ns#" xmlns:dc="http://purl.org/dc/elements/1.1/" xmlns:rdf="http://www.w3.org/1999/02/22-rdf-syntax-ns#">
   <cc:Work>
    <dc:type rdf:resource="http://purl.org/dc/dcmitype/StillImage"/>
    <dc:date>2021-05-04T22:31:25.271232</dc:date>
    <dc:format>image/svg+xml</dc:format>
    <dc:creator>
     <cc:Agent>
      <dc:title>Matplotlib v3.3.2, https://matplotlib.org/</dc:title>
     </cc:Agent>
    </dc:creator>
   </cc:Work>
  </rdf:RDF>
 </metadata>
 <defs>
  <style type="text/css">*{stroke-linecap:butt;stroke-linejoin:round;}</style>
 </defs>
 <g id="figure_1">
  <g id="patch_1">
   <path d="M 0 345.6 
L 460.8 345.6 
L 460.8 0 
L 0 0 
z
" style="fill:#ffffff;"/>
  </g>
  <g id="axes_1">
   <g id="patch_2">
    <path clip-path="url(#p08937fb594)" d="M 90.699589 232.868261 
C 106.629878 232.868261 121.909848 226.53909 133.174263 215.274675 
C 144.438679 204.010259 150.767849 188.730289 150.767849 172.8 
C 150.767849 156.869711 144.438679 141.589741 133.174263 130.325325 
C 121.909848 119.06091 106.629878 112.731739 90.699589 112.731739 
C 74.7693 112.731739 59.489329 119.06091 48.224914 130.325325 
C 36.960499 141.589741 30.631328 156.869711 30.631328 172.8 
C 30.631328 188.730289 36.960499 204.010259 48.224914 215.274675 
C 59.489329 226.53909 74.7693 232.868261 90.699589 232.868261 
z
" style="fill:#ff0000;opacity:0.4;"/>
   </g>
   <g id="patch_3">
    <path clip-path="url(#p08937fb594)" d="M 229.941948 244.776453 
C 249.030326 244.776453 267.339464 237.19256 280.836986 223.695038 
C 294.334507 210.197516 301.918401 191.888378 301.918401 172.8 
C 301.918401 153.711622 294.334507 135.402484 280.836986 121.904962 
C 267.339464 108.40744 249.030326 100.823547 229.941948 100.823547 
C 210.853569 100.823547 192.544432 108.40744 179.04691 121.904962 
C 165.549388 135.402484 157.965495 153.711622 157.965495 172.8 
C 157.965495 191.888378 165.549388 210.197516 179.04691 223.695038 
C 192.544432 237.19256 210.853569 244.776453 229.941948 244.776453 
z
" style="fill:#008000;opacity:0.4;"/>
   </g>
   <g id="patch_4">
    <path clip-path="url(#p08937fb594)" d="M 369.097114 233.871558 
C 385.293481 233.871558 400.828666 227.436673 412.281227 215.984113 
C 423.733788 204.531552 430.168672 188.996366 430.168672 172.8 
C 430.168672 156.603634 423.733788 141.068448 412.281227 129.615887 
C 400.828666 118.163327 385.293481 111.728442 369.097114 111.728442 
C 352.900748 111.728442 337.365562 118.163327 325.913002 129.615887 
C 314.460441 141.068448 308.025556 156.603634 308.025556 172.8 
C 308.025556 188.996366 314.460441 204.531552 325.913002 215.984113 
C 337.365562 227.436673 352.900748 233.871558 369.097114 233.871558 
z
" style="fill:#0000ff;opacity:0.4;"/>
   </g>
   <g id="text_1">
    <text style="font-family:DejaVu Sans;font-size:10px;font-stretch:normal;font-style:normal;font-weight:normal;text-anchor:middle;" transform="rotate(-0, 90.699589, 175.559375)" x="90.699589" y="175.559375">950</text>
   </g>
   <g id="text_2">
    <text style="font-family:DejaVu Sans;font-size:10px;font-stretch:normal;font-style:normal;font-weight:normal;text-anchor:middle;" transform="rotate(-0, 229.941948, 175.559375)" x="229.941948" y="175.559375">1364</text>
   </g>
   <g id="text_3">
    <text style="font-family:DejaVu Sans;font-size:10px;font-stretch:normal;font-style:normal;font-weight:normal;text-anchor:middle;" transform="rotate(-0, 369.097114, 175.559375)" x="369.097114" y="175.559375">982</text>
   </g>
   <g id="text_4">
    <text style="font-family:DejaVu Sans;font-size:12px;font-stretch:normal;font-style:normal;font-weight:normal;text-anchor:middle;" transform="rotate(-0, 90.699589, 248.423595)" x="90.699589" y="248.423595">Low</text>
   </g>
   <g id="text_5">
    <text style="font-family:DejaVu Sans;font-size:12px;font-stretch:normal;font-style:normal;font-weight:normal;text-anchor:middle;" transform="rotate(-0, 229.941948, 260.331787)" x="229.941948" y="260.331787">Middle</text>
   </g>
   <g id="text_6">
    <text style="font-family:DejaVu Sans;font-size:12px;font-stretch:normal;font-style:normal;font-weight:normal;text-anchor:middle;" transform="rotate(-0, 369.097114, 249.426892)" x="369.097114" y="249.426892">High</text>
   </g>
   <g id="text_7">
    <text style="font-family:DejaVu Sans;font-size:12px;font-stretch:normal;font-style:normal;font-weight:normal;text-anchor:middle;" transform="rotate(-0, 230.4, 74.992219)" x="230.4" y="74.992219">Assay24 (counts &gt; 20)</text>
   </g>
  </g>
 </g>
 <defs>
  <clipPath id="p08937fb594">
   <rect height="183.615561" width="439.2" x="10.8" y="80.992219"/>
  </clipPath>
 </defs>
</svg>
