<?xml version="1.0" encoding="utf-8" standalone="no"?>
<!DOCTYPE svg PUBLIC "-//W3C//DTD SVG 1.1//EN"
  "http://www.w3.org/Graphics/SVG/1.1/DTD/svg11.dtd">
<!-- Created with matplotlib (https://matplotlib.org/) -->
<svg height="345.6pt" version="1.1" viewBox="0 0 460.8 345.6" width="460.8pt" xmlns="http://www.w3.org/2000/svg" xmlns:xlink="http://www.w3.org/1999/xlink">
 <metadata>
  <rdf:RDF xmlns:cc="http://creativecommons.org/ns#" xmlns:dc="http://purl.org/dc/elements/1.1/" xmlns:rdf="http://www.w3.org/1999/02/22-rdf-syntax-ns#">
   <cc:Work>
    <dc:type rdf:resource="http://purl.org/dc/dcmitype/StillImage"/>
    <dc:date>2021-05-04T22:31:24.690795</dc:date>
    <dc:format>image/svg+xml</dc:format>
    <dc:creator>
     <cc:Agent>
      <dc:title>Matplotlib v3.3.2, https://matplotlib.org/</dc:title>
     </cc:Agent>
    </dc:creator>
   </cc:Work>
  </rdf:RDF>
 </metadata>
 <defs>
  <style type="text/css">*{stroke-linecap:butt;stroke-linejoin:round;}</style>
 </defs>
 <g id="figure_1">
  <g id="patch_1">
   <path d="M 0 345.6 
L 460.8 345.6 
L 460.8 0 
L 0 0 
z
" style="fill:#ffffff;"/>
  </g>
  <g id="axes_1">
   <g id="patch_2">
    <path clip-path="url(#pd2c60dd8f0)" d="M 71.799347 213.479575 
C 82.587696 213.479575 92.935635 209.193318 100.56415 201.564803 
C 108.192665 193.936288 112.478921 183.588349 112.478921 172.8 
C 112.478921 162.011651 108.192665 151.663712 100.56415 144.035197 
C 92.935635 136.406682 82.587696 132.120425 71.799347 132.120425 
C 61.010998 132.120425 50.663059 136.406682 43.034544 144.035197 
C 35.406029 151.663712 31.119772 162.011651 31.119772 172.8 
C 31.119772 183.588349 35.406029 193.936288 43.034544 201.564803 
C 50.663059 209.193318 61.010998 213.479575 71.799347 213.479575 
z
" style="fill:#ff0000;opacity:0.4;"/>
   </g>
   <g id="patch_3">
    <path clip-path="url(#pd2c60dd8f0)" d="M 188.590459 241.992306 
C 206.940473 241.992306 224.541388 234.701769 237.516808 221.726349 
C 250.492227 208.75093 257.782765 191.150014 257.782765 172.8 
C 257.782765 154.449986 250.492227 136.84907 237.516808 123.873651 
C 224.541388 110.898231 206.940473 103.607694 188.590459 103.607694 
C 170.240444 103.607694 152.639529 110.898231 139.664109 123.873651 
C 126.68869 136.84907 119.398152 154.449986 119.398152 172.8 
C 119.398152 191.150014 126.68869 208.75093 139.664109 221.726349 
C 152.639529 234.701769 170.240444 241.992306 188.590459 241.992306 
z
" style="fill:#008000;opacity:0.4;"/>
   </g>
   <g id="patch_4">
    <path clip-path="url(#pd2c60dd8f0)" d="M 347.824293 254.655935 
C 369.532741 254.655935 390.354989 246.031077 405.70518 230.680886 
C 421.05537 215.330696 429.680228 194.508448 429.680228 172.8 
C 429.680228 151.091552 421.05537 130.269304 405.70518 114.919114 
C 390.354989 99.568923 369.532741 90.944065 347.824293 90.944065 
C 326.115845 90.944065 305.293597 99.568923 289.943407 114.919114 
C 274.593216 130.269304 265.968358 151.091552 265.968358 172.8 
C 265.968358 194.508448 274.593216 215.330696 289.943407 230.680886 
C 305.293597 246.031077 326.115845 254.655935 347.824293 254.655935 
z
" style="fill:#0000ff;opacity:0.4;"/>
   </g>
   <g id="text_1">
    <text style="font-family:DejaVu Sans;font-size:10px;font-stretch:normal;font-style:normal;font-weight:normal;text-anchor:middle;" transform="rotate(-0, 71.799347, 175.559375)" x="71.799347" y="175.559375">449</text>
   </g>
   <g id="text_2">
    <text style="font-family:DejaVu Sans;font-size:10px;font-stretch:normal;font-style:normal;font-weight:normal;text-anchor:middle;" transform="rotate(-0, 188.590459, 175.559375)" x="188.590459" y="175.559375">1299</text>
   </g>
   <g id="text_3">
    <text style="font-family:DejaVu Sans;font-size:10px;font-stretch:normal;font-style:normal;font-weight:normal;text-anchor:middle;" transform="rotate(-0, 347.824293, 175.559375)" x="347.824293" y="175.559375">1818</text>
   </g>
   <g id="text_4">
    <text style="font-family:DejaVu Sans;font-size:12px;font-stretch:normal;font-style:normal;font-weight:normal;text-anchor:middle;" transform="rotate(-0, 71.799347, 228.988627)" x="71.799347" y="228.988627">Low</text>
   </g>
   <g id="text_5">
    <text style="font-family:DejaVu Sans;font-size:12px;font-stretch:normal;font-style:normal;font-weight:normal;text-anchor:middle;" transform="rotate(-0, 188.590459, 257.501359)" x="188.590459" y="257.501359">Middle</text>
   </g>
   <g id="text_6">
    <text style="font-family:DejaVu Sans;font-size:12px;font-stretch:normal;font-style:normal;font-weight:normal;text-anchor:middle;" transform="rotate(-0, 347.824293, 270.164987)" x="347.824293" y="270.164987">High</text>
   </g>
   <g id="text_7">
    <text style="font-family:DejaVu Sans;font-size:12px;font-stretch:normal;font-style:normal;font-weight:normal;text-anchor:middle;" transform="rotate(-0, 230.4, 64.624293)" x="230.4" y="64.624293">Assay23 (counts &gt; 20)</text>
   </g>
  </g>
 </g>
 <defs>
  <clipPath id="pd2c60dd8f0">
   <rect height="204.351414" width="439.2" x="10.8" y="70.624293"/>
  </clipPath>
 </defs>
</svg>
