<?xml version="1.0" encoding="utf-8" standalone="no"?>
<!DOCTYPE svg PUBLIC "-//W3C//DTD SVG 1.1//EN"
  "http://www.w3.org/Graphics/SVG/1.1/DTD/svg11.dtd">
<!-- Created with matplotlib (https://matplotlib.org/) -->
<svg height="345.6pt" version="1.1" viewBox="0 0 460.8 345.6" width="460.8pt" xmlns="http://www.w3.org/2000/svg" xmlns:xlink="http://www.w3.org/1999/xlink">
 <metadata>
  <rdf:RDF xmlns:cc="http://creativecommons.org/ns#" xmlns:dc="http://purl.org/dc/elements/1.1/" xmlns:rdf="http://www.w3.org/1999/02/22-rdf-syntax-ns#">
   <cc:Work>
    <dc:type rdf:resource="http://purl.org/dc/dcmitype/StillImage"/>
    <dc:date>2021-05-04T22:31:27.232969</dc:date>
    <dc:format>image/svg+xml</dc:format>
    <dc:creator>
     <cc:Agent>
      <dc:title>Matplotlib v3.3.2, https://matplotlib.org/</dc:title>
     </cc:Agent>
    </dc:creator>
   </cc:Work>
  </rdf:RDF>
 </metadata>
 <defs>
  <style type="text/css">*{stroke-linecap:butt;stroke-linejoin:round;}</style>
 </defs>
 <g id="figure_1">
  <g id="patch_1">
   <path d="M 0 345.6 
L 460.8 345.6 
L 460.8 0 
L 0 0 
z
" style="fill:#ffffff;"/>
  </g>
  <g id="axes_1">
   <g id="patch_2">
    <path clip-path="url(#p92a6c1c845)" d="M 89.634054 231.037309 
C 105.078769 231.037309 119.892987 224.901059 130.81405 213.979996 
C 141.735113 203.058934 147.871363 188.244715 147.871363 172.8 
C 147.871363 157.355285 141.735113 142.541066 130.81405 131.620004 
C 119.892987 120.698941 105.078769 114.562691 89.634054 114.562691 
C 74.189339 114.562691 59.37512 120.698941 48.454058 131.620004 
C 37.532995 142.541066 31.396745 157.355285 31.396745 172.8 
C 31.396745 188.244715 37.532995 203.058934 48.454058 213.979996 
C 59.37512 224.901059 74.189339 231.037309 89.634054 231.037309 
z
" style="fill:#ff0000;opacity:0.4;"/>
   </g>
   <g id="patch_3">
    <path clip-path="url(#p92a6c1c845)" d="M 247.700812 263.554044 
C 271.769066 263.554044 294.854786 253.991626 311.873612 236.9728 
C 328.892438 219.953975 338.454856 196.868254 338.454856 172.8 
C 338.454856 148.731746 328.892438 125.646025 311.873612 108.6272 
C 294.854786 91.608374 271.769066 82.045956 247.700812 82.045956 
C 223.632558 82.045956 200.546837 91.608374 183.528012 108.6272 
C 166.509186 125.646025 156.946767 148.731746 156.946767 172.8 
C 156.946767 196.868254 166.509186 219.953975 183.528012 236.9728 
C 200.546837 253.991626 223.632558 263.554044 247.700812 263.554044 
z
" style="fill:#008000;opacity:0.4;"/>
   </g>
   <g id="patch_4">
    <path clip-path="url(#p92a6c1c845)" d="M 386.094494 216.108761 
C 397.580112 216.108761 408.596854 211.545477 416.718413 203.423919 
C 424.839971 195.302361 429.403255 184.285618 429.403255 172.8 
C 429.403255 161.314382 424.839971 150.297639 416.718413 142.176081 
C 408.596854 134.054523 397.580112 129.491239 386.094494 129.491239 
C 374.608876 129.491239 363.592133 134.054523 355.470575 142.176081 
C 347.349017 150.297639 342.785732 161.314382 342.785732 172.8 
C 342.785732 184.285618 347.349017 195.302361 355.470575 203.423919 
C 363.592133 211.545477 374.608876 216.108761 386.094494 216.108761 
z
" style="fill:#0000ff;opacity:0.4;"/>
   </g>
   <g id="text_1">
    <text style="font-family:DejaVu Sans;font-size:10px;font-stretch:normal;font-style:normal;font-weight:normal;text-anchor:middle;" transform="rotate(-0, 89.634054, 175.559375)" x="89.634054" y="175.559375">1188</text>
   </g>
   <g id="text_2">
    <text style="font-family:DejaVu Sans;font-size:10px;font-stretch:normal;font-style:normal;font-weight:normal;text-anchor:middle;" transform="rotate(-0, 247.700812, 175.559375)" x="247.700812" y="175.559375">2885</text>
   </g>
   <g id="text_3">
    <text style="font-family:DejaVu Sans;font-size:10px;font-stretch:normal;font-style:normal;font-weight:normal;text-anchor:middle;" transform="rotate(-0, 386.094494, 175.559375)" x="386.094494" y="175.559375">657</text>
   </g>
   <g id="text_4">
    <text style="font-family:DejaVu Sans;font-size:12px;font-stretch:normal;font-style:normal;font-weight:normal;text-anchor:middle;" transform="rotate(-0, 89.634054, 246.565438)" x="89.634054" y="246.565438">Assay22</text>
   </g>
   <g id="text_5">
    <text style="font-family:DejaVu Sans;font-size:12px;font-stretch:normal;font-style:normal;font-weight:normal;text-anchor:middle;" transform="rotate(-0, 247.700812, 279.082173)" x="247.700812" y="279.082173">Assay23</text>
   </g>
   <g id="text_6">
    <text style="font-family:DejaVu Sans;font-size:12px;font-stretch:normal;font-style:normal;font-weight:normal;text-anchor:middle;" transform="rotate(-0, 386.094494, 231.63689)" x="386.094494" y="231.63689">Assay24</text>
   </g>
   <g id="text_7">
    <text style="font-family:DejaVu Sans;font-size:12px;font-stretch:normal;font-style:normal;font-weight:normal;text-anchor:middle;" transform="rotate(-0, 230.4, 55.449211)" x="230.4" y="55.449211">High (counts &gt; 100)</text>
   </g>
  </g>
 </g>
 <defs>
  <clipPath id="p92a6c1c845">
   <rect height="222.701578" width="439.2" x="10.8" y="61.449211"/>
  </clipPath>
 </defs>
</svg>
