<?xml version="1.0" encoding="utf-8" standalone="no"?>
<!DOCTYPE svg PUBLIC "-//W3C//DTD SVG 1.1//EN"
  "http://www.w3.org/Graphics/SVG/1.1/DTD/svg11.dtd">
<!-- Created with matplotlib (https://matplotlib.org/) -->
<svg height="345.6pt" version="1.1" viewBox="0 0 460.8 345.6" width="460.8pt" xmlns="http://www.w3.org/2000/svg" xmlns:xlink="http://www.w3.org/1999/xlink">
 <metadata>
  <rdf:RDF xmlns:cc="http://creativecommons.org/ns#" xmlns:dc="http://purl.org/dc/elements/1.1/" xmlns:rdf="http://www.w3.org/1999/02/22-rdf-syntax-ns#">
   <cc:Work>
    <dc:type rdf:resource="http://purl.org/dc/dcmitype/StillImage"/>
    <dc:date>2021-05-04T22:31:25.709680</dc:date>
    <dc:format>image/svg+xml</dc:format>
    <dc:creator>
     <cc:Agent>
      <dc:title>Matplotlib v3.3.2, https://matplotlib.org/</dc:title>
     </cc:Agent>
    </dc:creator>
   </cc:Work>
  </rdf:RDF>
 </metadata>
 <defs>
  <style type="text/css">*{stroke-linecap:butt;stroke-linejoin:round;}</style>
 </defs>
 <g id="figure_1">
  <g id="patch_1">
   <path d="M 0 345.6 
L 460.8 345.6 
L 460.8 0 
L 0 0 
z
" style="fill:#ffffff;"/>
  </g>
  <g id="axes_1">
   <g id="patch_2">
    <path clip-path="url(#p3b41fde12d)" d="M 109.74974 251.63003 
C 130.655708 251.63003 150.708237 243.324 165.490989 228.541248 
C 180.27374 213.758497 188.57977 193.705968 188.57977 172.8 
C 188.57977 151.894032 180.27374 131.841503 165.490989 117.058752 
C 150.708237 102.276 130.655708 93.96997 109.74974 93.96997 
C 88.843772 93.96997 68.791243 102.276 54.008492 117.058752 
C 39.22574 131.841503 30.91971 151.894032 30.91971 172.8 
C 30.91971 193.705968 39.22574 213.758497 54.008492 228.541248 
C 68.791243 243.324 88.843772 251.63003 109.74974 251.63003 
z
" style="fill:#ff0000;opacity:0.4;"/>
   </g>
   <g id="patch_3">
    <path clip-path="url(#p3b41fde12d)" d="M 258.262745 236.14816 
C 275.062874 236.14816 291.177174 229.473398 303.056658 217.593913 
C 314.936143 205.714429 321.610905 189.600128 321.610905 172.8 
C 321.610905 155.999872 314.936143 139.885571 303.056658 128.006087 
C 291.177174 116.126602 275.062874 109.45184 258.262745 109.45184 
C 241.462617 109.45184 225.348317 116.126602 213.468832 128.006087 
C 201.589347 139.885571 194.914586 155.999872 194.914586 172.8 
C 194.914586 189.600128 201.589347 205.714429 213.468832 217.593913 
C 225.348317 229.473398 241.462617 236.14816 258.262745 236.14816 
z
" style="fill:#008000;opacity:0.4;"/>
   </g>
   <g id="patch_4">
    <path clip-path="url(#p3b41fde12d)" d="M 378.32344 224.35685 
C 391.996476 224.35685 405.111341 218.924495 414.779638 209.256198 
C 424.447935 199.587901 429.88029 186.473036 429.88029 172.8 
C 429.88029 159.126964 424.447935 146.012099 414.779638 136.343802 
C 405.111341 126.675505 391.996476 121.24315 378.32344 121.24315 
C 364.650403 121.24315 351.535538 126.675505 341.867242 136.343802 
C 332.198945 146.012099 326.76659 159.126964 326.76659 172.8 
C 326.76659 186.473036 332.198945 199.587901 341.867242 209.256198 
C 351.535538 218.924495 364.650403 224.35685 378.32344 224.35685 
z
" style="fill:#0000ff;opacity:0.4;"/>
   </g>
   <g id="text_1">
    <text style="font-family:DejaVu Sans;font-size:10px;font-stretch:normal;font-style:normal;font-weight:normal;text-anchor:middle;" transform="rotate(-0, 109.74974, 175.559375)" x="109.74974" y="175.559375">1564</text>
   </g>
   <g id="text_2">
    <text style="font-family:DejaVu Sans;font-size:10px;font-stretch:normal;font-style:normal;font-weight:normal;text-anchor:middle;" transform="rotate(-0, 258.262745, 175.559375)" x="258.262745" y="175.559375">1010</text>
   </g>
   <g id="text_3">
    <text style="font-family:DejaVu Sans;font-size:10px;font-stretch:normal;font-style:normal;font-weight:normal;text-anchor:middle;" transform="rotate(-0, 378.32344, 175.559375)" x="378.32344" y="175.559375">669</text>
   </g>
   <g id="text_4">
    <text style="font-family:DejaVu Sans;font-size:12px;font-stretch:normal;font-style:normal;font-weight:normal;text-anchor:middle;" transform="rotate(-0, 109.74974, 267.205989)" x="109.74974" y="267.205989">Assay22</text>
   </g>
   <g id="text_5">
    <text style="font-family:DejaVu Sans;font-size:12px;font-stretch:normal;font-style:normal;font-weight:normal;text-anchor:middle;" transform="rotate(-0, 258.262745, 251.724119)" x="258.262745" y="251.724119">Assay23</text>
   </g>
   <g id="text_6">
    <text style="font-family:DejaVu Sans;font-size:12px;font-stretch:normal;font-style:normal;font-weight:normal;text-anchor:middle;" transform="rotate(-0, 378.32344, 239.93281)" x="378.32344" y="239.93281">Assay24</text>
   </g>
   <g id="text_7">
    <text style="font-family:DejaVu Sans;font-size:12px;font-stretch:normal;font-style:normal;font-weight:normal;text-anchor:middle;" transform="rotate(-0, 230.4, 67.85026)" x="230.4" y="67.85026">Low (counts &gt; 0)</text>
   </g>
  </g>
 </g>
 <defs>
  <clipPath id="p3b41fde12d">
   <rect height="197.89948" width="439.2" x="10.8" y="73.85026"/>
  </clipPath>
 </defs>
</svg>
